{"glyphs":{"0":{"ha":789,"x_min":0,"x_max":779,"o":"m 366 983 l 394 983 q 633 906 545 983 q 668 827 668 869 l 668 766 q 715 547 668 587 q 724 538 715 546 l 724 537 q 679 447 689 500 q 668 294 668 393 l 668 210 q 522 68 668 114 q 395 52 463 52 l 388 52 q 130 141 203 52 q 109 210 109 175 l 109 263 q 66 519 109 471 q 51 538 66 522 l 51 539 q 109 746 109 587 l 109 828 q 243 967 109 924 q 366 983 304 983 m 649 911 q 706 792 706 864 l 706 709 q 737 549 706 596 l 736 549 q 683 726 686 583 l 683 815 q 649 910 683 873 l 649 911 m 102 885 l 102 884 q 90 831 90 852 l 90 751 q 56 572 90 619 l 54 572 l 54 572 q 75 720 75 618 q 75 792 75 753 q 102 885 75 847 m 271 684 l 271 370 q 304 292 271 307 q 336 286 318 286 l 441 286 q 494 317 479 286 q 503 369 503 333 l 503 698 q 486 751 503 743 q 439 763 471 763 l 342 763 q 277 736 291 763 q 271 684 271 723 m 340 745 l 435 745 q 481 728 471 745 q 484 684 484 722 l 484 361 q 469 313 484 325 l 467 313 l 469 325 l 469 676 q 461 695 469 695 q 429 698 461 698 l 357 698 q 312 689 312 698 q 310 667 310 683 l 310 323 q 311 307 311 313 q 288 345 288 320 q 287 354 287 345 l 287 701 q 297 736 287 728 q 340 745 310 745 m 752 534 q 779 512 779 525 l 779 506 q 750 481 779 494 q 706 292 706 441 l 706 186 q 541 6 706 60 q 404 -13 476 -13 l 384 -13 q 106 86 192 -13 q 75 189 75 130 l 75 261 q 18 488 75 463 q 0 504 9 488 l 0 511 q 24 533 0 526 q 70 469 53 519 q 90 253 90 412 l 90 207 q 197 68 90 118 q 376 34 278 34 l 399 34 q 641 113 552 34 q 683 219 683 155 l 683 227 q 682 300 683 267 q 738 527 682 489 q 752 534 748 534 z "},"1":{"ha":700,"x_min":0,"x_max":669,"o":"m 393 973 q 420 961 410 973 q 410 718 410 753 q 454 539 410 578 l 454 538 q 418 411 418 507 q 426 317 418 317 q 448 298 433 304 q 483 290 465 290 l 585 290 q 632 277 624 290 l 632 80 q 600 64 632 67 q 387 84 549 64 q 331 87 359 87 l 310 87 q 120 68 276 87 q 62 64 94 64 q 33 77 44 64 l 33 276 q 70 290 42 290 l 199 290 q 259 321 240 290 q 264 411 263 321 q 218 535 264 488 l 218 536 q 263 671 263 568 q 255 738 263 738 q 178 764 240 764 l 151 764 q 124 777 132 764 l 124 892 q 165 920 124 901 q 264 973 253 973 l 393 973 m 433 969 l 434 969 q 457 934 457 954 l 457 926 q 448 693 457 906 q 473 547 448 587 l 473 545 l 471 545 q 438 594 454 554 q 426 708 426 642 l 426 711 q 425 718 426 717 q 426 728 426 724 q 434 959 426 758 l 434 962 l 433 969 m 104 895 l 105 895 l 105 776 q 152 747 105 751 q 170 745 152 745 l 199 745 q 243 720 231 745 q 245 685 243 720 q 220 564 245 585 l 220 566 q 229 627 229 593 l 229 684 q 200 699 225 699 l 167 699 q 91 741 102 699 q 90 759 90 749 l 90 854 q 104 895 90 886 m 482 535 l 483 535 q 508 516 508 525 q 509 510 509 511 q 482 484 509 495 q 456 397 456 460 l 456 395 q 457 311 456 364 l 454 311 q 434 335 434 323 q 433 418 433 387 q 473 532 433 507 q 482 535 480 535 m 191 532 q 245 406 245 491 q 239 321 245 321 q 229 315 232 315 l 229 317 q 230 368 230 349 l 230 382 q 173 496 230 463 q 169 508 169 503 l 169 513 q 191 532 169 527 m 646 284 l 646 284 q 669 252 669 269 l 669 46 q 611 0 669 11 l 588 0 q 383 20 551 0 q 321 23 351 23 q 111 1 280 23 q 81 0 94 0 l 62 0 q 7 24 33 0 q 0 46 0 37 l 0 252 q 14 277 0 264 l 14 277 l 14 79 q 56 47 14 53 l 62 47 q 261 66 107 47 q 313 70 286 70 l 325 70 q 533 50 372 70 q 601 47 563 47 l 602 47 q 646 74 636 47 l 646 277 l 646 284 z "},"2":{"ha":652,"x_min":0,"x_max":625,"o":"m 300 973 l 323 973 q 581 855 528 973 q 588 815 588 835 l 588 600 q 552 571 588 593 q 480 516 500 538 q 463 473 463 497 l 463 469 q 435 464 463 467 q 354 416 396 454 l 292 357 q 287 340 287 344 q 345 290 287 299 l 365 290 q 433 328 424 290 q 435 352 435 339 l 435 392 q 469 405 444 405 l 554 405 q 588 391 588 403 l 588 82 q 560 68 578 68 q 410 86 478 86 q 220 64 336 86 q 193 64 204 64 q 45 72 45 68 q 33 84 33 77 l 33 294 q 170 407 57 317 q 252 543 252 481 q 311 556 292 547 q 411 643 333 563 q 435 691 435 673 l 435 699 q 414 750 435 740 q 360 758 398 758 l 264 758 q 193 734 204 758 q 186 699 186 718 l 186 663 q 142 646 186 646 l 74 646 q 33 659 41 646 l 33 815 q 210 965 33 928 q 300 973 253 973 m 563 911 l 564 911 q 625 797 625 856 l 625 564 q 559 504 625 541 q 499 447 499 465 l 510 426 l 510 422 q 508 420 510 420 l 460 420 q 416 388 416 416 l 416 354 q 408 318 416 326 q 403 315 406 318 l 401 315 q 402 330 402 325 l 402 363 q 406 382 402 374 l 405 382 q 332 316 389 371 q 325 311 332 316 q 302 336 302 321 q 332 372 302 348 q 415 438 396 435 q 470 450 440 450 q 486 449 475 449 l 487 449 l 487 450 q 477 475 477 463 q 566 560 477 507 q 602 594 602 583 l 602 821 q 563 911 602 867 m 26 873 l 26 871 q 14 815 14 848 l 14 661 q 75 629 14 629 l 140 629 q 200 661 200 629 l 200 693 q 216 734 200 726 q 274 741 229 741 l 342 741 q 407 733 396 741 q 416 699 416 724 l 416 690 q 402 663 412 671 l 402 665 q 395 691 402 691 q 372 693 386 693 l 256 693 q 224 683 224 693 q 222 661 222 674 l 222 630 q 162 583 222 593 l 68 583 q 1 621 16 583 q 0 629 0 625 l 0 795 q 26 873 0 840 m 231 553 q 233 541 233 548 q 210 480 233 511 l 210 481 q 218 514 218 498 q 216 535 218 519 q 231 553 216 546 m 601 400 l 602 400 q 625 366 625 387 l 625 48 q 574 6 625 20 q 563 5 568 5 l 559 5 q 418 22 479 22 l 412 22 q 227 1 334 22 q 198 0 213 0 l 184 0 q 36 10 36 5 q 0 48 0 26 l 0 272 q 14 294 0 282 l 14 294 l 14 81 q 88 50 14 50 q 189 46 168 46 q 313 62 224 46 q 406 68 359 68 q 557 52 473 68 q 602 78 602 58 l 602 393 l 601 400 z "},"3":{"ha":700,"x_min":0,"x_max":688,"o":"m 296 986 l 318 986 q 548 907 461 986 q 582 812 582 872 q 620 739 582 759 l 620 736 q 582 638 582 705 q 568 581 582 589 q 520 559 549 570 q 511 538 511 553 q 553 489 511 503 q 578 455 570 480 q 584 374 582 441 q 606 321 591 340 q 630 301 614 313 l 630 300 q 581 186 581 262 q 566 144 576 163 q 510 94 536 109 q 312 45 425 45 l 304 45 q 77 114 145 45 q 33 207 33 154 l 33 389 q 60 401 42 401 l 158 401 q 186 389 176 401 l 186 339 q 226 284 186 298 q 246 282 236 282 l 359 282 q 425 318 410 282 q 429 340 429 331 l 429 426 q 392 509 429 489 q 350 513 381 513 l 286 513 q 250 527 259 513 l 250 534 q 312 549 254 549 q 416 566 397 549 q 429 663 429 583 l 429 699 q 393 759 429 742 q 363 764 381 764 l 262 764 q 189 728 199 764 q 186 699 186 715 l 186 663 q 158 650 178 650 l 62 650 q 33 663 41 650 l 33 821 q 204 977 33 932 q 296 986 250 986 m 559 916 l 560 916 q 604 859 595 884 q 621 764 621 831 q 624 754 623 764 l 623 754 q 596 824 596 768 q 559 916 596 875 m 26 879 l 26 878 q 14 819 14 850 l 14 665 q 81 631 14 631 l 134 631 q 200 665 200 631 l 200 694 q 214 736 200 729 q 260 746 229 746 l 354 746 q 404 727 392 746 q 410 699 410 711 l 410 670 q 398 576 410 576 q 393 574 398 574 q 396 666 396 614 q 370 697 396 697 q 354 699 367 699 l 277 699 q 224 686 224 699 q 222 652 222 675 l 222 632 q 166 585 222 595 q 144 583 157 583 l 75 583 q 0 627 12 583 l 0 798 q 26 879 0 842 m 652 734 q 680 711 680 729 q 652 684 680 694 q 620 610 620 667 q 591 523 620 540 q 557 504 581 515 q 526 532 526 516 l 526 542 q 560 557 529 544 q 590 585 587 571 q 598 669 595 585 q 627 720 608 706 q 652 734 642 732 m 231 534 l 232 534 l 232 532 q 288 496 232 496 l 342 496 q 388 488 388 496 q 410 425 410 473 l 410 340 q 397 309 410 322 l 396 309 l 396 391 q 378 447 396 436 l 376 447 q 278 448 356 447 q 218 496 218 458 l 218 505 q 231 534 218 522 m 581 485 l 582 485 q 615 434 605 468 q 621 351 619 420 q 632 320 625 331 l 631 320 q 596 413 596 341 q 581 484 596 464 l 581 485 m 199 397 q 222 360 222 382 l 222 318 q 224 302 222 313 q 200 347 200 310 l 200 388 q 199 397 199 394 m 14 390 l 14 390 l 14 201 q 108 67 14 125 q 294 27 181 27 l 315 27 q 546 99 452 27 q 597 216 597 140 q 637 285 609 262 q 659 300 644 292 q 688 279 688 294 l 688 273 q 658 246 688 261 q 618 149 618 218 q 572 66 605 96 q 414 -11 520 14 q 321 -20 366 -20 l 296 -20 q 22 98 98 -20 q 0 169 0 133 l 0 364 q 14 390 0 376 z "},"4":{"ha":882,"x_min":0,"x_max":872,"o":"m 742 973 l 750 973 q 777 958 773 973 l 777 777 q 750 764 769 764 l 742 764 q 662 728 675 764 q 660 716 660 722 l 660 506 q 699 463 660 476 q 724 459 711 459 l 800 459 q 835 446 824 459 l 835 439 q 806 427 826 427 l 742 427 q 662 391 675 427 q 660 379 660 384 l 660 336 q 701 292 660 306 q 761 288 712 290 q 777 274 777 281 l 777 77 q 747 64 768 64 l 744 64 q 593 79 720 64 q 569 80 574 80 q 416 66 545 80 q 393 64 412 64 l 388 64 q 358 77 368 64 l 358 274 q 405 290 358 290 l 425 290 q 488 336 488 296 l 488 379 q 426 426 488 418 q 404 427 422 427 l 60 427 q 33 439 43 427 l 33 465 q 348 836 310 793 q 450 926 421 911 q 518 958 492 958 q 650 947 622 947 q 720 968 673 947 q 742 973 734 973 m 791 969 l 792 969 q 816 929 816 956 l 816 749 q 760 699 816 710 q 699 688 699 699 q 699 687 699 688 l 699 482 l 697 479 q 674 512 674 489 l 674 705 q 694 739 674 732 q 757 746 703 746 q 793 781 793 753 l 793 954 q 791 969 793 961 m 258 506 q 298 463 258 477 q 323 459 308 459 l 424 459 q 486 493 468 459 q 488 506 488 500 l 488 744 q 469 763 486 763 q 426 714 445 763 q 263 524 283 551 q 258 506 260 519 m 469 745 l 469 743 l 469 506 q 456 485 469 494 l 455 485 l 455 661 q 296 479 304 488 q 274 505 274 490 l 274 506 q 307 551 274 517 q 441 709 431 696 q 469 745 455 745 m 14 467 l 14 467 l 14 441 q 79 408 14 408 l 425 408 q 469 374 469 404 l 469 336 q 455 315 469 322 l 455 349 q 425 361 447 361 l 76 361 q 0 404 12 361 l 0 440 q 14 467 0 452 m 849 455 q 872 419 872 439 l 872 408 q 817 362 872 374 q 798 361 807 361 l 728 361 q 699 350 706 361 l 699 312 l 697 310 q 674 342 674 318 l 674 368 q 694 401 674 395 q 720 408 707 408 l 785 408 q 847 429 837 408 l 849 436 l 849 448 q 847 454 849 450 l 849 455 m 791 284 l 792 284 q 816 245 816 271 l 816 51 q 753 0 816 7 l 741 0 q 602 14 718 0 q 578 14 597 14 l 576 14 q 571 16 573 14 q 567 14 570 14 l 564 14 q 422 1 541 14 q 401 0 419 0 l 386 0 q 323 51 323 7 l 323 239 q 338 277 323 267 l 339 277 l 339 74 q 384 47 349 47 l 391 47 q 543 62 415 47 q 567 62 548 62 q 728 47 587 62 l 747 47 q 793 79 793 52 l 793 269 q 791 284 793 276 z "},"5":{"ha":643,"x_min":0,"x_max":613,"o":"m 409 967 l 420 967 l 542 960 q 576 947 566 960 l 576 766 q 547 751 572 751 l 255 751 q 185 715 201 751 l 184 705 l 184 607 q 232 566 184 578 q 260 564 243 564 l 375 564 q 557 532 513 564 q 576 435 576 507 l 576 213 q 511 81 576 112 q 316 47 449 47 l 304 47 q 47 137 102 47 q 33 211 33 166 l 33 378 q 61 391 41 391 l 155 391 q 184 377 177 391 q 204 302 184 317 q 311 279 235 279 q 412 308 395 279 q 425 357 425 330 l 425 430 q 376 525 425 503 q 320 531 361 531 l 297 531 q 194 485 252 531 q 176 481 182 481 q 157 488 159 481 q 74 522 138 508 l 33 529 q 33 597 33 574 l 33 946 q 61 960 43 960 q 210 938 141 938 l 229 938 q 378 964 291 938 q 409 967 391 967 m 590 954 l 591 954 q 613 920 613 941 l 613 732 q 546 686 613 694 l 246 686 q 220 674 229 686 l 220 587 l 220 585 q 198 610 198 595 l 198 699 q 256 733 198 733 l 547 733 q 591 760 581 733 l 591 947 l 590 954 m 13 947 l 14 947 l 14 609 q 15 514 14 577 q 120 490 76 505 q 149 467 139 482 q 172 464 162 464 l 173 464 q 228 489 201 464 q 292 514 265 514 l 307 514 q 381 500 375 514 q 407 428 407 478 l 407 359 q 391 311 407 326 l 391 312 q 393 339 393 329 l 393 387 q 369 461 393 449 q 303 467 369 467 l 301 467 q 241 444 273 467 q 182 418 208 418 l 173 418 q 133 434 143 418 q 70 458 117 448 l 11 468 q 1 481 5 473 q 0 527 0 512 l 0 922 q 13 947 0 935 m 572 538 l 572 538 q 613 426 613 509 l 613 164 q 553 36 613 85 q 330 -17 484 -17 l 297 -17 q 35 68 111 -17 q 0 168 0 111 l 0 355 q 13 379 0 366 l 14 379 l 14 204 q 137 52 14 90 q 298 30 208 30 l 321 30 q 574 121 529 30 q 591 196 591 158 l 591 450 q 572 538 591 507 m 197 387 l 198 387 q 222 335 222 376 q 224 310 222 331 q 203 330 214 310 q 197 387 200 341 z "},"6":{"ha":746,"x_min":0,"x_max":696,"o":"m 373 987 l 398 987 q 638 903 570 987 q 659 833 659 873 l 659 664 q 631 651 651 651 l 536 651 q 509 664 518 651 l 509 702 q 477 759 509 751 q 429 765 460 765 l 343 765 q 277 741 290 765 q 269 700 269 724 l 269 601 q 321 554 269 566 q 351 553 339 553 l 452 553 q 650 472 616 553 q 659 417 659 454 l 659 204 q 498 58 659 92 q 397 48 456 48 l 395 48 q 145 124 218 48 q 115 207 115 156 l 115 277 q 51 540 115 491 q 115 753 115 596 l 115 820 q 161 934 115 903 q 373 987 228 987 m 640 926 q 684 867 674 895 q 696 817 696 837 l 696 632 q 638 586 696 595 q 622 585 633 585 l 553 585 q 480 616 497 585 q 476 635 476 625 l 476 660 q 469 694 476 694 q 417 700 460 700 l 370 700 q 309 692 309 700 q 305 661 305 682 l 305 578 l 304 576 q 283 602 283 587 l 283 686 q 309 743 283 743 q 353 747 309 746 l 429 747 q 487 727 479 747 q 490 702 490 714 l 490 669 q 513 637 490 646 q 554 632 525 632 l 611 632 q 671 654 661 632 l 673 661 l 673 839 q 640 924 673 885 l 640 926 m 109 898 l 109 896 q 97 823 97 870 l 97 757 q 60 578 97 629 l 60 581 q 83 745 83 629 l 83 810 q 109 898 83 861 m 23 533 q 59 502 42 527 q 97 280 97 441 l 97 203 q 281 40 97 77 q 386 31 332 31 l 403 31 q 644 114 566 31 q 673 195 673 152 l 673 428 q 646 508 673 473 l 647 508 q 696 401 696 465 l 696 166 q 549 3 696 54 q 408 -17 483 -17 l 387 -17 q 123 68 209 -17 q 83 170 83 113 l 83 216 q 39 473 83 436 q 7 493 32 484 q 0 508 0 500 l 0 511 q 23 533 0 526 m 269 441 l 269 355 q 300 292 269 302 q 342 285 315 285 l 439 285 q 501 310 486 285 q 509 347 509 327 l 509 454 q 464 512 509 499 q 445 514 456 514 l 353 514 q 279 484 292 514 q 269 441 269 465 m 357 496 l 439 496 q 488 468 478 496 q 490 452 488 467 l 490 350 q 476 309 490 316 q 475 310 476 310 l 476 323 l 476 416 q 449 449 476 449 l 373 449 q 311 436 311 449 q 305 398 305 427 l 305 332 q 307 307 305 320 l 306 307 q 285 336 285 314 q 283 363 283 336 l 283 424 q 303 488 283 477 q 357 496 323 496 z "},"7":{"ha":814,"x_min":0,"x_max":774,"o":"m 215 972 l 234 972 q 376 958 273 972 q 528 948 453 948 q 710 967 614 948 q 737 951 732 967 l 737 751 q 599 580 612 607 q 585 534 585 555 l 585 526 q 602 482 585 505 q 577 473 602 480 q 488 367 519 446 q 456 239 473 335 q 441 77 441 146 q 410 64 433 64 l 218 64 q 188 77 197 64 l 188 81 q 317 457 188 252 q 327 499 327 476 q 315 536 327 511 q 410 583 376 549 l 509 692 q 514 710 513 703 q 475 754 514 740 q 450 758 464 758 l 276 758 q 218 733 218 758 q 227 660 227 692 q 193 646 227 649 l 66 646 q 33 662 33 648 l 33 951 q 66 967 33 965 q 215 972 195 972 m 751 962 q 774 928 774 949 l 774 722 q 747 677 774 705 q 627 522 627 538 q 623 503 623 511 q 634 473 623 489 l 634 471 q 600 530 600 498 q 665 640 600 571 q 749 741 688 669 l 751 749 l 751 952 l 751 962 m 14 954 l 14 954 l 14 661 q 60 629 14 633 l 197 629 q 240 652 226 629 q 241 656 241 653 l 241 661 q 234 730 241 699 l 234 732 q 277 741 234 741 l 447 741 q 494 715 483 741 l 494 708 q 477 686 494 697 q 450 694 465 694 l 284 694 q 258 693 275 694 q 264 646 264 669 l 264 629 q 224 587 264 600 q 201 582 215 582 l 64 582 q 1 618 19 582 q 0 627 0 624 l 0 930 q 14 954 0 943 m 277 540 l 286 540 q 308 494 308 519 q 288 445 308 474 l 288 447 q 292 467 292 456 l 292 469 q 266 510 292 486 q 262 520 262 518 q 277 540 262 532 m 638 469 q 659 444 659 452 l 659 441 q 623 420 659 420 q 559 385 574 408 q 508 274 528 356 q 483 132 493 218 q 477 39 479 93 q 454 10 472 21 q 416 0 433 0 l 215 0 q 155 38 174 0 q 154 47 155 43 q 260 399 154 216 l 260 397 q 170 77 170 230 l 170 73 q 214 47 179 47 l 410 47 q 454 69 440 47 q 467 213 459 157 q 512 384 490 344 q 551 436 522 404 q 638 469 593 469 m 264 406 l 264 406 l 264 404 l 264 404 l 264 406 z "},"8":{"ha":751,"x_min":0,"x_max":741,"o":"m 366 994 l 385 994 q 619 918 542 994 q 648 821 648 887 q 688 741 648 777 q 646 600 646 701 q 612 566 646 589 q 602 539 602 552 l 602 535 q 627 498 602 515 q 647 440 647 480 l 647 421 q 688 315 647 349 l 688 314 q 646 184 646 281 q 611 119 644 155 q 383 52 537 52 l 378 52 q 154 110 239 52 q 102 216 102 144 q 64 320 102 294 l 64 322 q 98 380 94 354 q 104 459 101 393 q 142 514 106 479 q 148 536 148 526 q 121 580 148 561 q 101 654 101 593 q 50 754 101 708 q 96 804 86 777 q 105 867 102 817 q 157 939 117 910 q 366 994 241 994 m 631 927 q 686 788 686 886 q 696 758 688 770 l 696 756 l 694 756 q 661 848 661 777 q 631 926 661 888 l 631 927 m 93 893 l 95 893 l 95 892 q 83 826 83 870 q 69 793 81 810 l 67 793 q 75 857 71 836 q 93 893 83 876 m 254 709 l 254 616 q 319 554 254 554 q 359 553 334 553 l 396 553 q 487 576 480 553 q 496 635 495 576 l 496 692 q 475 762 496 757 q 435 771 463 771 l 331 771 q 262 748 275 771 q 254 709 254 728 m 338 753 l 422 753 q 469 744 462 753 q 477 686 477 735 l 477 644 q 465 580 477 580 q 463 578 465 578 l 463 682 q 454 703 463 703 q 418 705 441 705 l 357 705 q 292 695 292 705 q 290 661 290 678 l 290 607 q 292 575 290 597 q 270 599 270 583 q 268 631 268 614 l 268 688 q 284 746 268 746 q 338 753 292 753 m 24 750 q 83 633 83 712 q 120 555 83 581 q 130 535 130 547 q 114 512 130 523 l 113 512 q 69 602 69 542 q 7 711 69 680 q 0 726 0 718 l 0 731 q 24 750 0 744 m 712 739 l 713 739 q 739 718 739 731 l 739 713 q 716 688 739 701 q 684 572 684 659 q 668 534 680 548 q 639 509 663 528 l 637 509 q 616 536 616 524 q 643 568 616 551 q 662 635 662 576 q 694 726 662 682 q 712 739 704 734 m 254 454 l 254 352 q 334 288 254 288 l 431 288 q 491 322 477 288 q 496 366 496 337 l 496 441 q 473 510 496 496 q 437 520 458 520 l 323 520 q 257 478 271 520 q 254 454 254 467 m 319 503 l 437 503 q 473 477 463 503 q 477 435 477 467 l 477 370 q 463 315 477 321 l 463 315 l 463 427 q 438 454 463 454 l 328 454 q 292 427 292 454 q 290 412 290 427 l 290 335 q 292 312 290 321 q 269 344 269 321 q 268 361 268 349 l 268 440 q 288 494 268 486 q 319 503 301 503 m 647 499 l 648 499 q 684 397 684 474 q 699 329 684 345 l 699 328 l 698 328 q 661 433 661 350 l 661 450 q 647 499 661 473 m 91 478 l 91 477 q 83 395 83 459 q 65 350 83 381 l 63 350 q 71 431 71 372 q 91 478 78 464 m 38 314 q 73 281 61 305 q 85 186 85 257 q 122 111 87 153 q 369 33 215 33 l 389 33 q 629 113 547 33 q 660 187 660 154 q 670 259 663 249 q 704 304 679 288 q 717 311 713 311 q 741 286 741 299 l 741 281 q 722 262 741 271 q 694 233 713 262 q 684 156 684 212 q 653 80 678 115 q 394 -14 570 -14 l 372 -14 q 125 58 223 -14 q 69 182 69 104 q 39 267 69 252 q 16 290 16 271 q 38 314 16 305 z "},"9":{"ha":751,"x_min":0,"x_max":745,"o":"m 347 988 l 372 988 q 623 906 546 988 q 646 835 646 875 l 646 742 q 694 543 646 591 q 646 310 646 494 l 646 212 q 575 90 646 123 q 376 52 508 52 l 368 52 q 110 138 183 52 q 88 205 88 166 l 88 372 q 123 388 88 386 l 207 388 q 243 373 243 385 q 270 295 243 311 q 321 288 295 288 l 405 288 q 484 318 473 288 q 489 351 489 334 l 489 437 q 432 484 489 475 q 417 484 429 484 l 340 484 q 117 543 170 484 q 87 632 87 568 q 64 703 82 666 q 45 730 56 715 l 45 732 q 90 858 90 779 q 125 923 92 887 q 347 988 201 988 m 628 923 l 629 923 q 684 805 684 876 q 683 764 683 782 l 683 755 q 713 550 683 587 q 714 547 714 548 q 675 606 687 567 q 660 774 660 656 l 660 839 q 628 923 660 886 m 81 895 l 81 892 q 66 810 72 880 q 43 761 55 772 l 43 762 q 56 836 56 793 q 81 895 65 876 m 242 675 l 242 604 q 270 533 242 547 q 319 524 285 524 l 389 524 q 483 560 471 524 q 489 597 489 578 l 489 705 q 468 755 489 747 q 412 768 451 768 l 311 768 q 250 732 266 768 q 242 675 242 718 m 315 749 l 409 749 q 465 734 454 749 q 470 699 470 726 l 470 597 q 454 553 470 564 l 454 553 q 456 575 456 566 l 456 662 q 450 697 456 697 q 399 702 440 702 l 325 702 q 286 692 293 702 q 280 663 280 681 l 280 559 q 282 545 280 555 q 281 545 281 545 q 260 566 269 550 q 258 589 258 580 l 258 692 q 289 747 258 736 q 315 749 298 749 m 19 726 l 20 726 q 61 659 50 702 q 72 587 68 639 q 115 518 81 546 q 222 475 155 488 q 342 467 267 467 l 412 467 q 470 438 463 467 l 470 352 q 454 313 468 313 l 454 314 q 456 329 456 323 l 456 407 q 410 419 450 419 l 324 419 q 64 532 113 420 q 53 604 53 561 q 33 657 52 621 q 5 686 33 667 q 0 699 0 692 l 0 702 q 19 726 0 713 m 722 539 q 744 520 744 524 l 745 514 l 745 509 q 722 488 745 498 q 692 412 700 460 q 683 235 683 357 l 683 228 q 684 178 683 205 q 491 -5 684 29 q 388 -13 439 -13 l 361 -13 q 98 70 186 -13 q 54 187 54 112 l 54 337 q 68 375 54 366 l 70 375 l 70 199 q 242 46 70 90 q 356 35 303 35 l 380 35 q 623 104 551 35 q 660 199 660 144 l 660 287 q 716 537 660 512 l 722 539 m 256 382 l 258 382 q 282 331 282 370 q 284 308 282 328 l 283 308 q 258 373 258 308 q 256 382 257 373 z "}," ":{"ha":345,"x_min":0,"x_max":0,"o":""},"!":{"ha":304,"x_min":0,"x_max":284,"o":"m 214 961 q 246 935 233 961 q 249 918 249 928 l 249 730 q 248 671 249 709 q 267 576 248 616 q 284 555 284 561 l 284 549 q 264 526 284 543 q 222 383 238 498 q 211 268 214 277 q 177 243 196 243 l 115 243 q 77 295 77 250 l 75 312 l 78 312 l 78 308 q 102 286 84 286 l 155 286 q 179 300 171 286 q 189 404 182 300 q 233 559 206 531 q 252 579 233 564 q 224 627 233 595 q 216 690 218 655 q 217 789 217 751 l 217 943 q 214 961 217 951 m 60 958 l 199 958 q 201 956 201 958 l 201 776 q 200 694 201 746 q 224 587 200 635 q 228 581 225 587 l 228 579 q 181 454 191 532 q 165 303 174 425 l 163 302 l 96 302 q 87 385 93 302 q 62 520 75 488 q 28 579 49 555 l 28 580 q 58 738 58 625 l 58 956 q 60 958 59 958 m 15 567 q 56 486 43 541 q 73 353 73 389 l 71 353 l 71 355 q 45 490 71 400 q 6 537 29 529 q 0 550 0 544 q 15 567 3 567 m 73 351 l 75 351 l 75 342 l 73 342 l 73 351 m 73 338 l 75 338 l 75 330 l 73 330 l 73 338 m 75 326 l 77 326 l 77 317 l 75 317 l 75 326 m 208 198 l 209 198 q 249 129 249 187 l 249 71 q 218 5 249 26 q 191 0 205 0 l 117 0 q 53 26 68 0 q 43 73 43 41 l 43 77 l 45 77 q 73 45 45 56 q 103 43 89 43 l 170 43 q 208 58 198 43 q 217 105 217 80 l 217 150 q 208 198 217 174 m 98 196 l 176 196 q 200 170 197 196 q 201 155 201 159 l 201 103 q 183 60 201 65 q 174 58 179 58 l 103 58 q 60 78 60 58 q 58 90 59 78 l 58 162 q 75 193 58 193 q 98 196 75 195 z "},"\"":{"ha":496,"x_min":0,"x_max":0,"o":""},"#":{"ha":1012,"x_min":0,"x_max":0,"o":""},"$":{"ha":1522,"x_min":91,"x_max":1424,"o":"m 1034 949 l 1081 949 q 1092 943 1088 949 l 1092 898 q 1082 888 1092 888 l 1029 888 q 1020 901 1020 888 l 1020 939 q 1034 949 1020 949 m 483 947 q 534 944 530 944 q 581 947 543 944 l 581 945 q 561 892 561 933 l 561 872 q 578 816 561 826 q 558 759 558 795 q 572 666 561 666 q 583 659 583 661 l 581 656 q 541 661 568 661 q 483 656 519 661 l 481 659 q 503 688 503 670 q 507 758 507 723 q 484 816 507 801 l 484 817 q 504 858 504 826 q 505 866 505 858 q 486 943 505 935 q 483 945 483 943 l 483 947 m 589 945 q 648 940 624 940 q 686 944 661 940 q 688 943 686 943 q 685 928 686 940 q 734 778 685 908 l 745 745 l 746 745 l 746 774 q 732 813 746 806 q 745 854 743 813 q 735 936 745 936 l 726 944 l 726 945 q 757 943 751 944 q 792 945 782 945 q 844 941 823 941 q 886 945 859 941 l 888 943 q 869 894 869 935 l 869 808 q 923 905 880 821 l 924 913 l 924 921 q 905 940 924 933 l 905 943 q 908 945 906 945 q 950 941 930 941 q 990 945 964 941 l 991 943 q 937 858 973 930 q 927 836 927 844 q 953 819 927 825 l 953 817 q 943 798 949 817 q 1006 663 950 752 q 1008 662 1008 663 l 1008 659 l 1006 656 q 960 662 989 661 q 907 656 928 661 l 905 659 q 927 685 927 671 l 927 690 q 890 777 927 699 l 889 777 q 865 694 865 727 q 884 663 865 669 q 888 659 886 663 l 886 656 q 848 661 869 661 l 832 661 q 792 656 812 661 q 734 663 759 663 q 703 661 727 663 l 704 674 l 704 677 q 641 858 704 703 l 641 859 l 640 859 l 638 838 q 648 812 638 823 q 634 755 637 812 q 635 740 635 745 l 635 718 q 654 659 635 659 l 654 658 q 653 656 653 658 q 622 659 639 659 q 591 656 606 659 l 591 658 q 606 670 606 666 q 612 709 612 683 l 612 766 q 597 813 612 800 q 610 855 610 825 l 610 909 q 588 941 610 933 q 587 943 587 941 q 589 945 587 945 m 768 848 q 781 812 768 827 q 769 736 769 793 l 769 707 q 788 665 769 665 q 793 662 788 662 q 811 709 807 662 l 811 794 q 796 817 811 802 q 811 842 811 829 l 811 897 q 787 943 811 943 q 768 905 768 937 l 768 848 m 1029 941 q 1032 930 1032 937 q 1029 921 1032 921 q 1032 913 1032 916 l 1032 905 q 1029 897 1032 901 l 1055 897 q 1054 911 1054 901 l 1053 911 q 1046 898 1053 901 q 1040 903 1044 898 l 1040 914 q 1043 917 1040 917 q 1044 911 1044 914 l 1046 911 q 1048 921 1046 917 q 1046 928 1046 921 l 1044 928 q 1042 922 1044 922 l 1040 925 l 1040 930 q 1046 940 1040 938 q 1051 928 1051 939 l 1053 928 q 1055 941 1053 937 l 1053 941 q 1034 940 1045 941 q 1029 941 1031 941 m 1058 941 l 1059 939 l 1059 926 q 1058 921 1059 923 q 1061 907 1059 918 q 1058 897 1061 905 l 1069 897 l 1067 899 l 1067 906 q 1070 921 1067 916 q 1067 932 1067 926 l 1067 939 l 1069 941 l 1058 941 m 1073 941 q 1077 932 1077 937 l 1077 929 q 1074 921 1077 925 q 1077 918 1077 920 l 1077 909 q 1072 898 1077 898 l 1072 897 l 1076 897 q 1088 922 1084 897 q 1082 937 1086 922 q 1073 941 1078 941 m 599 928 q 604 909 604 920 q 603 907 603 909 q 595 910 599 910 q 583 843 583 902 q 584 821 584 823 l 583 821 q 566 873 568 821 l 566 875 q 574 925 566 925 q 599 928 577 925 m 1100 928 l 1103 928 q 1108 922 1105 928 l 1108 868 q 1099 862 1106 862 l 1040 862 q 1031 872 1031 862 l 1031 879 q 1034 882 1031 882 l 1089 882 q 1097 890 1097 882 l 1097 925 q 1100 928 1098 928 m 908 926 q 911 913 909 924 q 890 872 890 906 l 890 858 q 877 829 890 856 l 874 829 l 874 892 q 881 922 874 922 l 908 926 m 1012 926 l 1013 924 l 1013 913 q 964 839 992 897 q 954 825 956 825 q 932 835 941 825 l 932 836 q 979 921 935 847 q 1012 926 983 922 m 708 925 q 709 924 708 924 q 708 897 708 905 q 731 820 708 883 l 728 819 l 727 819 q 693 913 722 819 q 692 921 692 915 q 708 925 699 925 m 802 925 q 804 910 804 920 q 789 865 789 910 l 789 816 l 788 816 q 773 852 773 823 l 773 899 q 777 924 773 924 l 781 924 q 802 925 788 924 m 915 925 l 918 925 l 919 918 l 919 909 l 918 909 q 915 911 915 909 l 915 925 m 491 924 l 494 924 l 496 913 l 495 913 q 491 917 494 913 l 491 924 m 734 920 l 736 920 l 736 914 q 734 917 734 914 l 734 920 m 585 813 q 600 793 588 803 q 602 787 602 791 q 581 740 581 771 l 581 732 q 580 728 581 728 l 581 720 q 584 669 581 699 l 581 667 l 580 667 q 564 752 566 667 q 584 813 564 797 l 585 813 m 788 813 l 791 813 q 806 790 795 790 q 791 718 791 762 l 791 693 q 792 670 791 686 q 791 669 791 670 q 774 713 774 669 l 774 732 q 788 812 774 795 l 788 813 m 654 806 q 666 778 666 780 q 657 740 657 772 l 657 700 q 659 666 657 688 l 656 665 q 641 726 641 665 l 641 770 q 654 806 641 806 m 732 806 q 739 785 739 799 l 736 785 q 730 805 736 787 l 732 806 m 953 805 q 976 795 976 798 l 976 790 q 966 774 966 781 l 966 768 q 994 694 966 756 q 950 798 955 760 l 950 802 q 953 805 951 805 m 494 794 q 498 783 498 788 l 494 783 q 491 786 491 783 l 491 791 q 494 794 492 794 m 888 762 l 892 762 q 904 733 894 753 q 885 669 890 705 l 884 669 q 870 694 870 675 q 888 762 870 719 m 736 658 q 802 644 802 654 l 808 643 l 819 655 l 846 655 q 899 643 891 655 q 909 639 909 642 l 909 629 q 904 624 909 627 q 862 628 878 628 l 851 628 q 807 624 833 628 l 804 624 q 749 631 779 631 q 712 625 734 631 l 709 629 q 713 646 713 642 l 713 654 q 736 658 713 658 m 960 656 q 1015 650 986 655 l 1015 656 l 1017 656 q 1031 636 1017 653 l 1031 625 l 1029 623 q 975 629 1014 627 q 916 623 942 628 l 915 625 l 915 632 q 928 644 915 641 l 938 655 q 960 656 952 655 m 539 655 q 591 644 591 655 q 603 639 596 643 q 621 654 613 639 q 657 651 631 654 q 661 652 660 652 q 678 636 661 642 q 673 624 676 624 q 638 627 649 627 q 600 623 620 627 q 557 628 587 628 q 492 624 543 628 l 491 627 l 491 632 q 505 644 491 641 q 523 655 509 655 l 539 655 m 568 612 q 688 557 656 612 q 704 498 695 541 q 728 478 720 478 l 728 477 q 703 435 712 468 q 678 370 695 393 q 568 316 639 316 q 452 389 480 316 q 439 446 447 397 q 415 477 435 462 l 415 478 q 438 515 433 478 q 500 595 438 555 q 568 612 537 612 m 1356 612 l 1358 609 q 1320 511 1320 575 l 1321 501 l 1318 500 l 1317 500 q 1307 547 1314 500 q 1269 595 1292 595 q 1253 551 1253 595 l 1253 528 q 1277 475 1253 475 l 1277 474 q 1254 447 1254 458 l 1254 374 q 1301 328 1254 338 q 1320 323 1320 326 l 1320 320 q 1242 321 1268 321 l 1197 321 q 1086 316 1148 321 l 1085 319 l 1130 330 q 1160 373 1160 343 l 1160 446 q 1128 473 1160 463 l 1128 475 q 1162 528 1162 475 q 1164 563 1164 528 l 1164 570 q 1149 597 1164 593 q 1099 500 1125 597 l 1090 500 l 1088 501 q 1092 531 1092 511 l 1092 536 q 1058 608 1092 583 l 1058 610 q 1158 606 1122 606 q 1356 612 1213 606 m 407 609 l 434 609 q 437 606 437 608 q 400 513 400 574 q 397 511 400 511 l 393 511 q 388 539 391 511 q 330 593 366 593 l 328 593 q 273 530 280 593 q 288 485 278 485 q 315 505 308 485 q 321 526 318 526 l 325 526 q 332 500 327 526 q 361 473 340 487 q 329 422 329 451 l 329 416 l 330 413 l 328 412 l 321 412 q 314 437 319 412 q 286 454 307 454 q 271 405 271 437 l 271 394 q 300 334 271 355 q 342 326 313 326 l 342 324 q 338 320 342 323 q 256 321 283 321 l 219 321 q 146 319 177 321 l 145 321 q 159 326 145 324 q 180 368 180 341 l 180 440 q 149 473 176 473 l 149 475 q 180 511 174 475 l 180 557 q 151 606 180 587 l 151 608 q 234 601 203 601 q 407 609 386 609 m 731 608 q 825 602 796 602 q 889 606 842 602 q 886 591 886 593 q 924 509 886 570 l 981 408 l 983 408 q 984 437 983 414 q 964 474 980 474 l 964 477 q 981 513 981 481 q 969 595 981 595 q 951 605 969 600 l 951 608 q 993 606 979 606 l 1010 606 q 1054 608 1025 606 l 1054 605 q 1019 570 1019 601 l 1019 512 q 1039 477 1019 488 l 1040 477 l 1040 474 q 1021 405 1021 456 l 1021 362 q 1046 327 1021 335 q 1059 321 1059 326 l 1058 319 q 966 326 1010 326 l 961 326 q 913 324 935 324 q 918 336 916 329 q 829 498 918 366 q 812 524 817 522 l 812 496 q 827 474 812 485 l 827 473 q 806 422 810 473 q 822 328 806 328 q 839 321 828 321 l 839 320 q 838 319 838 320 q 789 321 814 321 l 783 321 q 735 319 758 321 l 735 320 q 754 327 735 322 q 770 366 770 340 l 770 431 q 747 474 770 463 l 747 475 q 768 531 768 489 q 754 594 768 594 q 728 605 747 599 l 728 606 l 731 608 m 522 513 q 536 478 522 484 l 536 475 q 523 427 523 462 l 523 425 q 561 332 523 356 q 573 328 569 328 q 619 380 600 328 q 627 427 627 403 l 627 431 q 611 477 627 463 q 623 511 623 493 l 623 522 q 585 597 623 574 q 572 601 577 601 q 522 513 522 582 m 583 591 q 607 567 592 591 l 610 557 q 589 568 602 564 q 543 482 543 552 q 542 481 542 482 q 527 516 529 481 q 559 589 527 564 q 583 591 569 591 m 1067 591 q 1080 570 1080 577 q 1076 574 1078 570 q 1040 534 1040 574 l 1040 484 l 1039 484 q 1024 516 1024 491 l 1024 551 q 1032 586 1024 586 q 1065 587 1034 586 q 1067 591 1065 591 m 1369 591 l 1378 591 q 1381 589 1381 591 l 1381 582 q 1341 490 1341 543 l 1343 482 l 1343 471 q 1339 467 1343 469 l 1328 467 q 1322 493 1322 467 q 1326 498 1326 493 q 1325 517 1326 506 q 1355 590 1333 590 q 1369 591 1355 591 m 157 590 q 173 570 166 590 l 170 568 l 156 579 l 156 587 l 157 590 m 429 589 l 450 589 l 467 587 l 467 586 q 422 488 422 549 q 404 479 410 479 q 400 484 402 479 l 400 490 l 399 504 q 406 508 406 506 l 406 511 q 429 589 406 562 m 743 589 q 761 571 761 589 l 761 568 q 760 567 760 568 q 738 579 738 569 l 738 585 q 743 589 738 586 m 911 587 l 912 585 l 912 581 q 908 566 912 578 l 912 544 q 893 585 895 568 q 911 587 895 586 m 964 587 l 968 587 q 975 571 971 587 q 973 570 973 571 q 960 578 962 573 l 960 583 q 964 587 960 585 m 1266 587 l 1276 587 q 1295 559 1295 574 q 1285 563 1285 562 q 1274 520 1274 557 l 1274 497 l 1276 484 l 1273 482 q 1258 534 1258 486 l 1258 548 q 1266 587 1261 587 m 1141 586 l 1154 586 q 1159 563 1159 586 l 1159 562 q 1123 484 1139 539 q 1120 471 1122 474 q 1122 470 1122 471 l 1118 467 l 1101 467 q 1097 474 1099 467 q 1105 496 1101 496 l 1105 497 q 1141 586 1114 549 m 343 585 q 377 549 358 585 l 377 547 q 349 560 361 560 l 346 560 q 296 509 303 560 l 296 494 q 294 492 296 492 l 290 492 q 279 528 283 492 q 310 583 279 568 q 343 585 330 585 m 700 547 q 722 489 715 534 l 720 489 q 700 547 708 489 m 340 505 l 343 505 q 351 501 351 505 l 351 498 l 350 492 q 351 490 351 492 l 349 489 q 338 504 342 496 l 340 505 m 818 503 l 819 503 q 835 477 835 484 q 818 496 818 486 l 818 503 m 545 473 q 564 451 545 463 q 545 399 545 439 q 553 347 545 374 l 551 347 q 528 427 528 375 q 545 473 528 468 m 730 469 q 758 452 743 456 q 760 454 758 454 q 764 441 764 448 l 760 441 l 754 446 q 716 372 730 446 q 634 290 689 312 q 607 285 610 285 l 607 286 q 592 283 602 283 l 587 283 q 468 349 495 283 q 551 312 505 312 q 588 308 588 311 q 663 345 639 322 q 705 418 699 383 q 726 469 709 450 l 730 469 m 832 469 l 835 469 q 850 451 835 461 l 850 444 q 832 424 832 435 q 828 390 829 411 q 831 331 829 376 q 829 330 829 331 q 811 420 811 330 q 832 469 811 469 m 1044 469 q 1063 451 1046 463 l 1063 446 q 1043 374 1043 429 l 1043 338 l 1042 335 q 1027 366 1029 335 l 1027 405 q 1044 469 1027 455 m 361 466 l 362 466 l 384 450 l 384 446 q 351 397 351 420 q 353 382 353 387 l 349 379 l 332 379 q 326 405 328 379 q 336 409 336 406 l 334 425 q 361 466 334 445 m 1280 466 q 1300 451 1280 460 l 1304 446 q 1276 421 1276 430 l 1276 346 l 1274 346 q 1259 376 1259 356 l 1259 446 q 1280 466 1263 463 m 429 456 q 434 441 432 451 l 433 441 q 416 448 432 441 l 416 450 q 429 456 416 452 m 170 455 q 174 441 174 448 l 173 439 q 156 443 156 440 l 156 451 q 170 455 156 455 m 973 455 q 977 447 977 454 l 977 444 q 975 441 977 441 l 969 441 q 973 455 970 455 m 1150 455 q 1155 446 1155 450 l 1155 439 l 1154 436 q 1137 444 1138 441 l 1137 451 q 1150 455 1137 455 m 618 454 q 621 447 621 449 l 619 447 l 614 448 l 614 452 q 618 454 615 452 m 288 447 l 294 447 q 313 421 307 447 l 310 420 l 307 420 l 304 421 q 292 373 292 407 q 295 346 292 366 q 276 395 276 366 l 276 404 q 288 447 276 434 m 969 320 q 1061 308 1044 320 q 1082 294 1082 304 l 1082 289 q 1080 286 1082 286 q 984 293 1019 293 l 980 293 q 919 289 964 293 l 919 290 q 927 315 927 305 q 926 316 926 315 q 928 319 928 316 q 969 320 956 320 m 188 316 l 276 316 q 330 308 319 316 q 361 305 342 305 l 363 305 q 366 302 366 304 l 366 297 q 355 288 366 294 q 267 289 296 289 l 235 289 q 159 286 199 289 q 155 296 155 291 q 173 305 155 303 q 188 316 180 316 m 777 316 l 788 316 q 840 307 840 316 q 861 300 848 302 l 861 292 q 855 286 861 290 q 804 289 826 289 l 802 289 q 745 286 783 289 l 743 289 l 743 293 q 762 304 743 304 q 777 316 772 311 m 1175 316 l 1262 316 q 1326 307 1294 316 q 1344 294 1339 307 q 1345 290 1345 292 l 1339 288 q 1249 289 1280 289 l 1213 289 q 1122 285 1164 289 q 1115 286 1120 286 q 1112 283 1115 283 l 1104 283 l 1095 282 l 1093 285 q 1111 301 1093 301 q 1156 315 1134 305 q 1175 316 1164 316 m 180 281 l 193 281 q 229 263 208 281 l 230 263 q 237 275 233 275 l 258 275 l 258 274 q 235 210 235 247 l 235 186 q 233 184 235 184 l 231 184 q 229 186 229 184 l 229 196 q 201 266 229 266 q 176 201 179 266 l 176 196 q 196 163 176 163 l 196 161 q 174 130 181 161 q 171 77 174 126 q 191 31 174 31 q 226 98 226 40 q 227 120 227 98 l 227 136 q 239 140 227 139 l 241 138 q 237 108 237 121 l 237 98 q 253 66 239 66 l 253 63 q 163 15 205 15 l 161 15 q 110 77 121 15 q 94 144 107 144 l 91 144 l 91 146 q 109 180 109 159 q 180 281 125 281 m 520 281 q 577 266 551 281 l 578 266 q 592 277 585 277 q 603 270 600 277 l 603 266 l 599 266 q 584 247 584 266 q 576 222 584 229 l 572 222 l 573 232 l 573 241 q 535 269 566 269 q 508 245 511 269 q 550 210 508 229 q 564 208 557 208 l 569 208 q 581 211 572 208 q 583 210 581 210 l 581 203 q 604 181 581 193 q 623 144 623 165 q 545 87 623 96 l 536 87 q 492 104 521 87 l 491 104 q 468 82 479 104 l 465 81 l 464 81 q 460 85 462 81 q 473 139 473 125 q 471 165 471 162 l 473 166 l 476 166 q 486 140 478 166 q 547 100 513 100 l 549 100 q 574 120 574 100 l 574 125 q 536 161 574 151 l 531 161 q 513 158 526 161 q 512 159 513 159 l 513 162 l 513 165 q 481 185 513 174 q 450 224 450 205 l 450 231 q 520 281 450 274 m 1300 281 q 1356 258 1334 281 l 1358 258 q 1369 274 1366 274 l 1371 274 q 1383 260 1381 274 q 1370 256 1383 258 q 1362 205 1364 256 q 1355 193 1358 193 l 1354 193 l 1351 195 q 1354 217 1354 203 q 1321 263 1354 254 q 1315 264 1318 264 q 1286 236 1286 257 q 1329 180 1286 216 q 1351 174 1343 174 q 1362 176 1360 176 l 1362 161 q 1388 121 1362 150 q 1404 63 1404 90 q 1375 5 1404 20 q 1358 1 1365 1 q 1276 52 1312 1 l 1266 55 l 1262 55 q 1247 37 1258 54 l 1243 37 q 1240 39 1240 37 l 1240 42 q 1253 92 1240 47 l 1253 109 q 1250 138 1253 121 l 1253 139 l 1254 139 q 1263 108 1259 139 q 1339 22 1303 22 l 1347 22 q 1355 45 1355 29 q 1311 117 1355 95 q 1301 119 1307 117 l 1293 117 l 1292 120 l 1292 125 q 1293 127 1292 127 q 1266 157 1293 138 q 1230 218 1230 190 q 1300 281 1230 273 m 608 279 q 667 277 652 277 q 793 279 773 279 l 793 278 q 772 220 772 254 l 772 214 q 769 211 772 211 q 739 270 761 270 q 730 237 730 266 l 730 236 q 745 196 730 196 l 745 193 q 731 176 734 193 l 731 134 q 769 104 731 111 q 770 102 770 104 l 770 101 q 724 102 730 102 q 626 96 680 102 l 626 98 q 673 132 673 106 l 673 176 q 653 193 673 188 l 653 195 q 675 251 675 195 q 669 270 673 270 l 666 270 q 633 210 650 270 l 630 210 l 627 211 l 629 228 l 629 237 q 608 277 621 277 l 608 279 m 866 279 l 882 279 q 951 233 933 279 q 970 192 951 204 q 949 142 958 184 q 884 96 926 96 l 874 96 q 796 147 816 96 q 776 195 790 195 l 776 196 q 791 231 791 205 q 866 279 818 279 m 968 279 l 969 279 q 1028 275 1013 275 q 1058 278 1042 275 q 1059 277 1058 277 q 1057 266 1057 270 q 1097 177 1057 250 q 1123 273 1123 245 l 1122 279 q 1163 278 1149 278 l 1190 278 q 1224 279 1202 278 l 1224 278 l 1209 270 q 1205 252 1205 263 l 1205 211 q 1220 172 1205 183 l 1220 169 q 1205 142 1205 169 l 1205 86 q 1224 47 1205 58 l 1224 46 q 1114 68 1160 68 l 1112 71 q 1143 102 1143 77 l 1143 157 q 1130 178 1140 178 l 1130 180 q 1143 210 1143 192 l 1143 227 l 1142 227 q 1107 136 1113 180 l 1097 90 q 1082 117 1086 90 q 1016 232 1063 177 l 1016 207 q 1028 188 1016 195 q 1016 153 1018 188 q 1034 86 1016 86 l 1035 86 l 1035 83 q 979 90 1004 90 l 972 90 l 972 93 q 994 121 994 93 q 993 139 994 127 q 994 161 994 153 q 979 192 994 182 q 991 222 991 203 l 991 256 q 968 277 991 277 l 968 279 m 359 278 l 359 275 q 340 250 343 275 q 342 224 342 235 l 342 208 q 340 196 342 203 q 355 182 344 182 l 355 180 q 342 162 342 173 l 342 109 q 365 73 342 73 q 396 117 389 73 q 397 143 397 130 l 397 159 q 388 184 397 179 q 397 218 397 191 l 397 237 q 384 275 397 275 l 380 275 l 380 278 q 416 275 396 275 q 453 278 434 275 l 453 275 q 434 256 434 275 l 434 205 q 446 189 434 195 q 448 188 448 189 q 434 168 434 180 l 434 135 q 399 74 434 88 q 328 58 361 58 l 322 58 q 283 115 283 58 l 283 151 q 267 170 280 170 l 267 172 q 283 195 283 182 l 283 235 q 262 274 283 274 l 262 277 q 303 275 290 275 l 321 275 q 359 278 343 275 m 843 224 l 843 214 q 851 196 843 204 l 851 195 q 843 165 843 184 q 874 104 843 113 l 877 104 q 908 159 901 104 l 908 166 q 899 195 908 184 q 907 221 905 205 q 877 273 907 260 l 874 273 q 843 224 850 273 m 203 260 q 219 235 219 250 q 199 182 201 235 l 199 172 l 197 169 q 181 195 181 169 l 181 196 q 201 260 184 260 l 203 260 m 528 260 l 545 260 q 568 240 568 256 l 568 236 l 566 233 q 550 236 557 236 q 532 228 542 236 l 530 228 q 513 244 513 239 l 513 250 q 528 260 519 260 m 788 259 l 802 259 l 802 258 q 783 210 783 235 l 780 208 l 779 208 l 777 216 l 777 218 q 788 259 777 246 m 888 259 q 899 239 893 254 q 897 237 897 239 q 889 240 892 240 q 865 197 865 227 q 848 216 850 197 l 848 224 q 876 259 848 259 l 888 259 m 980 259 l 985 259 l 985 247 q 983 244 985 244 l 981 244 q 976 250 979 244 l 976 255 q 980 259 976 257 m 1236 258 q 1224 220 1224 239 l 1224 218 q 1227 192 1224 215 l 1227 176 l 1225 176 q 1211 214 1213 176 l 1211 255 q 1236 258 1211 258 m 1315 259 q 1347 229 1335 259 q 1345 228 1347 228 q 1331 232 1333 232 q 1310 212 1317 232 l 1310 208 l 1308 208 q 1293 233 1293 224 l 1293 239 q 1315 259 1293 252 m 381 258 l 382 255 l 382 247 q 366 239 382 245 q 363 227 363 230 l 363 189 q 361 186 363 186 q 347 193 351 186 l 347 252 q 381 258 347 256 m 615 258 l 616 258 q 623 236 622 256 q 608 232 623 233 q 599 192 606 207 l 597 192 q 587 201 587 197 q 589 212 587 212 q 588 220 588 215 l 587 220 l 584 218 q 583 220 584 220 l 592 248 l 602 256 l 608 256 l 615 255 l 615 258 m 665 258 q 669 254 666 258 l 669 244 q 648 200 669 200 l 645 200 l 645 192 l 656 184 l 656 180 q 653 177 656 177 l 641 177 q 637 182 637 177 q 657 258 637 220 l 665 258 m 739 258 l 749 258 q 758 239 752 258 q 751 205 753 239 l 751 203 l 750 200 q 735 233 735 200 l 735 240 q 739 258 735 258 m 1073 258 l 1081 258 l 1081 255 q 1078 241 1081 241 q 1090 204 1080 232 q 1065 255 1077 223 q 1073 258 1069 258 m 448 256 l 449 256 q 452 254 452 256 q 444 229 448 254 q 456 197 444 214 l 456 193 q 439 205 441 193 l 439 252 q 448 256 441 256 m 254 255 l 273 255 q 277 243 276 255 q 257 178 257 216 l 257 163 l 258 154 q 248 151 254 151 l 243 151 q 238 163 238 153 l 238 177 q 242 181 238 179 l 241 188 l 241 208 q 254 255 241 241 m 388 254 l 391 254 l 391 247 l 388 247 l 388 254 m 1392 254 q 1407 225 1407 247 q 1405 224 1405 225 l 1396 225 l 1392 225 q 1385 184 1385 225 q 1375 161 1378 161 l 1370 161 q 1367 163 1367 161 l 1367 169 l 1369 177 q 1367 185 1367 179 l 1364 184 l 1363 186 l 1363 189 q 1370 235 1370 217 l 1370 239 q 1381 252 1377 251 l 1390 251 l 1392 254 m 957 233 l 958 233 q 973 203 973 218 l 973 199 l 972 199 q 957 233 957 208 m 1021 214 l 1023 214 q 1048 178 1031 205 l 1048 176 l 1038 188 l 1038 181 q 1051 168 1039 168 l 1051 159 q 1039 140 1039 152 l 1038 128 q 1039 92 1039 109 l 1034 92 q 1021 158 1021 92 q 1035 184 1021 182 l 1035 195 q 1021 207 1021 195 l 1021 214 m 1137 204 l 1137 201 q 1128 188 1137 194 l 1128 191 q 1137 204 1135 204 m 865 195 l 865 189 q 880 172 865 175 l 880 170 q 865 138 865 161 l 867 113 l 866 113 q 848 166 848 131 q 861 195 848 186 l 865 195 m 603 193 l 604 191 l 604 189 l 600 189 l 600 191 q 603 193 601 193 m 461 192 l 463 192 q 508 168 483 176 l 507 154 l 507 150 q 532 155 524 155 l 536 155 q 569 124 569 146 l 569 123 q 553 128 554 128 l 547 128 q 523 123 538 128 l 522 125 l 522 127 l 523 140 q 483 169 483 156 q 461 191 461 174 l 461 192 m 751 191 q 774 170 751 178 q 784 174 781 174 l 787 170 l 787 166 l 785 166 q 779 169 779 166 q 753 153 753 158 l 753 117 l 751 115 q 736 135 736 121 l 736 176 q 751 191 736 186 m 777 186 l 779 186 q 783 180 782 186 l 781 180 q 777 184 779 180 l 777 186 m 975 186 q 988 158 988 174 q 969 108 981 158 q 903 63 941 63 l 889 63 q 808 112 832 63 l 808 113 l 810 113 q 881 89 838 89 q 892 83 881 85 q 911 96 895 83 q 954 139 928 96 q 975 186 965 186 m 456 184 l 456 180 q 464 169 456 173 q 465 155 465 157 q 456 139 456 150 l 456 106 q 412 39 456 56 q 345 24 378 24 l 338 24 q 296 55 307 24 l 296 58 l 298 58 q 321 52 311 52 l 332 52 q 370 58 346 52 q 380 52 370 55 q 404 71 389 52 q 439 134 439 85 l 439 168 q 456 184 443 184 m 362 177 q 378 161 362 161 l 380 158 l 380 153 q 366 143 380 151 l 363 134 l 363 79 l 359 79 q 347 111 347 87 l 347 161 q 362 177 347 170 m 663 174 l 665 174 q 667 172 667 174 l 667 165 q 665 162 667 162 q 660 170 660 163 l 660 172 q 663 174 661 174 m 1122 174 l 1124 174 q 1138 155 1138 172 l 1138 153 l 1122 79 q 1107 70 1107 79 l 1107 68 q 1120 62 1107 64 l 1120 59 q 1118 56 1120 56 q 1095 79 1095 59 l 1093 85 l 1103 83 q 1122 174 1109 131 m 1244 170 q 1286 132 1257 158 l 1286 123 q 1284 120 1286 120 q 1244 169 1248 153 l 1244 170 m 1230 165 q 1244 146 1232 157 l 1244 140 q 1231 134 1244 139 q 1227 109 1227 127 l 1227 58 l 1225 55 q 1211 87 1213 55 l 1211 146 q 1230 165 1211 165 m 1382 158 l 1383 158 q 1385 151 1383 153 q 1383 139 1383 144 l 1383 138 l 1381 138 q 1370 153 1381 140 q 1382 158 1370 156 m 196 155 l 199 155 q 215 143 199 143 q 219 144 218 144 l 220 142 l 220 134 q 197 106 197 121 q 193 51 193 54 q 195 39 195 45 l 192 38 l 189 38 q 177 78 179 38 q 195 154 177 154 q 196 155 195 155 m 629 154 q 645 120 645 141 l 645 111 q 622 102 645 108 q 618 89 619 98 q 635 92 633 90 q 637 90 635 90 q 557 55 612 55 l 554 55 q 511 70 534 55 q 507 71 509 70 q 488 51 499 71 l 477 46 q 469 59 472 46 q 490 97 477 97 l 492 97 q 523 83 521 83 q 564 79 527 83 q 587 90 578 79 q 629 143 629 109 l 629 154 m 275 149 l 277 149 l 277 140 l 275 140 l 275 149 m 491 146 l 494 146 q 503 131 503 142 l 501 131 q 491 143 498 131 l 491 146 m 264 121 q 265 120 264 120 q 258 77 258 98 l 258 74 q 256 71 258 71 q 242 104 242 71 l 242 116 q 264 121 242 119 m 1272 119 q 1285 83 1281 119 q 1289 74 1287 83 l 1286 74 q 1267 117 1267 109 q 1272 119 1270 119 m 1297 112 l 1307 112 q 1343 78 1322 112 q 1344 74 1344 75 l 1343 74 q 1318 86 1330 85 q 1301 83 1316 85 q 1300 87 1301 87 q 1303 101 1301 98 q 1297 111 1303 103 l 1297 112 m 1402 105 q 1424 47 1424 77 l 1424 22 q 1374 -31 1416 -31 q 1289 18 1325 -31 q 1280 22 1284 22 q 1267 4 1276 19 l 1255 4 q 1250 16 1250 6 q 1266 49 1255 49 l 1267 49 q 1300 15 1270 49 q 1359 -4 1332 -4 q 1409 58 1402 -4 l 1409 63 q 1402 105 1409 76 m 726 97 q 758 96 727 97 q 792 82 759 90 l 796 74 l 796 71 q 789 68 794 71 q 738 70 778 68 q 634 62 693 70 q 633 63 634 63 q 656 81 633 81 q 681 96 671 86 q 726 97 688 96 m 1004 83 q 1046 68 1046 78 q 1058 62 1058 63 l 1058 52 q 1055 49 1058 49 q 981 59 1030 56 q 979 63 979 62 l 979 68 q 998 75 979 71 q 1004 83 1001 83 m 258 60 l 260 60 q 276 43 262 43 l 276 35 q 180 -18 225 -18 l 177 -18 q 129 19 143 -18 l 129 20 l 130 20 q 160 9 144 9 q 199 18 182 9 q 208 12 201 12 q 231 35 218 12 q 258 60 243 43 m 1147 60 q 1232 37 1168 60 q 1247 24 1232 34 l 1247 11 l 1246 11 q 1127 35 1179 35 l 1122 41 l 1122 42 q 1143 56 1122 53 q 1147 60 1143 57 z "},"%":{"ha":1191,"x_min":0,"x_max":0,"o":""},"&":{"ha":1202,"x_min":0,"x_max":0,"o":""},"'":{"ha":275,"x_min":0,"x_max":0,"o":""},"(":{"ha":1221,"x_min":26,"x_max":1200,"o":"m 182 882 l 195 882 q 246 834 229 882 l 246 825 q 229 801 246 810 l 227 806 q 229 815 229 811 q 208 832 229 828 q 195 815 197 832 l 195 810 q 227 787 195 792 q 314 816 245 787 q 514 849 416 849 q 881 751 701 849 q 1120 506 1003 678 q 1200 368 1171 430 l 1200 366 q 1198 363 1200 363 l 1194 363 q 1074 464 1124 433 q 838 560 946 547 q 793 564 821 564 l 787 564 q 674 505 701 564 q 669 477 669 491 q 669 467 669 468 q 667 465 667 467 l 657 466 q 601 409 615 466 q 600 397 600 405 l 600 387 q 633 322 600 351 q 686 303 659 303 l 688 303 q 710 317 710 303 q 699 335 708 335 q 688 323 694 334 l 686 323 q 682 332 682 324 l 682 343 q 703 373 682 365 q 716 375 712 375 q 753 349 737 375 q 795 372 772 372 l 804 372 q 857 328 841 372 q 859 309 859 317 q 820 266 859 280 q 810 265 814 265 l 805 265 q 769 294 779 265 l 772 296 l 774 296 q 794 287 787 288 q 814 304 814 292 q 787 328 814 322 q 758 292 774 328 q 678 254 728 254 q 549 359 592 254 q 544 396 544 382 q 547 419 544 407 q 304 341 448 341 l 297 341 q 66 415 155 341 q 26 503 26 456 q 66 596 26 547 q 73 598 70 598 q 85 583 81 598 q 85 558 85 564 q 106 530 85 541 q 123 500 123 512 q 144 504 135 504 q 184 467 174 504 q 185 457 184 463 q 155 422 185 430 q 153 427 153 425 q 161 443 161 437 q 147 455 156 455 l 143 455 q 119 433 119 451 q 179 391 119 411 q 268 379 226 379 l 286 379 q 498 446 406 379 q 553 508 543 486 q 633 566 598 555 q 791 600 703 600 l 791 602 q 785 621 785 611 q 788 626 786 626 q 829 604 800 604 q 854 617 852 604 l 856 619 q 837 638 851 638 q 822 618 826 638 l 821 618 q 805 649 805 631 q 850 688 805 682 q 899 648 882 688 l 901 634 q 883 587 900 621 l 884 587 q 1128 449 998 557 l 1158 418 l 1158 419 q 1086 530 1131 471 q 962 651 1027 602 q 854 713 900 692 q 633 765 729 765 q 561 738 568 764 l 561 734 q 578 706 561 722 l 578 704 q 576 702 578 702 l 572 702 q 517 736 532 702 l 515 748 q 536 789 515 771 l 534 789 q 395 746 481 784 q 331 652 331 709 q 366 589 331 610 q 393 583 380 583 q 433 608 426 583 l 433 609 q 417 625 429 625 q 404 621 414 625 l 402 625 l 402 630 q 427 655 402 646 l 433 655 q 467 623 456 655 q 470 608 470 613 q 400 543 470 557 l 383 542 q 254 629 288 542 q 246 662 246 653 q 206 642 231 642 q 179 648 182 643 l 179 650 q 189 664 189 657 l 189 666 q 170 695 189 675 q 166 707 166 703 l 166 708 q 172 734 166 718 q 131 760 154 734 q 117 804 117 779 l 117 810 q 163 878 117 853 q 182 882 175 882 m 506 789 l 506 789 l 510 789 l 510 789 l 506 789 z "},")":{"ha":1221,"x_min":0,"x_max":1173,"o":"m 1018 882 q 1037 878 1025 882 q 1082 810 1082 853 l 1082 804 q 1069 760 1082 779 q 1027 734 1046 734 q 1034 708 1034 718 l 1034 707 q 1030 695 1034 703 q 1011 666 1011 675 l 1011 664 q 1021 650 1011 657 l 1021 648 q 994 642 1018 643 q 954 662 968 642 q 946 629 954 653 q 817 542 912 542 l 800 543 q 730 608 730 557 q 732 623 730 613 q 767 655 743 655 l 772 655 q 798 630 798 646 l 798 625 l 795 621 q 783 625 786 625 q 767 609 770 625 l 767 608 q 806 583 774 583 q 833 589 820 583 q 869 652 869 610 q 804 746 869 709 q 665 789 719 784 l 663 789 q 684 748 684 771 l 682 736 q 627 702 668 702 l 624 702 q 622 704 622 702 l 622 706 q 639 734 639 722 l 639 738 q 566 765 631 764 q 346 713 471 765 q 238 651 300 692 q 113 530 172 602 q 41 419 68 471 l 41 418 l 72 449 q 315 587 202 557 l 317 587 q 298 634 300 621 l 300 648 q 349 688 318 688 q 395 649 395 682 q 379 618 395 631 l 378 618 q 363 638 374 638 q 344 619 349 638 l 345 617 q 370 604 348 604 q 412 626 400 604 q 415 621 414 626 q 408 602 415 611 l 408 600 q 566 566 496 600 q 646 508 602 555 q 701 446 656 486 q 914 379 794 379 l 932 379 q 1021 391 974 379 q 1081 433 1081 411 q 1057 455 1081 451 l 1053 455 q 1039 443 1044 455 q 1046 427 1039 437 q 1044 422 1046 425 q 1015 457 1015 430 q 1016 467 1016 463 q 1056 504 1025 504 q 1077 500 1065 504 q 1094 530 1077 512 q 1115 558 1115 541 q 1114 583 1115 564 q 1126 598 1118 598 q 1133 596 1130 598 q 1173 503 1173 547 q 1133 415 1173 456 q 903 341 1045 341 l 896 341 q 653 419 752 341 q 656 396 656 407 q 650 359 656 382 q 522 254 608 254 q 441 292 471 254 q 412 328 425 328 q 385 304 385 322 q 406 287 385 292 q 425 296 413 288 l 427 296 l 431 294 q 395 265 421 265 l 389 265 q 380 266 386 265 q 340 309 340 280 q 343 328 340 317 q 395 372 359 372 l 404 372 q 446 349 428 372 q 484 375 463 375 q 496 373 488 375 q 518 343 518 365 l 518 332 q 514 323 518 324 l 512 323 q 501 335 506 334 q 490 317 492 335 q 511 303 490 303 l 513 303 q 566 322 541 303 q 600 387 600 351 l 600 397 q 599 409 600 405 q 543 466 585 466 l 532 465 q 530 467 532 467 q 531 477 530 468 q 526 505 531 491 q 412 564 498 564 l 406 564 q 362 560 379 564 q 126 464 254 547 q 5 363 76 433 l 2 363 q 0 366 0 363 l 0 368 q 79 506 29 430 q 319 751 197 678 q 686 849 498 849 q 886 816 783 849 q 972 787 955 787 q 1005 810 1005 792 l 1005 815 q 991 832 1003 832 q 970 815 970 828 q 973 806 970 811 l 970 801 q 954 825 954 810 l 954 834 q 1005 882 971 882 l 1018 882 m 690 789 l 690 789 l 694 789 l 694 789 l 690 789 z "},"*":{"ha":741,"x_min":0,"x_max":0,"o":""},"+":{"ha":751,"x_min":0,"x_max":0,"o":""},",":{"ha":424,"x_min":0,"x_max":0,"o":""},"-":{"ha":525,"x_min":68,"x_max":460,"o":"m 84 550 q 93 548 87 549 q 100 547 94 548 q 102 546 100 547 q 106 547 106 547 l 106 547 q 127 548 109 547 l 127 548 q 124 544 127 547 l 123 543 l 123 543 q 129 546 124 543 q 133 548 132 548 q 144 548 135 548 q 153 546 146 548 q 157 545 156 545 q 169 548 160 545 q 173 548 172 548 l 191 548 q 191 548 191 548 q 192 548 191 548 l 193 548 q 224 545 216 548 q 229 543 225 545 l 229 543 q 230 543 230 543 l 230 543 q 227 547 230 544 q 227 547 227 547 l 227 547 q 228 548 227 548 q 318 547 271 547 q 333 547 325 547 q 333 547 333 547 q 332 546 332 546 l 332 546 q 332 545 332 545 q 341 548 333 545 q 342 548 342 548 l 356 548 q 376 547 359 548 q 379 547 377 547 q 386 547 382 547 q 395 545 387 547 q 395 545 395 545 l 395 545 q 392 547 395 545 l 392 548 l 392 548 l 393 548 q 406 549 395 548 q 431 549 411 549 l 432 549 q 433 549 433 549 q 437 546 436 549 q 439 543 438 545 q 440 537 439 537 l 440 537 q 446 540 444 540 q 446 540 446 540 q 446 541 446 541 l 446 541 q 448 540 448 540 q 451 541 449 541 l 452 541 q 455 540 454 541 l 455 541 l 455 541 q 456 541 456 541 l 456 541 l 458 541 l 458 541 q 460 540 459 541 l 460 540 q 457 537 460 538 q 455 534 455 536 q 457 530 455 533 q 458 528 458 529 l 458 528 q 456 524 458 527 l 456 522 q 456 522 456 522 l 456 522 q 451 525 455 522 q 450 526 450 526 q 450 525 450 526 l 450 525 q 456 516 450 524 q 458 513 458 514 q 456 504 458 512 l 456 503 q 458 496 456 502 q 458 495 458 496 l 458 488 q 457 485 458 488 q 456 484 457 484 q 454 482 454 483 l 454 482 q 458 481 454 482 l 458 480 l 458 475 q 454 467 458 473 q 454 463 454 465 l 454 463 q 457 458 454 461 q 458 456 458 456 l 458 451 q 454 450 457 450 q 446 452 450 450 q 445 454 445 452 l 445 454 q 439 449 441 451 q 436 446 438 448 q 431 443 434 445 q 427 441 429 441 q 424 442 426 441 q 422 442 422 442 l 408 442 q 404 441 406 441 q 397 442 403 441 q 391 443 396 442 q 386 444 389 444 l 385 444 q 365 441 379 444 q 354 441 361 441 q 347 443 348 441 l 347 444 q 349 448 347 444 l 349 448 q 341 444 347 448 q 335 442 338 442 l 286 442 q 275 445 283 442 q 269 446 271 446 q 257 443 267 446 q 252 442 254 442 l 216 442 q 197 441 212 442 q 195 441 195 441 q 184 442 192 441 q 180 442 182 442 l 165 442 q 158 444 163 442 q 155 445 157 445 l 155 445 q 163 450 161 448 l 162 450 q 149 444 159 449 q 142 442 144 442 l 134 442 q 123 444 131 442 q 120 444 121 444 q 100 443 117 444 q 96 442 98 442 q 83 444 90 444 q 73 444 81 444 l 72 444 q 70 447 71 445 l 68 448 l 68 448 q 70 450 68 448 q 71 453 71 451 q 71 456 71 454 l 71 456 q 74 460 71 457 q 75 462 75 461 q 73 466 75 463 q 73 468 73 467 l 73 468 q 77 473 73 470 q 81 473 80 473 l 81 474 q 71 475 71 475 l 71 481 q 73 486 71 484 q 73 487 73 486 l 73 488 q 71 489 71 488 l 71 489 q 75 490 71 490 l 75 490 q 73 491 75 491 q 72 496 73 492 q 71 502 71 500 q 73 506 71 502 q 74 509 74 508 q 74 511 74 511 l 74 511 q 79 515 74 513 q 78 516 79 516 q 73 515 77 516 q 72 514 73 514 l 71 514 q 71 515 71 514 l 71 521 q 75 530 71 525 q 77 532 77 532 l 77 532 q 73 538 77 534 q 71 540 71 540 q 78 542 71 541 q 79 543 78 543 l 79 542 q 87 545 81 542 q 95 546 89 545 l 95 546 q 87 547 92 547 q 83 549 84 547 l 83 549 l 83 549 q 84 550 83 549 m 435 550 l 437 550 q 452 544 441 550 q 458 541 456 542 q 460 541 458 541 l 460 541 q 458 541 459 541 q 456 541 457 541 q 454 541 455 541 q 454 541 454 541 q 454 541 454 541 l 454 541 l 451 541 q 448 540 449 541 q 446 542 446 542 l 445 542 l 445 542 q 446 541 446 541 q 444 540 446 540 q 441 539 443 540 q 439 545 440 540 q 437 548 437 547 q 434 549 435 549 l 432 549 l 432 549 q 435 550 434 550 m 83 549 q 82 549 82 549 l 82 549 q 87 546 82 547 q 89 546 88 546 q 90 546 90 546 l 90 546 q 79 543 81 543 l 79 543 l 79 545 q 77 543 79 545 q 71 541 76 542 l 71 541 q 80 548 73 543 q 83 549 81 549 l 83 549 m 172 496 q 174 494 174 496 q 175 486 174 494 q 176 478 176 481 q 178 472 177 474 q 186 467 182 467 q 195 474 192 467 q 197 481 196 476 q 198 492 198 486 q 200 496 199 495 q 200 496 200 496 q 199 498 199 497 q 197 505 198 499 q 195 514 196 511 q 186 522 191 522 q 180 518 182 522 q 176 510 178 515 q 175 499 176 507 q 173 496 174 497 q 172 496 173 496 m 346 496 q 348 494 347 496 q 349 487 349 492 q 350 479 349 481 q 353 473 351 475 q 360 467 356 467 l 360 467 q 368 472 365 467 q 371 479 370 475 q 372 492 372 486 q 374 495 372 494 q 374 496 374 496 l 374 496 q 373 498 374 496 q 372 502 372 498 q 370 513 371 508 q 366 519 368 516 q 360 522 363 522 q 353 517 356 522 q 351 511 352 515 q 349 501 349 507 q 347 496 349 498 q 346 496 347 496 m 325 522 l 325 515 q 325 515 325 515 l 327 515 q 328 511 328 515 l 328 502 q 326 496 328 498 q 325 496 325 496 q 328 490 328 494 l 328 477 q 327 474 328 475 q 326 474 327 474 l 325 474 l 325 468 l 345 468 l 345 487 l 340 487 q 340 487 340 487 q 340 475 340 479 q 338 474 339 474 q 338 474 338 474 l 336 474 q 336 477 336 474 l 336 491 q 337 495 336 494 q 338 496 337 496 q 336 498 337 496 q 336 500 336 500 l 336 511 q 336 515 336 515 l 338 515 q 338 515 338 515 l 338 522 l 325 522 m 435 522 q 428 518 435 519 q 425 517 428 518 q 423 519 424 517 q 422 517 422 519 q 420 516 422 516 q 418 515 419 515 q 412 519 412 517 l 412 520 l 409 520 l 409 512 l 412 512 l 412 512 q 413 513 412 513 l 413 513 q 420 509 413 513 l 420 509 l 416 509 q 413 510 413 509 q 412 510 412 510 l 412 511 l 409 511 l 409 501 l 412 501 l 412 503 q 414 503 412 503 l 419 503 q 422 501 422 503 l 423 501 q 425 503 423 503 q 427 503 426 503 l 433 503 q 435 503 435 503 l 435 501 l 439 501 l 439 510 l 435 510 q 433 509 435 509 l 431 509 q 427 511 431 509 l 427 511 q 434 513 433 513 l 434 513 q 435 512 435 513 l 435 512 l 439 512 l 439 522 l 435 522 m 373 521 l 373 514 l 374 514 q 375 513 375 514 q 377 500 376 510 l 378 500 q 376 496 378 497 l 376 496 q 378 493 377 496 q 380 483 379 492 q 382 468 382 469 l 389 468 q 393 492 393 491 q 396 496 394 496 q 394 500 394 497 l 394 500 q 396 513 395 510 q 397 514 396 514 l 398 514 l 398 521 l 389 521 l 389 514 l 389 514 q 390 513 390 514 l 390 513 q 387 494 390 511 l 387 494 q 387 498 387 494 q 384 513 384 512 q 385 514 384 514 l 386 514 l 386 521 l 373 521 m 94 521 l 94 514 l 96 514 q 97 513 97 514 q 95 500 96 502 q 92 496 94 496 q 94 490 94 494 q 92 476 93 479 q 90 474 92 474 l 90 474 l 90 468 l 100 468 l 100 474 q 98 476 98 474 l 98 476 q 99 480 98 480 l 106 480 q 106 475 106 480 l 106 475 q 105 474 106 474 l 104 474 l 104 468 l 116 468 l 116 474 l 116 474 q 115 475 115 474 q 113 489 114 475 q 115 496 113 494 q 111 499 113 496 q 110 513 111 500 q 111 514 110 514 l 112 514 l 112 521 l 94 521 m 117 521 l 117 514 l 119 514 q 120 511 120 514 l 120 503 q 118 496 120 499 l 117 496 q 120 490 119 495 l 120 478 q 119 474 120 474 q 118 474 119 474 l 117 474 l 117 468 l 128 468 l 128 474 l 127 474 q 126 475 126 474 q 126 482 126 477 l 126 496 q 126 496 126 496 q 127 493 126 496 q 133 468 132 470 l 143 468 l 143 489 q 144 495 143 492 q 146 496 145 496 l 146 496 q 144 497 145 496 q 143 503 143 499 l 143 509 q 144 514 143 514 l 144 514 l 145 514 l 145 521 l 134 521 l 134 514 l 136 514 q 136 512 136 514 l 136 491 q 136 491 136 491 q 134 503 136 492 q 130 521 134 504 l 117 521 m 201 521 l 201 514 l 201 514 q 203 511 203 514 l 203 503 q 201 496 203 498 q 200 496 201 496 q 202 493 201 495 q 203 490 203 490 l 203 479 q 202 474 203 474 q 201 474 201 474 l 201 474 l 201 468 l 211 468 l 211 474 l 211 474 q 209 475 209 474 q 209 479 209 477 l 209 496 q 209 496 209 496 q 210 492 210 496 l 216 468 l 226 468 l 226 490 q 227 495 226 492 q 229 496 228 496 l 229 496 q 226 503 226 496 l 226 510 q 227 514 226 514 l 228 514 l 228 521 l 217 521 l 217 514 l 218 514 q 220 511 220 514 l 220 491 q 219 491 220 491 q 218 498 219 491 q 212 521 217 499 l 212 521 l 201 521 m 247 521 l 247 514 q 247 514 247 514 l 248 514 q 249 512 249 514 q 249 511 249 512 l 249 502 q 246 496 249 496 q 248 494 248 495 q 249 488 249 492 l 249 477 q 248 473 249 473 l 247 473 q 247 473 247 473 l 247 468 q 247 467 247 467 l 258 467 l 258 473 q 257 473 258 473 q 256 478 256 474 l 256 482 q 258 488 256 482 l 259 488 q 260 482 259 488 q 261 475 261 477 q 260 473 261 474 l 260 473 l 260 467 l 273 467 l 273 474 q 271 475 272 474 q 267 492 269 478 l 267 492 q 269 496 267 494 q 267 497 268 496 q 265 500 266 498 q 264 505 264 503 q 271 514 267 514 l 271 514 q 271 514 271 514 l 271 521 q 271 521 271 521 l 260 521 q 260 521 260 521 l 260 514 q 261 514 260 514 l 261 514 l 261 513 q 257 500 261 513 l 256 500 l 256 511 q 258 514 256 514 l 258 514 l 258 521 l 247 521 q 247 521 247 521 m 274 521 l 274 514 l 275 514 q 276 513 276 514 q 276 511 276 512 l 276 501 q 273 496 276 497 l 273 496 q 275 493 275 494 q 276 491 276 492 l 276 477 q 275 474 276 474 l 274 474 l 274 468 l 285 468 l 285 474 l 285 474 q 283 477 283 474 l 283 487 q 283 487 283 487 l 286 487 q 288 478 286 487 q 288 476 288 477 l 288 476 q 287 474 288 474 l 287 468 l 298 468 l 298 473 q 296 476 296 474 q 292 494 295 480 l 292 494 q 296 501 295 496 q 296 507 296 504 l 296 508 q 292 518 296 514 q 286 521 290 521 l 274 521 m 147 521 q 147 517 147 518 l 147 503 q 147 503 147 503 l 153 503 l 153 503 q 153 514 153 514 q 155 514 154 514 l 155 514 q 155 514 155 514 l 155 502 q 154 496 155 499 q 153 496 153 496 q 155 493 154 495 q 155 490 155 491 l 155 477 q 155 474 155 474 q 155 474 155 474 l 153 474 l 153 468 l 165 468 l 165 474 l 165 474 q 163 475 163 474 q 163 478 163 477 l 163 489 q 165 496 163 494 l 166 496 l 166 496 q 164 497 165 496 q 163 502 163 499 l 163 514 q 163 514 163 514 l 163 514 q 166 513 166 514 q 166 503 166 506 l 172 503 l 172 514 q 172 521 172 516 l 147 521 l 147 521 m 300 521 l 300 514 q 302 511 301 514 q 304 500 304 502 q 302 496 304 497 q 306 492 304 496 q 308 481 308 484 l 308 477 q 307 473 308 473 l 306 473 l 306 468 l 318 468 l 318 473 l 317 473 q 316 475 316 473 q 315 478 315 477 l 315 481 q 317 492 315 482 q 319 495 318 494 q 321 496 320 496 q 319 500 319 497 q 321 513 319 503 q 323 514 321 514 l 323 514 q 323 514 323 514 l 323 521 q 323 521 323 521 l 314 521 l 314 514 l 315 514 q 315 513 315 514 l 315 513 q 313 498 315 513 q 313 498 313 498 q 311 509 313 498 q 311 513 311 513 l 311 513 q 311 514 311 514 l 312 514 l 312 521 l 300 521 q 300 521 300 521 m 283 514 q 288 509 287 514 q 288 507 288 507 q 285 496 288 498 q 283 496 284 496 l 283 496 l 283 508 q 283 514 283 510 l 283 514 m 186 514 l 186 514 q 189 510 188 514 q 189 500 189 509 l 189 498 q 187 496 189 498 l 186 496 l 186 496 q 189 494 187 496 q 189 493 189 494 q 189 484 189 490 q 187 475 189 477 q 186 475 186 475 l 186 475 q 184 479 184 475 q 183 493 183 486 q 184 495 183 494 q 185 496 185 496 l 185 496 q 184 498 184 496 l 183 498 l 183 499 q 184 513 183 511 q 186 514 185 514 m 360 514 l 360 514 q 363 504 363 514 l 363 498 q 361 496 363 498 l 361 496 q 363 493 362 495 q 363 484 363 486 q 360 475 363 475 l 360 475 q 358 478 358 475 q 357 493 357 486 q 359 496 357 494 q 359 496 359 496 q 357 498 359 496 q 357 498 357 498 l 357 499 q 358 511 357 507 q 360 514 359 514 m 102 509 q 104 492 102 508 l 104 492 l 100 492 q 100 492 100 492 q 102 509 101 498 l 102 509 m 422 500 q 421 498 422 499 q 419 498 420 498 l 415 498 q 412 499 412 498 l 412 500 l 409 500 l 409 492 l 412 492 l 412 492 q 414 493 412 493 q 414 493 414 493 l 425 493 q 425 493 425 493 l 409 488 l 409 479 l 412 479 l 412 479 q 414 480 412 480 q 416 480 414 480 l 418 480 q 422 478 422 480 l 423 478 q 425 480 423 479 q 427 480 426 480 l 432 480 q 435 479 435 480 l 435 479 l 439 479 l 439 487 l 435 487 q 435 487 435 487 l 435 486 q 434 485 435 485 q 433 485 433 485 l 422 485 q 422 485 422 485 q 438 490 424 486 l 439 490 l 439 498 l 427 498 q 423 499 425 498 q 423 500 423 500 l 422 500 m 409 477 l 409 467 l 412 467 l 412 467 q 414 469 412 469 l 420 469 q 422 467 422 469 l 422 467 q 426 469 424 469 l 434 469 q 435 468 435 469 l 435 467 l 439 467 l 439 477 l 435 477 l 435 475 q 434 475 435 475 l 426 475 q 422 476 424 475 l 422 476 q 421 475 422 475 q 420 475 420 475 l 414 475 q 412 475 412 475 l 412 477 l 409 477 m 444 453 q 448 451 445 452 q 454 449 452 449 q 458 450 456 449 q 458 450 458 450 l 458 450 q 456 448 456 448 q 442 444 450 447 q 430 441 434 441 q 428 441 429 441 l 428 441 q 429 441 428 441 q 435 445 432 441 q 440 449 437 446 q 444 453 440 449 z "},".":{"ha":320,"x_min":22,"x_max":271,"o":"m 222 241 q 257 218 236 241 q 271 166 271 186 l 271 81 q 225 3 271 22 q 201 0 212 0 l 111 0 q 30 37 48 0 q 22 72 22 59 l 22 96 l 25 96 q 96 53 25 53 l 168 53 q 220 71 212 53 q 231 115 231 96 l 231 192 q 220 240 231 216 l 222 241 m 108 239 l 174 239 q 210 214 210 239 q 213 195 212 214 l 213 120 q 190 72 213 77 q 178 71 185 71 l 98 71 q 44 89 50 71 q 41 115 41 100 l 41 195 q 56 233 41 225 q 108 239 75 239 z "},"/":{"ha":435,"x_min":0,"x_max":0,"o":""},":":{"ha":424,"x_min":0,"x_max":0,"o":""},";":{"ha":424,"x_min":0,"x_max":0,"o":""},"<":{"ha":751,"x_min":0,"x_max":0,"o":""},"=":{"ha":751,"x_min":0,"x_max":0,"o":""},">":{"ha":751,"x_min":0,"x_max":0,"o":""},"?":{"ha":452,"x_min":0,"x_max":442,"o":"m 177 977 q 331 915 298 977 q 351 781 351 882 q 384 715 354 749 q 349 591 349 676 l 349 557 q 301 486 349 504 q 258 482 290 484 q 246 468 246 474 q 247 386 247 415 l 247 334 q 245 332 247 332 l 106 332 q 104 334 104 332 l 104 470 q 85 519 104 500 l 85 522 q 218 541 128 535 q 241 562 237 549 q 247 604 247 571 l 247 686 q 225 749 247 736 q 205 754 214 754 l 148 754 q 106 709 112 754 q 102 665 105 665 l 17 665 q 15 667 15 665 l 15 791 q 45 925 15 897 q 177 977 83 977 m 304 966 l 305 966 q 376 906 352 949 q 399 766 399 867 q 420 718 399 745 q 442 694 442 701 l 442 688 q 425 667 442 681 q 398 541 398 645 l 398 524 q 346 439 398 473 q 296 427 321 427 l 296 426 q 296 360 296 382 l 296 326 q 246 275 296 275 l 140 275 q 90 326 90 275 l 90 331 l 92 331 q 112 316 98 316 l 239 316 q 263 341 258 316 l 263 380 q 262 466 263 411 l 264 467 q 359 521 340 467 q 366 562 366 536 l 366 600 q 410 714 366 686 l 410 715 q 366 808 366 745 q 304 965 366 934 l 304 966 m 146 738 l 203 738 q 230 703 230 738 q 231 692 231 703 l 229 692 q 227 698 229 698 l 157 698 l 157 696 q 142 623 155 623 q 110 609 132 609 l 47 609 q 2 638 14 609 q 0 665 0 650 l 2 665 q 22 650 9 650 l 98 650 q 121 677 119 650 q 137 734 121 734 q 146 738 137 736 m 64 512 l 66 512 q 88 475 88 498 l 88 463 l 87 463 q 57 484 78 474 q 53 496 53 490 l 53 497 q 64 512 55 512 m 263 199 l 264 199 q 298 177 281 199 q 309 127 309 160 l 309 79 q 273 5 309 18 q 233 0 255 0 l 157 0 q 91 41 111 0 q 86 67 86 54 l 86 73 l 88 73 q 130 42 101 42 q 152 40 130 40 l 199 40 q 264 54 254 40 q 276 93 276 68 l 276 157 q 263 199 276 184 m 179 196 q 252 186 252 196 q 260 159 260 182 l 260 91 q 227 57 260 57 q 210 56 224 56 l 148 56 q 101 90 101 56 l 101 163 q 119 192 104 192 q 179 196 127 196 z "},"@":{"ha":1432,"x_min":0,"x_max":0,"o":""},"A":{"ha":919,"x_min":0,"x_max":905,"o":"m 237 971 q 444 954 349 954 l 455 954 q 666 971 549 954 l 667 971 q 689 962 681 971 l 689 772 q 665 762 682 762 l 635 762 q 610 741 610 762 q 683 569 656 602 q 725 532 701 547 l 725 532 q 715 492 715 516 l 715 491 q 766 312 715 436 q 825 288 786 288 l 842 288 q 868 278 861 288 l 868 75 q 844 64 859 64 q 703 75 770 75 l 696 75 q 532 64 627 75 q 509 75 518 64 l 509 278 q 563 290 511 288 q 604 332 604 304 l 604 334 q 573 423 604 342 q 549 456 566 446 q 509 466 530 466 l 393 466 q 329 422 343 466 q 298 332 298 342 q 346 290 298 300 q 391 279 386 290 l 391 74 q 366 64 382 64 q 199 78 281 78 l 197 78 q 56 64 136 78 q 33 75 43 64 l 33 278 q 60 288 41 288 l 76 288 q 138 319 122 288 q 190 491 190 442 q 178 534 190 514 l 178 536 q 245 621 227 574 q 294 741 262 651 q 269 762 294 762 l 238 762 q 214 772 221 762 l 214 962 q 237 971 222 971 m 704 968 l 705 968 q 728 924 728 956 l 728 752 q 696 703 728 715 q 656 696 677 696 q 709 568 691 593 q 718 557 710 568 l 718 557 q 650 671 684 577 l 625 743 l 629 745 l 664 745 q 704 768 704 750 l 704 968 m 194 962 l 195 962 l 195 770 q 238 745 195 748 l 271 745 q 273 743 273 744 l 273 741 q 215 605 241 642 l 215 607 q 252 696 234 644 l 251 696 q 180 752 180 696 l 180 921 q 194 962 180 953 m 374 543 q 418 500 374 512 q 435 498 426 498 l 470 498 q 528 530 512 498 q 530 541 530 534 l 530 544 q 493 668 530 554 q 453 718 474 718 q 404 642 426 718 q 374 543 391 604 m 449 700 l 450 700 q 509 553 469 700 q 511 543 511 550 l 511 539 q 497 521 511 531 l 494 521 q 455 641 473 596 l 454 641 q 414 518 437 595 l 414 518 q 389 542 389 526 q 443 694 420 656 l 449 700 m 749 534 q 776 511 776 526 l 776 509 q 759 488 776 496 q 753 465 755 480 q 795 310 753 423 q 766 357 779 310 q 730 489 730 448 q 749 534 730 522 m 151 532 q 172 487 172 521 q 118 321 172 445 l 113 317 l 113 319 q 155 460 155 422 l 155 464 q 135 493 155 487 q 126 507 126 500 l 126 511 q 151 532 126 527 m 393 448 l 507 448 q 555 416 547 448 q 585 333 585 337 l 585 330 q 567 311 585 318 q 534 395 541 387 q 505 401 526 401 l 402 401 q 369 389 373 401 q 336 308 339 310 l 335 308 q 313 327 319 314 l 313 335 q 354 435 347 429 q 393 448 368 448 m 405 285 l 406 285 q 429 250 429 272 l 429 45 q 377 0 429 11 l 368 0 q 210 14 266 14 q 62 0 145 14 l 58 0 q 1 33 19 0 l 0 41 l 0 256 q 14 279 0 265 l 15 279 l 15 74 q 56 47 21 47 q 196 60 136 60 q 366 47 273 60 q 406 73 406 53 l 406 278 l 405 285 m 882 285 l 884 285 q 905 252 905 271 l 905 41 q 870 4 905 18 q 849 0 859 0 l 845 0 q 706 10 758 10 q 534 0 644 10 l 534 0 q 478 31 498 0 q 476 45 476 41 l 476 248 q 490 278 476 268 l 491 278 l 491 81 q 511 51 491 58 q 532 47 524 47 q 699 58 627 58 q 844 47 762 58 q 882 70 872 47 l 882 280 l 882 285 z "},"B":{"ha":846,"x_min":0,"x_max":842,"o":"m 492 972 l 511 972 q 684 925 581 972 q 744 865 729 900 q 753 806 753 839 q 787 741 760 770 q 790 738 788 741 q 751 642 751 711 q 730 600 751 621 q 664 570 707 582 q 612 548 612 559 q 611 544 611 546 l 611 541 q 677 492 611 505 q 738 458 719 480 q 753 396 746 448 q 781 323 753 362 l 781 322 q 751 240 751 300 q 661 117 751 168 q 498 64 574 64 l 496 64 q 355 77 487 64 q 236 81 303 81 l 234 81 q 55 66 153 81 l 53 66 q 33 76 42 66 l 33 279 q 56 288 41 288 l 83 288 q 162 328 156 288 q 163 332 163 329 q 164 410 164 395 q 125 535 164 500 l 125 536 q 163 650 163 571 l 163 712 q 123 757 163 745 q 92 760 111 760 l 57 760 q 33 770 41 760 l 33 958 q 57 968 33 964 q 213 945 132 945 l 240 945 q 474 970 312 945 q 492 972 478 972 m 14 958 l 14 958 l 14 769 q 57 742 14 745 l 90 742 q 144 708 144 742 l 144 654 q 121 559 144 585 l 121 562 q 130 640 130 587 l 130 646 q 129 687 130 661 q 107 694 119 694 l 77 694 q 0 732 10 694 l 0 935 q 14 958 5 953 m 739 902 l 740 902 q 779 851 768 878 q 790 783 790 825 q 806 746 793 765 l 806 745 q 770 798 781 763 q 764 851 766 810 q 739 901 757 881 l 739 902 m 318 714 l 318 595 q 359 550 318 562 q 390 547 372 547 l 473 547 q 562 576 546 547 q 570 626 570 593 l 570 696 q 522 758 570 758 q 488 760 515 760 l 389 760 q 321 730 338 760 q 318 714 318 720 m 389 742 l 473 742 q 541 732 541 742 q 552 691 551 732 l 552 632 q 535 576 552 576 l 535 577 q 536 588 536 584 l 536 675 q 530 692 536 692 q 506 694 519 694 l 378 694 q 357 686 364 694 l 357 568 l 355 568 q 334 588 342 568 l 334 716 q 365 740 334 732 q 389 742 370 742 m 819 734 q 842 710 842 722 l 842 705 q 816 682 842 694 q 788 610 788 666 q 753 541 788 575 q 682 508 724 521 l 680 508 q 626 541 626 517 q 735 582 705 562 q 767 673 767 604 q 794 720 772 701 q 819 734 814 734 m 97 531 q 146 408 146 509 q 144 335 144 347 q 131 313 144 321 l 129 313 l 131 378 q 94 486 131 467 q 72 505 72 493 l 72 511 q 97 531 72 525 m 318 468 l 318 336 q 398 288 318 288 l 477 288 q 557 304 547 288 q 570 351 570 311 l 570 439 q 556 500 570 490 q 501 515 534 515 l 374 515 q 318 468 318 508 m 374 497 l 500 497 q 549 475 549 494 q 552 435 551 475 l 552 363 q 545 317 552 317 q 536 312 540 312 l 536 427 q 529 446 536 446 q 492 450 519 450 l 379 450 q 357 441 357 447 l 357 309 l 355 309 q 334 332 334 317 l 334 472 q 374 497 334 492 m 749 470 q 781 426 773 453 q 793 351 785 412 q 821 308 806 315 q 827 295 827 300 l 827 289 q 804 264 827 279 q 789 201 789 253 q 604 20 789 95 q 505 0 550 0 l 492 0 q 353 12 484 0 q 239 17 291 17 q 61 1 152 17 q 4 29 23 1 q 0 45 0 36 l 0 254 q 14 279 0 267 l 14 279 l 14 75 q 57 48 14 53 q 235 63 139 63 q 486 47 335 63 l 496 47 q 706 127 593 47 q 758 191 749 164 q 767 267 767 207 q 793 311 774 298 q 804 320 804 319 l 804 322 q 772 370 785 334 q 760 445 768 388 q 749 468 755 458 l 749 470 z "},"C":{"ha":722,"x_min":0,"x_max":700,"o":"m 304 981 l 334 981 q 483 959 418 981 l 484 959 q 505 975 496 959 q 522 981 517 981 l 639 981 q 662 972 652 981 q 648 792 648 876 l 648 775 q 661 623 648 707 q 619 614 656 614 l 545 614 q 502 625 508 614 l 502 632 q 484 720 502 705 q 387 760 453 760 l 378 760 q 264 711 292 760 q 255 673 255 688 l 255 644 q 254 638 255 640 l 255 632 l 255 621 q 286 536 255 568 q 254 440 254 506 q 266 338 254 351 q 375 283 294 283 l 385 283 q 492 340 460 283 q 502 385 502 365 l 502 422 q 528 433 509 433 l 635 433 q 662 422 654 433 l 662 246 q 567 76 662 113 q 390 47 501 47 l 388 47 q 119 138 172 47 q 95 258 95 177 l 95 325 q 47 536 95 490 l 47 537 q 95 771 95 584 l 95 823 q 162 951 95 919 q 304 981 215 981 m 675 978 q 698 956 686 978 q 700 947 700 951 l 700 944 q 685 758 685 826 q 700 595 685 683 l 700 591 q 648 549 700 562 q 631 549 640 549 l 538 549 q 469 587 481 549 q 458 667 467 667 q 382 695 441 695 q 302 667 319 695 q 293 629 293 657 l 293 602 q 306 542 293 564 l 304 542 q 270 627 271 562 l 270 661 q 375 743 270 743 l 382 743 q 477 692 458 743 q 483 625 483 680 q 542 596 483 596 l 619 596 q 675 614 664 596 l 677 621 q 662 781 662 710 q 677 975 662 860 q 675 978 675 977 m 90 903 l 90 902 q 76 826 76 868 l 76 779 q 38 556 76 597 l 38 558 q 61 791 61 599 l 61 805 q 90 903 61 863 m 315 532 q 337 516 336 519 q 340 507 340 512 l 340 503 q 313 480 340 492 q 293 416 293 461 l 293 378 q 304 319 293 332 l 304 317 q 270 401 270 337 q 269 433 270 423 q 307 530 269 510 l 315 532 m 21 530 q 76 310 76 506 l 76 245 q 178 64 76 109 q 378 30 254 30 l 392 30 q 650 125 593 30 q 677 228 677 174 l 677 424 l 675 429 l 678 429 q 700 395 700 416 l 700 199 q 633 43 700 100 q 401 -18 556 -18 l 378 -18 q 61 205 61 -18 l 61 258 q 16 486 61 469 q 0 500 3 491 l 0 509 q 21 530 0 519 m 481 422 l 483 422 l 483 385 q 465 330 483 357 l 463 330 q 468 362 468 347 l 468 397 q 481 422 468 410 z "},"D":{"ha":814,"x_min":0,"x_max":807,"o":"m 470 972 q 663 913 573 972 q 718 781 718 869 l 718 724 q 757 541 718 582 l 757 539 q 716 379 716 505 q 718 263 718 310 q 581 85 718 131 q 464 64 526 64 l 458 64 q 307 81 434 64 q 229 85 234 85 q 215 84 222 84 l 203 84 q 56 69 139 84 q 33 80 42 69 l 33 281 q 60 291 41 291 l 104 291 q 158 319 139 291 q 163 334 161 326 q 163 416 163 388 q 130 539 163 504 q 163 665 163 574 l 163 712 q 128 755 163 743 q 102 760 114 760 l 61 760 q 33 770 41 760 l 33 958 q 53 966 41 966 l 54 966 l 112 954 q 195 949 157 949 q 435 972 277 949 l 470 972 m 14 958 l 14 958 l 14 769 q 58 742 14 746 l 102 742 q 144 711 144 739 l 144 669 q 120 556 144 586 l 118 556 q 130 650 130 585 q 128 687 130 654 q 102 696 119 696 l 62 696 q 2 728 18 696 q 0 739 0 732 l 0 934 q 14 958 0 946 m 692 907 l 693 907 q 740 842 731 871 q 757 726 757 809 q 755 704 757 711 q 781 543 755 582 l 779 543 q 748 587 759 557 q 732 748 732 628 q 734 777 732 760 q 692 905 734 857 l 692 907 m 319 716 q 318 659 319 692 q 353 539 318 574 l 353 538 q 317 413 317 501 q 318 401 318 406 q 319 333 318 383 q 374 291 319 300 l 429 291 q 547 324 526 291 q 562 406 562 348 l 562 422 q 537 535 562 518 l 536 541 q 562 632 562 562 l 562 643 q 523 745 562 730 q 425 760 491 760 l 379 760 q 324 734 342 760 q 319 716 319 724 m 376 742 l 421 742 q 526 720 505 742 q 543 641 543 703 q 524 553 543 568 l 523 553 q 528 591 528 569 l 528 632 q 488 690 528 690 q 394 696 467 696 l 383 696 q 357 687 367 696 q 356 651 356 663 l 356 628 q 372 545 356 570 l 372 545 q 342 584 355 553 q 333 657 333 610 l 333 700 q 347 734 333 730 q 376 742 359 742 m 785 537 q 803 524 787 534 q 807 512 807 517 l 807 507 q 781 484 807 497 q 755 357 755 452 q 757 238 755 314 q 581 18 757 71 q 471 0 526 0 l 453 0 q 315 16 430 0 q 220 20 269 20 l 212 20 q 61 5 147 20 l 57 5 q 1 38 19 5 l 0 45 l 0 259 q 14 281 0 269 l 14 281 l 14 79 q 55 52 20 52 q 199 66 140 66 l 215 66 q 224 67 220 66 q 232 66 228 66 l 238 66 q 429 47 298 66 q 453 47 437 47 l 465 47 q 680 122 585 47 q 734 267 734 178 q 732 279 734 269 q 732 379 732 287 q 770 530 732 503 q 785 537 780 537 m 382 536 q 404 519 401 524 q 406 513 406 516 l 406 507 q 385 488 406 496 q 355 389 355 466 q 357 311 355 357 q 356 311 356 311 q 335 327 342 315 q 333 342 333 337 q 332 415 332 407 q 381 536 332 517 l 382 536 m 104 534 q 145 410 145 513 q 144 336 145 401 q 130 315 144 323 q 128 315 130 315 q 130 382 130 335 q 102 488 130 467 q 81 509 81 494 l 81 513 q 104 534 81 525 m 509 533 l 511 533 q 543 439 543 515 l 543 417 q 526 327 543 341 l 524 327 q 529 415 529 343 q 504 490 529 477 q 488 510 488 496 q 509 533 488 525 z "},"E":{"ha":766,"x_min":0,"x_max":747,"o":"m 498 972 l 521 972 q 703 960 703 964 q 709 954 709 956 q 684 777 684 831 l 684 761 q 708 634 684 699 l 708 633 q 684 625 701 625 l 578 625 q 552 635 559 625 l 552 684 q 528 744 552 730 q 441 758 508 758 l 389 758 q 320 722 331 758 q 319 713 319 718 l 319 591 q 372 548 319 555 q 392 547 378 547 l 501 547 q 526 536 520 547 l 526 525 q 485 515 522 515 l 375 515 q 324 490 345 515 q 319 469 319 481 l 319 334 q 381 290 319 296 l 430 290 q 533 307 522 290 q 552 356 552 324 l 552 426 q 583 437 557 437 l 680 437 q 709 427 709 436 q 688 272 688 353 q 709 78 688 199 q 680 70 699 70 q 500 64 522 64 q 330 83 457 64 q 222 89 262 89 q 58 70 136 89 q 33 80 33 75 l 33 281 q 56 290 41 290 l 85 290 q 155 315 140 290 q 161 344 161 324 q 163 405 161 371 q 127 538 163 503 q 151 583 146 563 q 161 690 161 610 l 161 705 q 132 751 161 741 q 92 758 115 758 l 56 758 q 33 768 40 758 l 33 954 q 56 964 40 964 q 218 937 136 937 l 227 937 q 452 968 322 937 q 498 972 475 972 m 724 960 l 726 960 q 747 928 747 947 l 747 926 q 722 749 722 791 l 722 737 q 747 608 722 674 l 747 604 q 692 561 747 570 l 576 561 q 523 589 543 561 q 519 608 519 596 l 519 644 q 507 686 519 686 q 465 693 496 693 l 376 693 q 357 684 357 689 l 357 567 l 356 567 q 334 591 334 575 l 334 706 q 388 740 334 740 l 441 740 q 524 724 511 740 q 533 684 533 711 l 533 640 q 551 612 533 619 q 574 608 563 608 l 682 608 q 725 633 720 608 q 699 770 699 696 q 725 956 699 827 l 725 958 q 724 960 724 960 m 14 954 l 14 954 l 14 767 q 54 740 20 740 l 89 740 q 143 706 143 740 l 143 701 q 119 558 143 579 q 117 555 119 555 l 117 557 q 127 640 127 587 l 127 684 q 106 693 120 693 l 76 693 q 0 731 10 693 l 0 932 q 14 954 0 942 m 539 543 q 564 503 564 534 q 530 456 564 469 q 498 451 515 451 l 380 451 q 357 443 365 451 l 357 311 l 356 311 q 334 336 334 319 l 334 461 q 352 492 334 486 q 375 497 363 497 l 484 497 q 538 515 530 497 q 541 522 541 519 l 541 538 l 539 543 m 101 533 q 130 501 117 526 q 143 404 143 468 l 143 342 q 130 315 143 321 l 127 315 q 129 368 129 352 l 129 374 q 101 487 129 467 q 79 511 79 492 q 101 533 79 522 m 725 435 q 747 401 747 420 l 747 397 q 726 249 726 322 l 726 238 q 747 50 726 170 l 747 48 q 693 6 747 17 l 690 6 l 522 0 l 491 0 q 356 16 457 0 q 231 24 282 24 q 60 6 151 24 l 59 6 q 0 50 0 14 l 0 257 q 14 281 0 269 l 14 281 l 14 79 q 56 52 14 57 q 225 71 136 71 q 445 50 309 71 q 499 46 465 46 q 696 54 696 52 q 725 77 725 62 q 703 262 703 195 l 703 282 q 725 428 703 351 l 725 431 l 724 433 q 725 435 725 433 m 532 427 l 533 427 l 533 355 q 519 318 533 330 l 518 318 q 519 338 519 332 l 519 394 q 532 427 519 417 z "},"F":{"ha":746,"x_min":0,"x_max":730,"o":"m 486 969 l 510 969 q 683 961 683 964 q 691 954 691 957 q 669 791 669 865 q 691 626 669 719 q 669 618 681 618 l 557 618 q 533 629 540 618 l 533 711 q 496 751 533 739 q 469 755 486 755 l 379 755 q 323 722 339 755 q 321 711 321 718 l 321 589 q 378 544 321 551 l 434 544 q 467 534 461 544 l 467 522 q 441 512 460 512 l 389 512 q 322 476 334 512 q 321 465 321 471 l 321 331 q 357 290 321 302 q 379 286 370 286 l 437 286 q 467 276 460 286 l 467 75 q 443 64 460 64 q 262 82 343 82 l 234 82 q 56 64 158 82 q 33 75 33 68 l 33 276 q 63 286 33 284 l 102 286 q 161 318 144 286 q 163 332 163 329 q 163 398 163 342 l 165 404 q 163 412 163 407 l 163 420 q 122 534 163 497 q 165 644 165 568 q 163 711 163 680 q 109 755 163 746 l 60 755 q 33 766 41 755 l 33 954 q 56 963 41 963 q 222 945 143 945 q 449 967 316 945 q 486 969 465 969 m 706 960 q 730 926 730 949 l 730 926 q 708 779 708 829 l 708 762 q 730 600 708 688 l 730 595 q 681 555 730 568 q 659 553 665 553 l 574 553 q 500 590 512 553 q 500 600 500 595 l 500 678 q 467 691 500 691 l 389 691 q 359 682 366 691 l 359 566 q 357 564 359 564 q 337 585 337 574 l 337 713 q 381 738 345 738 l 467 738 q 514 711 514 734 l 514 633 q 531 606 514 614 q 553 601 543 601 l 667 601 q 707 626 707 606 q 685 789 685 712 l 685 791 q 707 955 685 867 l 707 956 l 706 960 m 14 954 l 14 954 l 14 765 q 52 738 14 744 l 100 738 q 144 708 138 738 q 145 642 145 669 l 145 634 q 123 561 145 587 l 123 562 q 131 612 131 588 q 129 683 131 636 q 100 691 119 691 l 58 691 q 2 724 20 691 q 0 732 0 727 l 0 930 q 14 954 0 941 m 483 541 q 505 507 505 526 l 505 491 q 449 448 505 456 l 397 448 q 359 439 364 448 l 359 308 l 359 306 q 337 329 337 315 l 337 469 q 386 494 345 494 l 441 494 q 482 516 471 494 l 482 535 l 481 540 l 483 541 m 94 528 q 145 410 145 506 q 144 331 145 387 q 129 310 144 317 l 129 311 q 131 385 131 351 q 92 483 131 464 q 69 503 69 490 l 69 508 q 94 528 69 522 m 482 283 q 505 249 505 269 l 505 43 q 469 4 505 17 q 448 0 458 0 l 443 0 q 251 18 340 18 q 62 0 163 18 l 59 0 q 0 37 14 0 l 0 254 q 14 276 0 264 l 14 276 l 14 74 q 45 47 14 55 q 55 47 50 47 q 232 64 160 64 l 260 64 q 443 47 333 64 l 444 47 q 481 66 469 47 l 482 73 l 482 277 l 481 282 q 482 283 482 282 z "},"G":{"ha":797,"x_min":0,"x_max":788,"o":"m 315 984 l 347 984 q 491 967 428 984 l 493 967 q 516 982 500 967 q 532 984 526 984 l 646 984 q 667 975 661 984 q 655 810 655 873 l 655 797 q 667 665 655 726 q 637 656 657 656 l 540 656 q 509 667 515 656 l 509 668 q 484 749 509 724 q 393 765 465 765 l 378 765 q 277 734 299 765 q 264 660 264 718 q 285 541 264 567 l 285 541 q 264 419 264 514 l 264 408 q 285 326 264 343 q 384 292 315 292 l 391 292 q 509 388 509 292 l 509 475 q 451 519 509 512 l 391 519 q 366 530 374 519 l 366 538 q 397 552 366 552 l 719 552 q 750 541 743 552 l 750 530 q 706 516 750 522 q 667 470 667 503 q 652 271 652 362 q 667 66 652 180 q 644 58 657 58 l 534 58 q 503 74 511 58 q 491 78 496 78 q 334 58 426 58 l 318 58 q 121 132 166 58 q 106 190 106 162 q 106 319 106 265 l 106 332 q 52 541 106 490 l 52 541 q 106 760 106 586 q 106 850 106 823 q 251 980 106 960 q 315 984 277 984 m 682 981 l 684 981 q 706 947 706 966 q 692 770 692 838 q 706 635 692 709 q 663 593 706 607 q 644 591 654 591 l 534 591 q 479 620 499 591 q 471 673 475 629 q 453 695 466 695 q 395 701 427 701 q 309 685 326 701 q 302 643 302 672 l 302 628 q 322 529 302 534 q 330 516 330 523 l 330 511 q 315 489 330 501 q 302 415 302 462 l 302 357 q 309 326 302 343 l 308 326 q 279 385 279 345 l 279 421 q 301 534 279 519 q 308 541 301 534 l 308 541 q 286 574 292 551 q 279 637 279 602 l 279 676 q 312 739 279 730 q 382 747 340 747 l 393 747 q 476 730 463 747 q 490 664 490 704 q 538 639 498 639 l 635 639 q 682 661 674 639 l 683 665 q 669 793 669 730 q 683 976 669 872 l 682 981 m 98 909 l 98 909 q 87 847 87 878 q 88 753 87 820 q 52 568 88 614 l 52 571 q 72 722 72 616 l 72 826 q 98 909 72 873 m 765 549 q 788 517 788 534 l 788 495 q 740 454 788 469 q 705 439 705 454 q 690 234 690 334 q 706 35 690 149 q 659 -5 706 7 q 646 -7 654 -7 l 530 -7 q 486 10 509 -7 q 349 -7 427 -7 l 313 -7 q 87 94 140 -7 q 72 161 72 128 q 73 300 72 199 q 23 489 73 454 q 0 511 0 497 l 0 516 q 24 536 0 528 q 56 506 39 530 q 88 323 88 450 l 88 319 q 87 191 88 267 q 202 54 87 90 q 313 40 256 40 l 328 40 q 490 60 429 40 q 532 40 502 40 l 642 40 q 683 66 676 40 q 667 254 667 169 l 667 282 q 685 483 667 377 q 732 502 699 502 q 765 526 765 511 l 765 546 l 764 548 q 765 549 765 548 m 347 541 l 347 541 l 347 534 q 363 508 347 514 q 391 502 375 502 l 438 502 q 491 470 491 502 l 491 385 q 475 335 491 356 l 473 335 q 476 372 476 349 l 476 444 q 437 454 476 454 l 390 454 q 336 484 356 454 q 333 500 333 492 l 333 513 q 347 541 333 530 z "},"H":{"ha":882,"x_min":0,"x_max":856,"o":"m 58 973 q 227 950 177 956 q 273 948 245 948 l 287 948 q 367 956 327 948 q 393 945 393 951 l 393 774 q 344 763 393 764 q 298 719 298 751 l 298 595 q 355 550 298 557 l 496 550 q 550 578 531 550 q 554 597 554 586 l 554 717 q 521 758 554 747 q 473 765 506 765 q 459 774 460 770 l 459 945 q 483 956 468 956 q 562 950 518 951 q 791 973 621 950 l 796 973 q 818 964 810 973 l 818 774 q 791 764 810 764 l 772 764 q 712 731 729 764 q 710 715 710 722 l 710 666 q 751 541 710 574 l 751 540 q 709 402 709 503 q 710 335 710 367 q 769 289 710 296 q 818 279 818 289 l 818 75 q 794 65 810 65 q 544 79 610 79 q 479 77 489 77 q 459 88 467 77 l 459 279 q 508 290 463 290 q 554 336 554 301 l 554 471 q 500 517 554 509 q 486 517 498 517 l 366 517 q 298 481 311 517 q 298 471 298 475 l 298 334 q 355 289 298 296 q 392 281 384 289 l 393 279 l 393 88 q 371 77 385 77 q 302 79 317 79 l 290 79 q 54 65 231 79 q 33 75 42 65 l 33 279 q 96 290 33 290 q 142 333 142 303 q 142 422 142 393 q 104 540 142 503 l 104 541 q 142 663 142 575 l 142 715 q 85 764 142 756 l 61 764 q 33 774 41 764 l 33 964 q 58 973 41 973 m 831 970 q 854 948 842 970 q 856 940 856 944 l 856 740 q 819 703 856 717 q 797 699 808 699 l 781 699 q 749 689 753 698 q 748 641 749 674 q 766 551 748 581 l 765 551 q 725 667 725 576 q 726 722 725 684 q 769 746 738 746 l 788 746 q 833 770 825 746 l 833 965 l 831 970 m 14 964 l 15 964 l 15 773 q 52 746 15 752 l 79 746 q 121 721 113 746 q 123 711 123 717 l 123 673 q 98 562 123 586 l 98 564 q 108 643 108 593 q 107 690 107 678 q 75 699 98 699 l 59 699 q 2 731 20 699 q 0 740 0 735 l 0 940 q 14 964 0 951 m 406 952 l 408 952 q 427 930 427 939 l 429 930 q 439 945 430 938 l 440 945 l 440 777 q 496 746 440 746 q 534 720 534 739 q 535 712 535 720 l 535 598 q 522 574 535 581 l 519 574 l 519 689 q 471 700 519 699 q 431 726 439 709 q 429 731 429 729 l 427 731 q 392 702 427 717 q 347 696 377 699 q 336 689 337 692 l 336 572 q 334 570 336 570 q 313 591 313 580 l 313 721 q 365 746 319 746 q 408 773 408 750 l 408 945 l 406 952 m 781 536 q 808 514 808 527 q 810 511 808 513 q 781 486 810 494 q 748 372 748 465 l 748 352 q 749 310 748 336 q 748 309 748 310 q 727 327 730 317 l 726 329 q 725 385 725 365 l 725 404 q 770 532 725 506 q 781 536 780 536 m 75 534 q 123 416 123 513 q 123 336 123 399 q 107 313 123 320 l 107 314 q 109 388 109 366 q 75 487 109 466 q 52 508 52 495 l 52 513 q 75 534 52 526 m 362 500 l 483 500 q 535 467 535 500 l 535 337 q 521 313 535 321 l 519 313 l 519 443 q 482 452 519 451 l 374 452 q 336 443 341 452 l 336 311 l 335 309 q 313 332 313 318 l 313 475 q 362 500 321 500 m 406 286 l 408 286 q 427 264 427 272 l 429 264 q 439 279 430 271 l 440 279 l 440 90 q 477 60 440 64 l 479 60 q 544 62 489 60 q 794 47 602 62 l 795 47 q 833 69 821 47 l 833 281 l 831 286 l 833 286 q 856 252 856 272 l 856 41 q 802 0 856 11 l 798 0 q 608 13 785 0 q 576 14 606 14 l 548 14 q 486 12 511 14 q 429 42 449 12 l 429 44 l 427 44 q 404 20 427 34 q 370 12 385 12 q 300 15 326 15 q 60 0 240 15 l 56 0 q 3 29 23 0 q 0 41 0 37 l 0 256 q 14 279 0 267 l 15 279 l 15 75 q 45 48 15 56 q 54 47 51 47 q 288 62 228 62 l 302 62 q 370 60 367 60 q 406 81 395 60 q 408 89 408 85 l 408 279 l 406 286 z "},"I":{"ha":492,"x_min":0,"x_max":471,"o":"m 57 975 q 222 958 153 958 q 412 975 295 958 l 412 975 q 433 966 425 975 l 433 776 q 406 765 426 765 l 375 765 q 316 735 334 765 q 313 719 313 726 l 313 653 q 356 541 313 578 l 356 540 q 321 470 333 517 q 313 356 313 429 l 313 336 q 372 290 313 297 l 403 290 q 433 279 427 290 l 433 75 q 408 65 425 65 q 220 82 312 82 q 57 65 150 82 q 34 75 34 69 l 34 279 q 64 290 34 288 l 92 290 q 152 322 136 290 q 155 338 155 332 l 155 385 q 106 540 155 505 l 106 542 q 148 619 134 562 q 155 711 155 648 l 155 717 q 98 765 155 758 l 61 765 q 34 776 41 765 l 34 966 q 57 975 42 975 m 447 972 q 469 950 458 972 q 471 941 471 946 l 471 741 q 435 705 471 718 q 412 700 423 700 l 381 700 q 352 691 358 700 q 351 638 351 652 q 370 551 351 580 q 328 669 328 576 l 328 680 q 334 732 328 732 q 372 747 349 747 l 403 747 q 448 772 440 747 l 448 967 l 447 972 m 14 966 l 15 966 l 15 774 q 52 747 15 753 l 90 747 q 136 717 136 744 l 136 711 q 107 570 136 597 l 107 571 q 119 654 119 604 l 119 691 q 90 700 113 700 l 59 700 q 2 732 20 700 q 0 741 0 736 l 0 941 q 14 966 0 954 m 385 538 q 410 512 410 527 q 387 488 410 496 q 352 352 352 458 l 352 312 l 351 310 q 328 333 328 319 l 328 375 q 382 538 328 513 l 385 538 m 79 535 q 122 484 106 523 q 136 380 136 450 l 136 340 q 121 314 136 321 l 119 314 l 119 340 q 121 349 119 346 q 119 360 119 355 l 119 370 q 75 489 119 466 q 54 512 54 496 q 79 535 54 529 m 447 287 l 448 287 q 471 253 471 273 l 471 41 q 424 1 471 14 q 414 0 418 0 l 410 0 q 255 16 303 16 q 226 17 230 17 q 61 0 161 17 l 58 0 q 1 35 18 0 l 0 41 l 0 257 q 14 279 0 267 l 15 279 l 15 75 q 45 48 15 56 q 56 47 51 47 q 222 64 150 64 q 408 47 303 64 l 410 47 q 448 71 438 47 l 448 281 l 447 287 z "},"J":{"ha":650,"x_min":0,"x_max":625,"o":"m 122 972 l 125 972 q 345 951 243 951 q 565 972 445 951 l 567 972 q 587 962 578 972 l 587 773 q 561 762 581 762 l 519 762 q 458 730 474 762 q 454 641 456 730 q 502 536 454 574 q 454 315 454 494 q 456 164 456 201 q 394 75 456 100 q 250 54 343 54 l 243 54 q 43 123 83 54 q 33 176 33 146 l 33 426 q 60 437 41 437 l 153 437 q 180 426 172 437 l 180 347 q 238 288 180 288 l 246 288 q 299 345 290 288 q 300 380 300 365 l 300 419 q 246 536 300 492 l 246 537 q 301 656 301 577 q 300 718 300 698 q 258 760 300 747 q 238 762 245 762 l 128 762 q 101 773 109 762 l 101 962 q 122 972 101 968 m 601 969 q 623 947 611 969 q 625 939 625 943 l 625 739 q 571 698 625 709 l 524 698 q 494 689 504 698 l 492 619 q 508 554 492 578 l 508 553 q 469 650 469 578 q 475 728 471 728 q 517 745 489 745 l 561 745 q 602 769 593 745 l 602 964 l 601 969 m 82 962 l 83 962 l 83 776 q 106 748 83 755 q 124 745 117 745 l 235 745 q 280 718 273 745 q 281 707 281 715 l 281 648 q 260 576 281 605 l 258 576 q 267 627 267 600 l 267 637 q 266 689 267 653 q 234 698 256 698 l 126 698 q 71 730 88 698 q 68 743 68 737 l 68 932 q 82 962 68 951 m 528 535 q 555 511 555 526 l 555 507 q 532 485 555 496 q 492 300 492 447 q 494 143 492 227 q 378 2 494 30 q 266 -11 323 -11 l 233 -11 q 12 80 62 -11 q 0 134 0 110 l 0 404 q 14 427 1 414 l 14 425 l 14 174 q 236 37 14 37 l 248 37 q 456 106 420 37 q 472 170 472 134 l 471 183 q 470 333 470 286 q 520 531 470 495 q 528 535 526 535 m 217 532 q 281 416 281 496 l 281 385 q 266 313 281 319 q 264 312 266 312 q 267 383 267 353 q 201 493 267 463 q 195 509 195 502 q 217 532 195 526 m 193 433 l 195 433 q 217 399 217 420 l 217 329 q 218 308 217 322 q 217 307 217 308 q 195 341 195 314 q 195 358 195 341 l 195 426 l 193 433 z "},"K":{"ha":903,"x_min":0,"x_max":890,"o":"m 56 969 q 233 949 91 966 q 299 946 258 946 q 380 951 338 946 q 404 941 404 947 l 404 771 q 358 760 401 760 q 300 728 317 760 q 298 715 298 721 l 298 640 q 351 593 298 600 q 361 591 359 591 q 432 624 391 591 q 586 730 579 723 q 589 742 589 737 q 568 760 589 760 l 508 760 q 477 771 485 760 l 477 941 q 502 951 477 947 q 555 948 530 948 l 570 948 q 795 968 628 948 q 812 969 798 969 q 833 956 830 969 l 833 771 q 806 760 826 760 l 775 760 q 707 731 745 760 l 485 581 l 457 548 l 458 548 q 631 530 510 548 q 667 528 646 528 l 678 528 q 684 507 680 528 q 718 469 692 486 q 745 416 745 439 l 745 336 q 801 288 745 296 q 852 277 852 288 l 852 75 q 828 64 844 64 l 618 81 q 576 83 579 83 q 500 79 535 81 q 477 90 486 79 l 477 277 q 506 288 486 288 l 529 288 q 585 319 566 288 q 587 333 587 329 l 587 401 q 504 507 587 484 q 426 515 474 515 l 366 515 q 299 479 311 515 q 298 471 298 475 l 298 333 q 334 292 298 304 q 357 288 348 288 l 376 288 q 404 277 395 288 l 404 90 q 384 79 404 85 q 322 80 343 80 q 64 64 269 80 l 56 64 q 33 75 41 64 l 33 277 q 95 289 33 289 q 141 334 141 301 q 142 405 141 358 q 101 538 142 504 l 101 539 q 141 676 141 572 l 141 713 q 85 760 141 752 l 60 760 q 33 771 41 760 l 33 960 q 56 969 41 969 m 847 966 q 870 943 857 966 l 871 932 l 871 740 q 834 700 871 713 q 812 696 823 696 l 781 696 q 736 677 759 696 l 557 556 q 491 564 527 560 l 491 564 q 730 726 526 589 q 772 743 750 743 l 803 743 q 848 769 842 743 l 848 961 l 847 966 m 14 960 l 15 960 l 15 770 q 52 743 15 749 l 78 743 q 121 718 112 743 q 122 701 122 709 q 103 572 122 591 l 98 562 l 96 562 q 106 630 106 591 l 106 686 q 74 696 102 695 l 58 696 q 2 728 20 696 q 0 736 0 732 l 0 936 q 14 960 0 947 m 417 948 l 418 948 q 441 913 441 935 l 441 741 q 391 696 441 707 q 337 686 337 696 l 337 612 l 336 612 q 313 636 313 621 l 313 708 q 340 741 313 733 q 357 743 352 743 l 374 743 q 418 769 418 747 l 418 941 l 417 948 m 458 941 l 459 941 l 459 774 q 482 746 459 753 q 502 743 494 743 l 568 743 q 570 741 570 743 q 505 696 548 722 l 503 696 q 446 728 465 696 q 444 741 444 735 l 444 913 q 458 941 444 930 m 707 536 q 726 516 720 536 q 719 500 726 507 l 719 498 q 724 483 719 494 q 694 528 694 505 q 702 535 694 535 l 707 536 m 73 533 q 110 494 97 523 q 123 408 123 457 q 122 339 122 363 q 106 312 122 317 l 106 313 q 107 361 107 342 l 107 384 q 73 486 107 467 q 48 509 48 492 q 73 533 48 526 m 363 498 l 420 498 q 558 446 534 498 q 568 396 568 429 l 568 336 q 554 312 568 319 l 553 312 l 553 378 q 494 444 553 429 q 403 450 470 450 l 374 450 q 337 441 341 450 l 337 310 l 336 308 q 315 324 321 313 q 313 341 313 329 l 313 460 q 329 490 313 484 q 363 498 341 498 m 734 473 l 735 473 q 783 376 783 435 l 783 310 l 783 308 q 760 331 760 317 l 760 407 q 734 473 760 444 m 417 285 l 418 285 q 441 250 441 271 l 441 60 q 406 19 441 31 q 380 14 403 17 q 376 15 376 15 q 323 16 361 15 q 71 0 285 16 l 54 0 q 3 28 25 0 q 0 41 0 37 l 0 256 q 14 277 0 266 l 15 277 l 15 74 q 45 48 15 56 q 54 47 50 47 q 277 62 68 47 q 314 62 290 62 q 382 62 327 62 q 412 74 404 65 q 418 89 418 81 l 418 277 l 417 285 m 866 285 l 867 285 q 890 252 890 271 l 890 41 q 837 0 890 11 l 831 0 q 642 15 813 0 q 574 18 618 16 q 507 14 534 16 q 450 41 470 14 q 444 60 444 49 l 444 250 q 458 277 444 267 l 459 277 l 459 94 q 477 66 459 73 q 498 62 491 62 q 574 64 559 64 q 823 47 621 64 l 829 47 q 867 69 855 47 l 867 279 l 866 285 z "},"L":{"ha":729,"x_min":0,"x_max":710,"o":"m 57 970 q 258 956 176 956 q 461 970 333 956 q 483 960 475 970 l 483 772 q 456 762 475 762 l 386 762 q 322 722 333 762 l 322 659 q 363 536 322 568 q 322 376 322 500 l 322 336 q 370 293 322 302 q 379 292 374 292 l 432 292 q 510 319 498 292 q 517 364 517 332 l 517 429 q 544 439 525 439 l 646 439 q 673 429 665 439 l 673 79 q 616 68 673 68 q 498 64 533 64 l 492 64 q 338 78 450 64 q 238 83 288 82 q 58 68 146 83 q 33 79 33 73 l 33 281 q 72 292 39 292 l 106 292 q 158 317 139 292 q 163 344 163 326 l 163 404 q 113 540 163 505 l 113 541 q 151 598 143 566 q 163 700 163 627 l 163 711 q 136 755 163 743 q 98 762 117 762 l 60 762 q 33 772 41 762 l 33 960 q 57 970 41 970 m 498 968 q 521 920 521 956 l 521 755 q 495 706 521 716 q 460 698 477 698 l 393 698 q 360 689 369 698 q 359 643 359 654 q 376 548 359 576 l 375 548 q 345 592 354 562 q 336 667 336 625 l 336 691 q 344 730 336 730 q 385 745 355 745 l 454 745 q 497 768 490 745 l 497 964 l 496 966 l 498 968 m 14 960 l 14 960 l 14 771 q 56 745 14 749 l 98 745 q 144 716 138 745 l 144 706 q 117 571 144 597 l 117 572 q 129 648 129 604 l 129 688 q 96 698 129 696 l 60 698 q 2 730 18 698 q 0 738 0 734 l 0 937 q 14 960 0 948 m 84 534 q 127 496 109 525 q 144 404 144 459 l 144 342 q 131 315 144 322 l 129 315 q 130 357 130 342 l 130 364 q 87 486 130 467 q 61 499 61 495 q 57 512 57 507 q 84 534 57 529 m 391 534 q 418 512 418 528 l 418 510 q 397 487 418 496 q 359 340 359 463 q 360 313 360 324 l 358 311 q 337 330 342 317 q 336 366 337 335 q 391 534 336 517 m 686 436 l 687 436 q 710 403 710 423 l 710 47 q 659 5 710 16 q 503 0 532 0 l 486 0 q 325 14 450 0 q 239 18 278 18 l 220 18 q 60 4 153 18 q 0 47 0 12 l 0 258 q 14 281 0 269 l 14 281 l 14 78 q 57 51 14 56 q 231 65 148 65 q 454 47 300 65 q 492 47 463 47 q 669 56 669 50 q 687 76 687 64 l 687 431 l 686 436 m 497 429 l 498 429 l 498 363 q 485 317 498 323 l 483 317 q 484 346 484 337 l 484 395 q 497 429 484 419 z "},"M":{"ha":1200,"x_min":0,"x_max":1177,"o":"m 56 974 q 202 959 138 959 q 344 974 264 959 l 347 974 q 374 943 370 974 q 530 486 384 917 q 587 458 549 458 q 654 513 643 458 q 807 966 805 964 q 826 974 814 972 l 827 974 q 945 961 912 961 q 970 960 960 961 q 1118 974 1024 960 q 1139 964 1131 974 l 1139 774 q 1112 764 1132 764 l 1095 764 q 1036 732 1053 764 q 1034 716 1034 722 l 1034 653 q 1067 539 1034 572 l 1067 536 q 1034 368 1034 503 l 1034 338 q 1070 294 1034 305 q 1125 288 1075 290 q 1139 279 1138 283 l 1139 75 q 1116 65 1132 65 q 951 75 1028 75 q 799 65 886 75 q 776 75 785 65 l 776 279 q 822 290 778 290 q 878 336 878 298 l 878 388 q 832 434 878 422 q 818 435 823 435 l 810 435 q 753 399 770 435 q 633 73 753 397 q 608 65 623 65 l 567 65 q 539 83 539 65 q 414 414 536 87 q 359 438 394 438 l 355 438 q 298 406 314 438 q 296 393 296 398 l 296 336 q 331 294 296 305 q 382 288 347 288 q 397 279 397 282 l 397 75 q 373 65 389 65 q 212 77 279 77 q 54 65 149 77 q 33 75 42 65 l 33 279 q 94 290 33 290 q 140 334 140 303 q 140 423 140 392 q 94 541 140 504 q 140 670 140 578 l 140 716 q 83 764 140 757 l 61 764 q 33 774 41 764 l 33 964 q 56 974 41 974 m 382 972 q 406 943 398 964 q 561 480 542 540 q 528 538 543 480 q 382 972 387 951 m 1153 970 q 1175 949 1164 970 q 1177 941 1177 945 l 1177 740 q 1134 701 1177 715 l 1086 697 q 1072 690 1072 694 q 1072 631 1072 640 q 1087 545 1072 572 l 1086 545 q 1048 667 1048 563 q 1049 722 1048 684 q 1093 747 1061 747 l 1109 747 q 1154 770 1146 747 l 1154 966 l 1153 970 m 14 964 l 15 964 l 15 774 q 52 747 15 753 l 77 747 q 119 721 111 747 q 121 712 121 718 l 121 697 q 102 580 121 602 q 96 569 97 570 l 96 571 q 106 659 106 597 q 105 680 105 665 l 105 690 q 46 701 105 701 q 0 740 0 714 l 0 941 q 14 964 0 952 m 784 964 l 785 964 l 785 962 q 627 492 638 523 q 620 486 622 486 l 620 488 q 777 955 757 899 q 784 964 783 964 m 1095 536 q 1112 526 1096 534 q 1118 513 1118 518 l 1118 509 q 1099 488 1118 498 q 1072 361 1072 458 l 1072 311 l 1072 309 q 1049 332 1049 319 l 1049 398 q 1090 536 1049 506 l 1095 536 m 65 534 q 121 418 121 512 q 121 336 121 395 q 105 313 121 321 l 105 315 q 107 388 107 362 q 71 486 107 463 q 40 511 40 494 q 65 534 40 528 m 355 420 l 361 420 q 406 382 397 420 q 528 61 521 73 q 563 47 543 47 l 608 47 q 648 68 637 47 q 772 401 759 368 q 809 417 787 417 l 817 417 q 857 395 845 417 q 859 384 859 388 l 859 340 q 844 313 859 321 l 843 313 l 843 361 q 820 370 843 367 l 816 370 q 787 350 791 370 q 764 292 768 295 q 757 275 757 288 l 757 77 q 774 52 757 60 q 798 47 785 47 q 954 58 886 58 q 1116 47 1019 58 q 1154 71 1144 47 l 1154 281 l 1153 286 l 1154 286 q 1177 253 1177 273 l 1177 41 q 1124 0 1177 11 l 1118 0 q 958 10 1013 10 q 802 0 901 10 l 800 0 q 745 31 763 0 q 742 44 742 35 l 742 227 l 741 227 q 665 23 672 35 q 612 0 645 0 l 567 0 q 501 56 513 0 q 436 231 437 224 l 435 231 l 435 44 q 378 0 435 8 l 375 0 q 218 12 267 12 q 61 0 158 12 l 58 0 q 2 31 20 0 q 0 41 0 38 l 0 257 q 14 279 0 267 l 15 279 l 15 75 q 45 48 15 56 q 56 47 51 47 q 210 59 146 59 q 373 47 272 59 q 412 73 412 53 l 412 279 l 411 286 l 412 286 q 415 285 414 285 q 384 367 387 362 q 359 373 373 373 q 334 365 342 373 l 334 311 l 334 309 q 311 332 311 318 l 311 395 q 355 420 319 420 z "},"N":{"ha":971,"x_min":0,"x_max":946,"o":"m 56 973 q 178 960 121 960 q 308 973 219 960 q 342 941 332 973 q 519 604 515 612 q 571 585 540 585 l 573 585 q 631 618 616 585 q 633 629 633 622 l 633 719 q 576 764 633 755 l 531 764 q 500 774 508 764 l 500 962 q 522 973 500 968 l 523 973 l 602 960 q 705 952 652 952 q 885 973 787 952 q 908 964 900 973 l 908 774 q 881 764 901 764 l 850 764 q 790 731 806 764 q 787 720 787 720 q 787 642 787 669 q 838 538 787 571 q 827 519 838 536 q 787 225 787 449 l 787 75 q 764 65 780 65 l 648 65 q 618 81 623 65 q 436 437 457 397 q 382 461 416 461 l 378 461 q 319 425 334 461 q 319 415 319 420 l 319 334 q 354 293 319 306 q 377 289 368 289 l 415 289 q 443 279 435 289 l 443 75 q 419 65 435 65 q 216 81 305 81 q 56 65 141 81 q 33 75 33 69 l 33 279 q 64 289 33 287 l 102 289 q 162 321 145 289 q 164 337 164 332 l 164 406 q 117 541 164 506 l 117 543 q 158 625 145 565 q 164 720 164 669 q 115 762 164 751 q 102 764 110 764 l 61 764 q 33 774 41 764 l 33 964 q 56 973 41 973 m 345 971 q 387 907 357 971 q 466 756 460 770 l 467 756 l 467 935 q 481 964 467 952 l 481 964 l 481 779 q 502 750 481 758 q 525 746 515 746 l 572 746 q 615 718 615 741 l 615 633 q 602 608 615 616 l 599 608 l 599 689 q 570 699 599 696 l 529 699 q 492 707 511 699 q 545 606 545 608 l 544 606 q 512 650 532 606 l 345 969 l 345 971 m 924 971 q 946 939 946 955 l 946 739 q 909 703 946 717 q 887 699 898 699 l 856 699 q 827 690 836 699 l 825 619 q 842 555 825 580 l 842 554 l 841 554 q 802 656 802 581 q 804 722 802 668 q 846 746 815 746 l 878 746 q 923 770 915 746 l 923 964 l 922 970 l 924 971 m 14 964 l 15 964 l 15 773 q 52 746 15 752 l 100 746 q 144 724 132 746 q 146 716 144 721 q 116 568 146 607 l 114 568 l 114 569 q 130 683 130 598 l 130 689 q 100 699 123 699 l 58 699 q 2 731 20 699 q 0 739 0 735 l 0 939 q 14 964 0 951 m 864 536 q 891 514 891 526 l 891 508 q 870 487 891 497 q 825 169 825 441 q 827 44 827 85 q 774 0 827 12 l 631 0 q 616 6 631 3 q 573 66 595 14 q 481 244 486 235 l 481 244 l 481 44 q 442 3 481 16 q 436 0 436 3 l 402 0 q 401 2 402 2 q 224 17 294 17 q 75 1 142 17 l 75 0 l 60 0 q 0 38 14 0 l 0 256 q 14 279 0 267 l 15 279 l 15 75 q 56 47 20 47 q 215 64 140 64 q 418 47 298 64 l 419 47 q 458 75 458 52 l 458 279 l 456 286 l 458 286 l 460 285 l 460 286 q 406 391 408 387 q 383 396 391 396 l 382 396 q 357 387 365 396 l 357 311 l 356 309 q 335 326 342 314 q 333 342 333 330 l 333 408 q 352 438 333 431 q 378 443 361 443 l 379 443 q 429 408 417 443 q 610 58 603 68 q 646 47 624 47 l 762 47 q 804 73 804 52 q 802 196 802 165 q 854 528 802 488 q 864 536 854 530 m 88 535 q 127 503 101 535 q 146 408 146 465 l 146 398 q 146 391 146 392 q 146 381 146 385 l 146 339 q 131 313 146 320 l 130 313 l 130 314 q 131 357 131 342 l 131 370 q 96 485 131 463 q 65 507 65 496 l 65 512 q 88 535 65 527 z "},"O":{"ha":814,"x_min":0,"x_max":800,"o":"m 385 989 l 422 989 q 690 899 636 989 q 707 815 707 861 q 706 733 706 755 q 749 537 706 576 q 706 300 706 491 q 707 214 707 245 q 619 82 707 132 q 405 47 550 47 l 399 47 q 139 118 201 47 q 98 216 98 160 l 98 314 q 48 539 98 492 l 48 541 q 90 635 80 576 q 98 762 98 683 l 98 817 q 216 968 98 932 q 385 989 289 989 m 683 932 l 684 932 q 745 797 745 880 l 745 694 q 769 544 745 583 l 769 543 l 768 543 q 736 589 749 553 q 722 720 722 636 l 722 822 q 683 932 722 888 m 94 895 l 94 892 q 79 817 79 861 l 79 763 q 43 564 79 606 l 43 566 q 65 747 65 610 q 64 781 64 772 q 94 895 64 852 m 258 652 q 281 547 258 570 l 286 542 l 286 541 q 257 446 257 511 q 273 323 257 332 q 310 294 278 308 q 367 285 338 285 l 438 285 q 546 376 546 285 l 546 424 q 519 535 546 500 q 530 555 519 537 q 546 645 546 586 l 546 673 q 505 753 546 734 q 435 766 473 766 l 370 766 q 271 726 292 766 q 258 652 258 703 m 370 748 l 431 748 q 521 711 505 748 q 527 668 527 690 l 527 652 q 505 551 527 572 l 505 551 q 513 635 513 576 q 494 689 513 682 q 433 700 469 700 l 380 700 q 307 680 319 700 q 297 641 297 664 l 297 596 q 308 545 297 569 l 307 545 q 274 628 274 566 l 274 668 q 304 736 274 719 q 370 748 330 748 m 315 536 q 339 513 339 523 q 340 507 339 509 q 323 488 340 496 q 297 440 304 488 q 296 411 296 425 q 302 319 296 319 q 303 316 303 317 l 301 316 q 274 380 274 331 q 273 444 273 408 q 300 530 273 511 q 315 536 310 536 m 774 535 l 775 535 q 797 519 795 523 l 800 511 l 800 505 q 781 485 800 494 q 753 413 760 458 q 745 281 745 359 l 745 180 q 653 27 745 90 q 420 -20 572 -20 l 391 -20 q 97 85 165 -20 q 64 186 64 130 q 65 240 65 220 q 26 481 65 452 q 6 494 25 484 q 0 507 0 500 l 0 511 q 20 533 0 523 l 21 533 q 54 496 35 533 q 79 302 79 439 l 79 212 q 168 71 79 127 q 386 28 245 28 l 416 28 q 694 125 633 28 q 722 211 722 165 l 722 327 q 767 531 722 492 q 774 535 769 531 m 493 532 l 494 532 q 527 418 527 509 l 527 380 q 509 323 527 340 l 509 326 q 513 364 513 342 l 513 365 q 482 490 513 481 q 473 509 473 498 q 493 532 473 522 z "},"P":{"ha":729,"x_min":0,"x_max":721,"o":"m 435 975 l 453 975 q 635 913 551 975 q 684 772 684 872 l 684 649 q 598 545 684 585 q 468 521 520 521 q 343 514 431 517 q 298 470 298 502 l 298 332 q 355 288 298 296 l 505 288 q 532 277 525 288 l 532 77 q 509 64 530 64 l 60 64 q 33 75 40 64 l 33 277 q 60 288 41 288 l 79 288 q 136 315 117 288 q 140 334 140 324 l 140 388 q 107 536 140 504 l 107 538 q 134 600 125 557 q 140 688 140 625 l 140 713 q 104 755 140 744 q 80 760 94 760 l 62 760 q 33 770 41 760 l 33 959 q 58 969 33 964 q 210 952 134 952 q 406 972 283 952 q 435 975 412 975 m 14 959 l 15 959 l 15 769 q 58 742 15 746 l 79 742 q 121 713 121 739 q 122 693 122 705 q 96 553 122 576 l 95 553 q 106 637 106 585 l 106 686 q 75 695 100 695 l 60 695 q 2 726 21 695 q 0 739 0 734 l 0 935 q 14 959 0 947 m 656 914 l 656 914 q 721 764 721 858 l 721 614 q 629 490 721 543 q 530 463 561 463 q 349 449 494 454 q 336 442 338 445 l 336 309 l 336 307 q 313 336 313 315 l 313 463 q 372 498 313 498 q 613 532 522 498 q 693 613 673 565 q 699 640 699 630 l 699 788 q 656 914 699 864 m 298 715 l 298 592 q 355 547 298 555 l 379 547 q 513 619 489 547 q 517 647 517 636 l 517 667 q 487 745 517 729 q 396 760 454 760 l 359 760 q 300 728 316 760 q 298 715 298 720 m 355 742 l 388 742 q 486 722 467 742 q 498 666 498 704 l 498 650 q 480 598 498 618 l 479 598 q 484 629 484 611 q 472 685 484 674 q 361 695 452 695 q 336 687 346 695 l 336 569 q 334 567 336 567 q 313 597 313 575 l 313 707 q 332 736 313 729 q 355 742 344 742 m 82 532 q 106 503 98 524 q 122 383 122 469 l 122 353 q 121 325 122 345 q 107 311 111 311 l 106 311 l 106 376 q 75 490 106 470 q 62 507 62 495 l 62 509 q 82 532 62 522 m 547 284 q 571 243 571 273 l 571 51 q 530 2 571 14 q 511 0 519 0 l 58 0 q 2 31 20 0 q 0 41 0 38 l 0 255 q 14 277 0 265 l 15 277 l 15 74 q 55 47 21 47 l 505 47 q 548 80 548 47 l 548 269 q 547 284 548 274 z "},"Q":{"ha":849,"x_min":0,"x_max":836,"o":"m 399 987 l 438 987 q 709 897 658 987 q 728 816 728 861 q 728 784 728 797 l 728 742 q 781 541 728 583 l 781 539 q 726 334 726 493 q 728 242 728 283 q 728 218 728 235 q 614 67 728 105 q 522 50 581 56 q 486 31 506 50 q 475 5 475 18 q 513 -41 475 -22 q 581 -50 537 -50 l 703 -50 q 728 -60 720 -50 l 728 -139 q 702 -150 721 -150 l 629 -150 q 388 -64 442 -150 q 371 14 371 -32 q 355 37 368 24 q 290 54 345 48 q 190 83 225 63 q 111 219 111 131 l 111 224 q 113 340 111 250 q 54 539 113 498 l 54 541 q 113 697 113 591 q 111 833 113 723 q 140 910 111 868 q 399 987 206 987 m 705 929 l 706 929 q 766 786 766 880 l 766 695 q 798 548 766 591 l 798 548 q 742 743 742 583 q 743 776 743 759 l 743 815 q 705 929 743 885 m 107 893 l 107 891 q 91 816 91 855 q 92 808 91 813 q 94 703 94 743 q 62 576 94 619 l 62 578 q 79 692 79 616 q 77 791 79 702 q 107 893 77 849 m 273 669 q 305 538 273 575 q 273 425 273 505 l 273 383 q 338 292 273 321 l 340 292 q 361 313 358 292 l 361 383 q 399 394 361 393 l 439 394 q 478 383 478 393 l 478 315 q 498 292 478 292 q 544 323 514 292 q 564 372 564 349 q 566 441 566 372 l 566 454 q 538 537 566 506 l 538 538 q 566 618 566 568 q 551 735 566 725 q 525 759 551 745 q 478 765 509 765 l 361 765 q 286 729 297 765 q 273 669 273 709 m 370 747 l 479 747 q 536 726 525 747 q 547 622 547 712 l 547 616 q 528 555 547 576 l 527 555 q 532 597 531 572 q 522 690 532 674 q 473 699 515 699 l 382 699 q 326 691 326 699 q 313 648 313 680 l 313 633 q 329 541 313 576 l 327 541 q 290 656 290 566 l 290 680 q 331 745 290 736 q 370 747 342 747 m 810 536 q 836 513 836 524 l 836 507 q 809 484 836 494 q 766 313 767 452 q 766 178 766 288 q 721 59 766 114 q 619 1 671 14 q 523 -18 590 -9 q 512 -22 516 -22 q 491 1 498 -17 l 491 7 q 563 37 491 32 q 665 71 626 48 q 743 210 743 121 q 742 336 742 289 q 792 526 742 489 q 810 536 804 535 m 332 535 l 333 535 q 354 522 335 532 q 358 507 358 514 q 336 484 358 494 q 312 385 312 465 q 318 326 312 338 q 322 319 322 322 q 288 396 288 339 l 288 404 q 319 526 288 507 q 332 535 321 529 m 23 534 q 66 497 49 524 q 94 345 94 452 q 92 237 92 254 q 91 229 92 235 q 254 41 91 76 q 330 29 288 35 q 353 -5 353 22 q 422 -125 353 -78 q 625 -168 496 -168 l 702 -168 q 743 -140 737 -168 l 743 -60 l 742 -52 l 743 -52 q 766 -87 766 -66 l 766 -169 q 711 -216 766 -207 l 621 -216 q 390 -150 467 -216 q 337 -24 337 -102 q 263 -9 337 -18 q 130 56 170 12 q 77 197 77 111 q 79 317 79 290 l 79 338 q 31 482 79 449 q 1 502 1 494 q 0 507 0 504 l 0 513 q 23 534 0 524 m 511 533 q 541 496 531 523 q 547 445 547 475 l 547 441 q 541 354 547 354 q 528 334 538 343 l 528 334 q 532 419 532 351 q 505 488 532 473 q 488 507 488 495 l 488 511 q 511 533 488 524 m 493 391 q 517 349 517 378 l 517 323 q 495 309 503 310 l 494 311 l 494 378 q 492 390 494 386 q 493 391 493 390 m 340 383 l 341 383 l 341 311 q 339 309 341 309 l 337 309 q 326 317 326 315 l 326 345 q 340 383 326 374 z "},"R":{"ha":882,"x_min":0,"x_max":869,"o":"m 459 975 l 478 975 q 681 869 620 975 q 700 785 700 828 l 700 671 q 669 586 700 600 q 584 552 646 570 q 555 526 555 549 l 555 525 q 597 478 555 490 q 669 457 644 472 q 699 383 699 439 q 700 366 700 383 l 700 360 q 698 329 700 351 q 745 288 698 301 q 764 288 756 288 l 806 288 q 832 277 825 288 l 832 75 q 806 64 825 64 l 640 64 q 517 95 543 64 q 503 154 503 117 l 503 371 q 486 460 503 439 q 360 514 450 514 l 359 514 q 300 481 314 514 q 298 469 298 477 l 298 334 q 331 292 298 304 q 362 288 345 288 l 403 288 q 428 277 420 288 l 428 75 q 402 64 420 64 l 60 64 q 33 75 41 64 l 33 277 q 60 288 41 288 l 73 288 q 138 321 124 288 q 140 334 140 330 l 140 409 q 105 537 140 503 l 105 538 q 140 663 140 570 l 140 711 q 66 760 140 760 l 57 760 q 33 770 41 760 l 33 958 q 56 968 41 968 q 208 955 149 955 l 225 955 q 429 972 307 955 q 459 975 439 975 m 14 959 l 14 959 l 14 770 q 54 743 20 743 l 66 743 q 122 708 122 743 l 122 663 q 97 557 122 583 l 97 559 q 107 637 107 588 q 106 687 106 682 q 49 696 100 696 q 0 739 0 708 l 0 936 q 14 959 0 946 m 663 920 l 665 920 q 739 747 739 857 l 739 659 q 694 529 739 550 q 609 492 667 510 l 608 492 q 570 517 582 492 l 570 529 q 620 545 573 532 q 699 591 677 564 q 715 701 715 613 l 715 759 q 687 888 715 846 q 663 920 673 909 m 298 714 l 298 593 q 352 548 298 555 q 366 547 352 547 l 436 547 q 488 572 483 547 q 494 673 490 587 q 474 745 494 731 q 381 760 455 760 l 372 760 q 299 724 309 760 q 298 714 298 718 m 370 743 q 469 723 463 743 q 476 671 474 709 q 467 570 471 570 q 457 564 463 566 q 456 566 457 566 q 460 642 460 619 l 460 646 q 450 688 460 688 q 406 694 450 692 l 358 694 q 336 686 344 694 l 336 568 l 335 566 q 313 589 313 576 l 313 718 q 333 737 313 728 q 370 743 342 743 m 77 532 q 107 502 89 532 q 122 401 122 467 l 122 342 q 109 313 122 317 q 107 311 109 311 q 106 313 107 313 q 107 368 107 352 q 74 488 107 474 q 55 509 55 493 q 77 532 55 523 m 357 496 q 475 441 446 496 q 483 399 483 422 l 483 191 q 508 76 483 92 q 644 47 541 47 l 806 47 q 846 71 839 47 l 846 279 l 846 284 l 846 284 q 869 251 869 272 l 869 41 q 817 0 869 11 l 635 0 q 485 52 513 0 q 469 136 469 81 l 469 368 q 358 450 469 450 q 336 441 347 450 l 336 309 l 335 307 q 313 330 313 317 l 313 472 q 357 496 321 496 m 698 452 l 699 452 q 739 330 739 427 q 737 309 737 315 q 735 307 735 309 q 714 323 721 313 l 713 329 q 715 361 713 336 q 698 452 715 419 m 441 284 l 443 284 q 465 249 465 272 l 465 43 q 409 0 465 8 l 57 0 q 2 31 20 0 q 0 41 0 38 l 0 255 q 14 278 0 264 l 14 278 l 14 74 q 55 47 21 47 l 402 47 q 443 68 431 47 l 443 279 l 441 284 z "},"S":{"ha":678,"x_min":0,"x_max":640,"o":"m 251 980 l 284 980 q 429 964 375 980 l 432 964 q 454 977 439 964 q 470 980 461 980 l 579 980 q 602 971 594 980 l 602 682 q 575 671 595 671 l 475 671 q 448 690 448 671 q 422 753 448 734 q 370 764 400 764 l 264 764 q 190 722 203 764 q 186 692 186 707 l 186 625 q 215 561 186 576 q 264 551 240 551 l 272 551 q 350 573 318 551 q 420 553 397 553 q 505 545 444 549 q 602 450 602 527 l 602 197 q 454 68 602 98 q 380 62 424 62 l 372 62 q 207 83 267 62 l 203 83 q 184 68 193 83 q 163 62 174 62 l 59 62 q 33 72 41 62 l 33 395 q 77 405 37 405 l 144 405 q 186 395 180 405 l 186 359 q 224 298 186 309 q 262 293 245 293 l 374 293 q 444 323 429 293 q 448 359 448 338 l 448 451 q 425 508 448 495 q 397 515 410 515 q 351 500 373 515 q 286 519 327 519 l 178 519 q 52 578 82 519 q 33 645 33 608 l 33 821 q 96 940 33 897 q 251 980 156 980 m 616 977 q 637 956 626 977 q 640 947 640 951 l 640 647 q 593 608 640 621 q 581 606 585 606 l 475 606 q 419 633 438 606 q 410 686 416 637 q 366 699 410 699 l 273 699 q 225 677 225 699 q 224 651 224 660 l 224 606 q 227 574 224 589 q 227 573 227 574 q 210 587 214 578 q 201 631 201 600 l 201 688 q 218 735 201 725 q 264 745 233 745 l 368 745 q 421 727 412 745 q 430 675 428 709 q 471 653 441 653 l 575 653 q 616 677 608 653 l 616 972 l 616 977 m 26 889 l 28 889 l 28 888 q 14 821 14 862 l 14 639 q 62 535 14 584 q 172 502 103 502 l 284 502 q 349 477 325 502 l 351 477 q 395 498 370 498 l 397 498 q 428 469 428 492 q 430 448 430 469 l 430 359 q 416 318 430 326 l 414 318 q 415 336 415 330 l 415 406 q 405 450 415 450 q 401 451 401 451 q 362 430 381 451 l 355 429 l 353 429 q 325 447 345 429 q 273 455 315 455 l 174 455 q 5 573 41 455 q 0 606 0 590 l 0 803 q 26 889 0 847 m 597 515 l 598 515 q 640 432 640 480 l 640 158 q 519 18 640 68 q 390 -3 459 -3 l 358 -3 q 214 15 271 -3 q 163 -3 193 -3 l 57 -3 q 2 28 20 -3 q 0 38 0 35 l 0 371 q 14 395 0 382 l 14 395 l 14 71 q 55 44 20 44 l 159 44 q 202 64 189 44 l 203 64 q 372 44 260 44 l 385 44 q 598 127 531 44 q 616 189 616 158 l 616 457 q 597 514 616 490 l 597 515 m 200 401 l 202 401 q 224 367 224 388 l 224 341 q 227 316 224 325 q 225 315 225 316 q 202 349 202 323 q 201 361 201 353 l 201 394 l 200 401 z "},"T":{"ha":764,"x_min":0,"x_max":745,"o":"m 470 974 l 486 974 q 671 962 503 974 l 683 962 q 708 952 700 962 l 708 628 q 682 618 701 618 l 578 618 q 551 627 559 618 l 551 665 q 537 742 551 734 q 480 754 522 754 l 466 754 q 447 722 447 754 q 446 661 447 682 q 481 532 446 567 l 481 530 q 447 387 447 496 q 448 325 447 367 q 490 288 448 301 q 509 286 501 286 l 537 286 q 566 275 560 286 l 566 73 q 543 64 557 64 q 368 82 451 82 q 197 64 292 82 q 175 73 184 64 l 175 275 q 201 286 182 286 l 232 286 q 292 320 276 286 q 294 376 294 337 l 294 393 q 254 534 294 500 q 294 678 294 568 l 294 694 q 288 749 294 749 q 275 754 282 754 l 248 754 q 191 706 191 754 q 189 676 189 697 l 189 627 q 163 618 182 618 l 59 618 q 33 628 41 618 l 33 952 q 57 962 41 962 q 222 940 141 940 q 404 968 308 940 q 470 974 431 974 m 722 960 l 722 960 q 745 926 745 947 l 745 594 q 699 555 745 567 q 688 553 693 553 l 578 553 q 521 585 537 553 q 517 598 517 590 l 517 665 q 511 687 517 687 q 486 690 503 689 q 484 634 484 652 q 500 538 484 570 q 472 575 482 547 q 462 667 462 607 q 463 736 463 728 l 465 737 l 475 737 q 527 726 520 737 q 532 698 532 712 l 532 633 q 549 606 532 612 q 573 600 562 600 l 682 600 q 722 622 711 600 l 722 954 l 722 960 m 14 952 l 14 952 l 14 627 q 53 600 14 606 l 163 600 q 204 622 194 600 q 205 630 205 626 l 205 693 q 220 732 205 732 q 248 737 231 737 l 272 737 l 274 736 q 275 682 275 699 q 248 555 275 584 l 248 558 q 261 659 261 589 q 259 690 260 690 q 229 686 239 690 q 228 659 228 667 l 228 598 q 176 553 228 565 l 57 553 q 1 587 19 553 l 0 594 l 0 930 q 14 952 0 940 m 509 529 q 533 514 533 519 q 536 503 536 510 q 511 479 536 490 q 486 368 486 453 l 486 353 q 484 349 486 351 q 486 345 486 347 l 486 307 l 484 307 q 463 329 463 314 l 463 401 q 501 526 463 498 q 509 529 507 529 m 226 528 q 262 490 246 522 q 275 396 275 455 l 275 384 q 274 326 275 363 q 261 309 274 319 l 260 311 q 261 370 260 329 q 231 478 261 455 q 204 492 205 490 q 200 505 201 498 q 226 528 200 522 m 581 283 l 582 283 q 604 244 604 269 l 604 47 q 563 2 604 14 q 547 0 553 0 l 543 0 q 387 16 449 16 l 357 16 q 203 0 296 16 l 197 0 q 144 30 163 0 q 141 47 141 40 l 141 241 q 155 276 141 266 l 156 274 l 156 71 q 197 47 163 47 q 368 64 291 64 q 541 47 442 64 l 543 47 q 582 71 582 54 l 582 270 l 581 283 z "},"U":{"ha":844,"x_min":0,"x_max":833,"o":"m 56 969 q 191 958 137 958 l 222 958 q 361 969 267 958 q 383 958 376 969 l 383 772 q 334 760 383 763 q 298 735 298 747 q 294 715 294 730 q 292 662 294 688 q 328 545 292 579 q 292 447 292 513 q 302 304 292 316 q 347 276 316 276 q 420 273 357 273 l 460 273 q 533 312 519 273 q 536 363 536 328 l 536 429 q 503 543 536 513 q 536 673 536 580 l 536 717 q 481 762 536 753 q 446 772 451 762 l 446 958 q 467 969 446 964 l 469 969 q 621 952 561 952 q 774 969 683 952 q 796 960 788 969 l 796 772 q 770 762 789 762 l 754 762 q 693 727 708 762 l 692 715 l 692 667 q 731 540 692 572 q 701 458 706 507 q 692 287 692 414 l 692 235 q 572 65 692 109 q 425 42 509 42 l 404 42 q 165 132 229 42 q 138 233 138 175 l 138 265 q 111 513 138 469 q 95 539 107 524 l 95 541 q 131 610 123 570 q 138 717 138 649 q 83 762 138 753 l 60 762 q 33 772 41 762 l 33 960 q 56 969 41 969 m 397 966 l 399 966 q 416 947 414 956 q 427 960 425 960 l 427 960 l 427 777 q 482 744 427 744 q 517 711 517 739 l 517 683 q 492 559 517 585 l 490 559 q 503 664 503 591 q 502 685 502 669 l 502 689 q 458 699 500 698 q 417 725 429 707 l 417 727 l 416 727 q 389 703 413 715 q 339 695 376 699 l 332 690 q 330 646 330 663 l 330 636 q 347 549 330 576 l 346 549 q 308 664 308 572 l 308 697 q 315 730 308 730 q 368 746 326 746 q 397 772 397 753 l 397 960 l 397 966 m 810 966 q 831 944 820 966 q 833 936 833 940 l 833 739 q 780 698 833 709 q 730 689 730 698 l 730 660 q 729 642 730 649 q 747 549 729 579 l 746 549 q 713 599 723 564 q 707 674 707 633 q 707 721 707 701 q 753 745 718 745 l 770 745 q 810 768 802 745 l 810 960 l 810 966 m 14 960 l 14 960 l 14 772 q 56 745 14 749 l 73 745 q 119 717 112 745 l 119 711 q 91 564 119 589 l 91 566 q 103 648 103 599 l 103 689 q 57 698 101 698 q 4 724 27 698 q 0 739 0 734 l 0 936 q 14 960 0 947 m 357 539 q 382 514 382 527 l 382 513 q 356 490 382 496 q 330 419 330 475 l 330 393 q 336 294 330 306 l 334 293 q 309 355 309 303 q 307 437 308 392 q 346 536 307 517 q 357 539 354 539 m 757 538 l 758 538 q 783 511 783 529 q 760 488 783 500 q 730 289 730 450 l 730 214 q 576 -1 730 50 q 436 -22 507 -22 l 397 -22 q 120 117 177 -18 q 103 214 103 159 l 103 273 q 71 488 103 450 q 47 511 47 499 l 47 516 q 69 536 47 527 q 100 492 86 528 q 119 258 119 444 l 119 227 q 239 52 119 105 q 403 25 313 25 l 420 25 q 683 132 621 25 q 707 243 707 176 l 707 330 q 748 534 707 497 q 757 538 755 538 m 477 537 q 507 502 496 528 q 517 431 517 477 l 517 389 q 509 304 517 309 q 502 302 507 302 q 503 404 502 331 q 471 494 503 479 q 456 509 458 496 l 456 516 q 477 537 456 527 z "},"V":{"ha":840,"x_min":0,"x_max":823,"o":"m 56 974 q 203 961 146 961 q 352 974 256 961 l 353 974 q 374 963 366 974 l 374 774 q 328 764 372 764 q 279 740 301 764 q 273 720 273 728 q 352 448 275 706 q 411 417 370 417 l 412 417 q 471 448 454 417 q 546 720 546 711 l 546 721 q 482 764 538 764 q 444 774 449 764 l 444 963 q 467 974 451 974 q 615 963 562 963 q 764 974 666 963 q 785 964 777 974 l 785 766 q 783 764 785 764 l 763 764 q 702 732 718 764 q 667 607 667 642 l 667 600 q 682 550 667 572 q 642 517 659 538 q 587 406 610 479 q 564 334 564 343 l 564 333 q 610 290 564 302 q 648 279 648 288 l 648 77 q 623 65 644 65 q 404 85 505 85 q 194 65 304 85 q 171 75 180 65 l 171 279 q 219 292 171 288 q 254 333 254 307 l 254 334 q 213 450 254 351 q 125 544 176 522 l 125 546 q 144 602 144 570 l 144 607 q 107 755 144 661 q 88 764 102 764 l 61 764 q 33 774 41 764 l 33 964 q 56 974 41 974 m 388 970 l 390 970 q 411 942 411 956 l 412 942 q 425 964 412 953 l 425 964 l 425 778 q 482 746 425 746 q 527 718 527 742 q 450 448 455 456 q 442 444 448 444 q 511 690 511 687 q 457 700 511 699 q 412 738 412 715 l 411 738 q 376 703 411 718 q 325 698 360 698 q 311 690 312 693 q 386 438 382 452 q 356 488 366 438 q 288 718 296 687 l 288 719 q 329 746 288 740 q 387 765 380 746 q 389 773 389 769 l 389 965 l 388 970 m 798 970 q 821 948 809 970 q 823 940 823 945 l 823 715 q 804 699 817 699 l 768 699 q 736 681 736 699 q 704 574 704 604 q 711 544 704 561 q 681 603 681 564 q 719 729 681 640 q 761 746 733 746 l 800 746 l 800 965 l 798 970 m 14 964 l 15 964 l 15 773 q 52 746 15 753 l 89 746 q 111 682 94 740 q 125 607 125 639 l 125 598 q 108 554 125 572 l 108 555 q 110 577 110 571 q 81 699 110 617 l 59 699 q 2 732 20 699 q 0 740 0 735 l 0 940 q 14 964 0 952 m 717 540 q 736 519 736 523 l 738 511 q 707 490 738 493 q 659 448 678 479 q 610 326 635 408 l 603 308 q 578 333 578 318 q 658 511 625 481 q 717 540 685 540 m 98 536 q 177 471 146 519 q 219 385 197 443 q 236 331 236 338 q 218 312 236 319 q 144 459 182 422 q 82 494 118 485 q 71 511 71 501 q 98 536 71 528 m 663 286 q 686 248 686 273 l 686 52 q 658 7 686 19 q 625 0 643 0 l 625 0 q 444 19 496 19 q 410 20 416 19 q 199 0 315 20 l 194 0 q 138 33 157 0 q 136 52 136 43 l 136 248 q 151 280 136 268 l 152 277 l 152 71 q 193 47 160 47 q 402 67 305 67 q 621 47 500 67 l 623 47 q 663 75 663 52 l 663 271 q 663 286 663 275 z "},"W":{"ha":1326,"x_min":0,"x_max":1305,"o":"m 56 970 q 195 956 136 956 l 195 956 q 356 970 269 956 l 357 970 q 378 961 370 970 l 378 764 q 376 762 378 762 l 354 762 q 292 724 304 762 l 292 718 q 319 619 292 707 q 406 340 402 351 q 425 332 413 332 q 450 371 443 332 q 562 718 553 684 q 518 760 562 747 q 474 767 475 763 q 468 772 470 768 l 468 960 q 492 970 475 970 q 634 961 579 961 l 665 961 q 812 970 715 961 q 833 960 825 970 l 833 772 q 779 760 833 762 q 739 718 739 745 q 850 369 745 691 q 876 332 858 332 l 878 332 q 903 371 897 332 q 1017 741 1017 734 l 1017 744 q 999 762 1017 759 l 951 762 q 922 771 930 762 l 922 961 q 945 970 929 970 q 1095 964 1030 964 q 1246 970 1146 964 q 1267 961 1259 970 l 1267 772 q 1218 760 1267 762 q 1179 740 1197 758 q 1149 648 1166 713 q 1144 604 1144 623 l 1144 599 q 1160 545 1144 565 l 1160 542 q 1115 495 1133 522 q 1055 356 1090 463 q 1050 333 1050 340 l 1050 329 q 1092 290 1050 304 q 1139 278 1139 287 l 1139 74 q 1117 65 1130 65 q 956 71 1005 71 q 812 65 906 71 q 789 83 789 67 l 669 494 q 656 503 663 503 l 644 503 q 624 469 629 503 q 510 74 622 465 q 487 65 500 65 q 325 73 395 73 q 183 65 271 73 q 162 74 171 65 l 162 278 q 211 290 162 288 q 251 329 251 306 l 251 333 q 211 456 251 349 q 160 530 190 500 q 143 542 158 530 q 159 593 159 565 q 124 736 159 640 q 56 762 109 762 q 33 772 43 762 l 33 961 q 56 970 41 970 m 393 967 l 395 967 q 417 933 417 954 l 417 717 q 397 696 414 696 l 361 696 q 329 688 338 696 q 425 376 420 396 l 426 376 l 528 688 q 481 698 518 698 q 435 741 435 711 l 435 933 q 448 961 435 950 l 449 961 l 449 774 q 469 748 449 755 q 512 743 485 743 q 542 719 542 733 l 542 715 q 424 349 532 679 l 420 349 q 361 537 418 349 q 306 718 306 710 q 328 740 306 730 q 352 744 336 744 l 394 744 l 394 960 l 393 967 m 846 967 q 869 945 856 967 l 870 934 l 870 741 q 816 696 870 707 q 777 688 781 696 q 878 376 789 653 l 880 376 l 978 696 l 949 696 q 889 733 903 696 q 888 744 888 739 l 888 930 q 901 960 888 951 l 903 960 l 903 777 q 928 746 903 753 q 945 744 941 744 l 997 744 q 999 741 999 744 q 876 348 883 363 l 876 348 q 863 380 871 348 q 754 715 754 711 l 754 717 q 800 744 754 740 q 847 769 841 744 l 847 962 l 846 967 m 1281 967 q 1303 945 1291 967 q 1305 937 1305 941 l 1305 738 q 1259 698 1305 711 q 1206 680 1206 698 q 1181 568 1181 604 q 1187 543 1181 559 l 1185 543 q 1158 601 1158 558 q 1189 726 1158 639 q 1253 745 1200 745 q 1282 768 1282 754 l 1282 962 l 1281 967 m 14 961 l 15 961 l 15 771 q 52 744 15 750 q 111 717 108 744 q 139 597 139 636 l 139 589 q 123 549 139 562 q 124 564 124 559 q 94 690 124 606 q 41 699 94 696 q 0 738 0 714 l 0 937 q 14 961 0 949 m 1192 536 q 1217 516 1215 525 l 1217 509 q 1193 488 1217 492 q 1127 412 1159 475 q 1090 308 1090 319 l 1088 308 q 1065 333 1065 316 q 1125 483 1095 436 q 1190 536 1154 525 l 1192 536 m 116 534 q 193 447 162 516 q 232 332 213 401 l 232 330 q 215 311 232 321 q 161 446 188 406 q 106 490 140 479 q 92 507 92 496 l 92 513 q 116 534 92 525 m 652 485 q 665 444 654 485 q 775 62 772 71 q 812 47 790 47 q 956 54 885 52 q 1117 47 1020 52 q 1154 67 1139 47 l 1154 79 l 1154 273 l 1154 286 q 1177 247 1177 273 l 1177 46 q 1125 0 1177 11 l 1119 0 q 970 5 1019 5 l 943 5 q 815 0 901 5 q 758 35 770 3 q 653 404 653 401 l 652 404 q 542 25 547 34 q 486 0 523 0 q 335 8 415 6 q 185 0 288 8 q 134 25 154 0 q 127 46 127 35 l 127 243 q 142 279 127 269 l 143 277 l 143 71 q 184 47 151 47 q 323 56 270 56 q 486 47 388 56 q 528 81 521 47 q 644 485 642 482 l 652 485 z "},"X":{"ha":900,"x_min":0,"x_max":880,"o":"m 56 972 q 206 966 142 966 q 380 972 259 966 q 401 962 393 972 l 401 772 q 372 762 393 762 l 317 762 q 298 743 302 762 q 334 699 298 730 q 414 630 396 631 q 432 627 422 627 l 445 627 q 514 669 479 627 q 580 739 580 732 l 580 745 q 561 763 580 760 l 505 763 q 475 773 482 763 l 475 962 q 498 972 482 972 q 651 964 596 964 l 667 964 q 821 972 730 964 q 842 962 834 972 l 842 773 q 815 763 835 763 l 792 763 q 729 734 753 763 q 569 578 583 594 q 566 563 566 569 q 578 536 566 553 q 566 509 566 522 l 566 507 q 617 439 566 483 q 764 296 758 296 q 827 288 781 288 q 842 278 841 283 l 842 75 q 818 65 835 65 q 674 71 736 71 l 650 71 q 498 65 585 71 q 475 75 484 65 l 475 278 q 500 289 484 289 l 562 289 q 587 311 587 289 q 532 372 587 319 q 466 431 479 431 q 437 435 452 435 q 365 393 397 435 q 291 315 291 319 q 289 307 290 307 q 309 289 289 293 l 372 289 q 401 278 393 289 l 401 75 q 376 65 393 65 q 203 73 277 73 q 54 65 150 73 q 33 75 42 65 l 33 278 q 93 290 33 290 q 139 320 119 296 q 294 477 294 473 q 299 498 299 490 l 299 505 q 288 532 299 518 l 288 534 q 310 562 310 545 l 310 564 q 274 611 310 583 q 121 754 127 754 q 83 763 105 763 l 60 763 q 33 773 41 763 l 33 962 q 56 972 41 972 m 414 969 l 416 969 q 438 935 438 956 l 438 741 q 378 697 438 705 l 360 697 l 405 652 l 404 652 q 314 741 401 652 l 314 742 q 316 744 314 744 l 368 744 q 415 768 408 744 l 415 964 l 414 969 m 856 969 q 878 947 866 969 q 880 939 880 943 l 880 739 q 844 702 880 715 q 821 698 832 698 l 800 698 q 752 674 768 698 l 611 540 q 582 562 582 547 l 582 565 q 618 604 582 572 q 764 741 756 739 q 793 745 779 745 l 812 745 q 857 769 849 745 l 857 964 l 856 969 m 14 962 l 15 962 l 15 772 q 52 745 15 751 l 77 745 q 132 721 114 745 q 290 568 286 574 q 291 564 291 566 l 291 563 q 264 544 291 551 q 112 690 239 568 q 81 698 104 698 l 58 698 q 2 730 20 698 q 0 739 0 734 l 0 939 q 14 962 0 951 m 455 962 l 456 962 l 456 777 q 479 748 456 755 q 499 745 492 745 l 559 745 q 561 743 561 745 l 561 742 q 517 698 560 740 l 500 698 q 444 730 462 698 q 441 743 441 738 l 441 932 q 455 962 441 951 m 608 534 q 636 507 636 528 q 607 482 636 494 l 604 478 q 764 316 605 475 l 763 316 q 586 493 586 490 q 581 509 581 501 q 606 534 581 521 l 608 534 m 260 532 q 280 503 280 517 l 280 497 q 267 473 280 486 l 266 473 q 239 494 266 482 q 231 509 232 501 q 260 532 231 530 m 437 418 q 494 384 469 418 q 568 308 529 349 q 566 306 568 306 l 521 306 q 458 368 461 368 q 441 370 445 370 q 399 345 418 370 q 359 304 399 345 l 308 304 q 304 308 306 304 q 407 410 403 410 q 437 418 420 418 m 414 286 l 415 286 q 438 251 438 272 l 438 184 q 441 158 438 170 q 438 156 438 157 l 438 46 q 383 0 438 9 l 380 0 q 218 8 294 6 q 58 0 163 8 q 2 31 20 0 q 0 41 0 38 l 0 256 q 14 278 0 267 l 15 278 l 15 75 q 45 48 15 56 q 54 47 51 47 q 202 56 149 56 q 378 47 267 56 q 415 75 415 53 l 415 278 l 414 286 m 856 286 l 857 286 q 880 252 880 272 l 880 41 q 827 0 880 11 l 821 0 q 659 6 726 6 q 499 0 606 6 q 445 29 465 0 q 441 46 441 37 l 441 248 q 455 278 441 267 l 456 278 l 456 79 q 492 47 456 52 l 496 47 q 650 54 586 54 l 671 54 q 819 47 729 54 q 857 69 845 47 l 857 280 l 856 286 z "},"Y":{"ha":882,"x_min":0,"x_max":860,"o":"m 57 975 q 218 967 153 967 l 220 967 q 375 975 280 967 q 398 965 391 975 l 398 776 q 358 764 393 766 q 347 747 347 758 l 347 743 q 385 675 347 736 q 437 657 406 657 q 503 699 479 657 q 532 745 532 736 l 532 749 q 513 766 532 762 l 488 766 q 458 776 465 766 l 458 965 q 481 975 465 975 q 645 965 589 965 q 801 975 703 965 q 822 966 814 975 l 822 776 q 787 766 822 767 q 720 726 746 766 q 610 565 610 610 l 612 551 q 517 489 547 532 q 505 456 505 479 l 505 336 q 563 290 505 297 l 589 290 q 619 279 612 290 l 619 75 q 595 65 611 65 q 421 79 500 79 q 255 65 349 79 q 232 75 240 65 l 232 279 q 262 290 239 290 l 285 290 q 343 320 326 290 q 347 336 347 330 l 347 454 q 331 494 347 481 q 273 543 303 530 l 243 553 l 245 555 l 245 566 q 111 754 245 613 q 48 766 92 766 q 34 776 36 771 l 34 966 q 57 975 41 975 m 412 972 q 429 956 420 972 l 431 956 q 438 966 431 960 l 439 966 l 439 780 q 459 752 439 759 q 482 747 473 747 l 511 747 q 513 745 513 747 l 513 745 q 480 701 484 703 q 431 724 454 701 l 431 726 l 429 726 q 395 703 429 715 q 408 680 408 681 l 406 680 q 366 738 395 680 q 361 745 365 738 l 361 745 q 363 747 361 747 l 368 747 q 412 774 412 751 l 412 967 l 412 972 m 836 972 q 858 950 846 972 q 860 942 860 946 l 860 741 q 823 705 860 718 q 775 699 815 701 q 730 651 764 694 q 649 536 651 566 l 649 534 q 669 515 669 528 l 669 511 q 638 489 669 492 q 565 458 589 479 q 544 433 544 435 l 544 312 l 543 310 q 521 333 521 319 l 521 463 q 569 515 524 483 q 646 540 597 531 l 646 542 q 626 562 626 547 l 626 567 q 733 717 626 600 q 785 747 755 747 q 836 766 825 747 l 837 772 l 837 967 l 836 972 m 14 966 l 15 966 l 15 775 q 59 747 15 751 q 113 724 99 747 q 226 564 226 602 l 226 561 q 212 543 226 549 l 212 540 q 285 515 252 536 q 328 458 328 477 l 328 340 q 313 314 328 321 l 312 314 l 312 433 q 245 486 286 473 q 203 496 211 494 q 197 515 197 506 q 211 532 197 526 l 211 534 q 102 684 211 564 q 62 701 94 701 q 0 738 14 701 l 0 942 q 14 966 0 954 m 634 287 q 657 255 657 272 l 657 44 q 622 4 657 17 q 600 0 610 0 l 596 0 q 427 14 488 14 q 260 0 359 14 l 256 0 q 199 34 218 0 l 199 41 l 199 255 q 212 279 199 268 l 213 279 l 213 75 q 254 47 219 47 q 420 61 350 61 q 595 47 492 61 q 634 73 634 52 l 634 283 l 633 286 q 634 287 634 286 z "},"Z":{"ha":655,"x_min":0,"x_max":630,"o":"m 171 973 l 191 973 q 298 958 205 973 q 395 952 344 952 l 407 952 q 570 969 482 952 q 593 958 593 965 l 593 754 q 473 624 521 677 q 424 522 424 560 q 425 510 425 517 l 425 509 l 424 509 q 344 469 389 509 q 273 374 309 431 q 252 336 252 353 q 302 292 252 302 q 318 291 307 291 l 342 291 q 430 326 417 291 q 437 372 437 339 l 437 448 q 461 458 445 458 l 569 458 q 593 448 585 458 l 593 80 q 566 69 585 69 l 432 64 q 315 80 404 64 q 208 86 264 86 q 58 69 133 86 q 33 80 41 69 l 33 298 q 165 471 144 424 q 179 526 179 500 q 176 544 179 533 l 205 553 q 310 626 245 562 l 365 692 q 374 717 374 705 q 324 761 374 751 q 304 762 315 762 l 275 762 q 202 747 214 762 q 189 705 189 731 l 189 654 q 163 644 181 644 l 57 644 q 33 654 41 644 l 33 958 q 55 969 41 969 l 171 973 m 606 966 l 608 966 q 630 932 630 952 l 630 721 q 589 667 630 706 l 517 589 q 462 495 462 522 q 471 477 462 485 l 471 475 q 418 444 418 475 l 418 369 q 404 321 418 332 l 402 321 q 404 353 404 334 l 404 420 q 410 438 404 431 l 410 439 q 310 332 372 431 q 292 311 294 311 l 291 311 q 267 336 267 319 q 298 382 267 341 q 367 467 330 435 q 433 492 399 492 l 451 492 l 451 494 q 439 522 439 506 l 439 524 q 579 714 439 575 q 606 747 606 745 q 607 751 607 749 l 607 960 l 606 966 m 14 960 l 14 960 l 14 653 q 55 626 20 626 l 163 626 q 203 653 197 626 l 203 697 q 218 739 203 732 q 283 744 236 744 l 298 744 q 355 715 355 744 q 339 690 355 708 q 318 696 329 696 l 258 696 q 228 688 228 696 q 226 663 226 679 l 226 625 q 169 579 226 586 q 148 578 163 578 l 77 578 q 0 616 10 578 l 0 937 q 14 960 0 947 m 153 549 q 161 522 161 539 q 134 454 161 495 l 134 456 q 145 491 145 478 l 145 498 q 133 522 145 507 l 132 528 q 153 549 136 549 m 606 455 l 608 455 q 630 422 630 442 l 630 45 q 587 7 630 21 q 448 0 587 5 l 435 0 q 313 16 398 0 q 210 22 256 22 q 60 5 150 22 l 58 5 q 2 37 20 5 q 0 45 0 41 l 0 271 q 14 298 0 287 l 14 298 l 14 79 q 56 52 14 56 q 208 68 136 68 q 403 47 291 68 q 437 47 420 47 q 589 56 589 52 q 607 76 607 66 l 607 450 l 606 455 z "},"[":{"ha":514,"x_min":0,"x_max":0,"o":""},"\\":{"ha":386,"x_min":0,"x_max":0,"o":""},"]":{"ha":514,"x_min":0,"x_max":0,"o":""},"^":{"ha":688,"x_min":0,"x_max":0,"o":""},"_":{"ha":694,"x_min":0,"x_max":0,"o":""},"`":{"ha":694,"x_min":0,"x_max":0,"o":""},"a":{"ha":919,"x_min":0,"x_max":905,"o":"m 237 971 q 444 954 349 954 l 455 954 q 666 971 549 954 l 667 971 q 689 962 681 971 l 689 772 q 665 762 682 762 l 635 762 q 610 741 610 762 q 683 569 656 602 q 725 532 701 547 l 725 532 q 715 492 715 516 l 715 491 q 766 312 715 436 q 825 288 786 288 l 842 288 q 868 278 861 288 l 868 75 q 844 64 859 64 q 703 75 770 75 l 696 75 q 532 64 627 75 q 509 75 518 64 l 509 278 q 563 290 511 288 q 604 332 604 304 l 604 334 q 573 423 604 342 q 549 456 566 446 q 509 466 530 466 l 393 466 q 329 422 343 466 q 298 332 298 342 q 346 290 298 300 q 391 279 386 290 l 391 74 q 366 64 382 64 q 199 78 281 78 l 197 78 q 56 64 136 78 q 33 75 43 64 l 33 278 q 60 288 41 288 l 76 288 q 138 319 122 288 q 190 491 190 442 q 178 534 190 514 l 178 536 q 245 621 227 574 q 294 741 262 651 q 269 762 294 762 l 238 762 q 214 772 221 762 l 214 962 q 237 971 222 971 m 704 968 l 705 968 q 728 924 728 956 l 728 752 q 696 703 728 715 q 656 696 677 696 q 709 568 691 593 q 718 557 710 568 l 718 557 q 650 671 684 577 l 625 743 l 629 745 l 664 745 q 704 768 704 750 l 704 968 m 194 962 l 195 962 l 195 770 q 238 745 195 748 l 271 745 q 273 743 273 744 l 273 741 q 215 605 241 642 l 215 607 q 252 696 234 644 l 251 696 q 180 752 180 696 l 180 921 q 194 962 180 953 m 374 543 q 418 500 374 512 q 435 498 426 498 l 470 498 q 528 530 512 498 q 530 541 530 534 l 530 544 q 493 668 530 554 q 453 718 474 718 q 404 642 426 718 q 374 543 391 604 m 449 700 l 450 700 q 509 553 469 700 q 511 543 511 550 l 511 539 q 497 521 511 531 l 494 521 q 455 641 473 596 l 454 641 q 414 518 437 595 l 414 518 q 389 542 389 526 q 443 694 420 656 l 449 700 m 749 534 q 776 511 776 526 l 776 509 q 759 488 776 496 q 753 465 755 480 q 795 310 753 423 q 766 357 779 310 q 730 489 730 448 q 749 534 730 522 m 151 532 q 172 487 172 521 q 118 321 172 445 l 113 317 l 113 319 q 155 460 155 422 l 155 464 q 135 493 155 487 q 126 507 126 500 l 126 511 q 151 532 126 527 m 393 448 l 507 448 q 555 416 547 448 q 585 333 585 337 l 585 330 q 567 311 585 318 q 534 395 541 387 q 505 401 526 401 l 402 401 q 369 389 373 401 q 336 308 339 310 l 335 308 q 313 327 319 314 l 313 335 q 354 435 347 429 q 393 448 368 448 m 405 285 l 406 285 q 429 250 429 272 l 429 45 q 377 0 429 11 l 368 0 q 210 14 266 14 q 62 0 145 14 l 58 0 q 1 33 19 0 l 0 41 l 0 256 q 14 279 0 265 l 15 279 l 15 74 q 56 47 21 47 q 196 60 136 60 q 366 47 273 60 q 406 73 406 53 l 406 278 l 405 285 m 882 285 l 884 285 q 905 252 905 271 l 905 41 q 870 4 905 18 q 849 0 859 0 l 845 0 q 706 10 758 10 q 534 0 644 10 l 534 0 q 478 31 498 0 q 476 45 476 41 l 476 248 q 490 278 476 268 l 491 278 l 491 81 q 511 51 491 58 q 532 47 524 47 q 699 58 627 58 q 844 47 762 58 q 882 70 872 47 l 882 280 l 882 285 z "},"b":{"ha":846,"x_min":0,"x_max":842,"o":"m 492 972 l 511 972 q 684 925 581 972 q 744 865 729 900 q 753 806 753 839 q 787 741 760 770 q 790 738 788 741 q 751 642 751 711 q 730 600 751 621 q 664 570 707 582 q 612 548 612 559 q 611 544 611 546 l 611 541 q 677 492 611 505 q 738 458 719 480 q 753 396 746 448 q 781 323 753 362 l 781 322 q 751 240 751 300 q 661 117 751 168 q 498 64 574 64 l 496 64 q 355 77 487 64 q 236 81 303 81 l 234 81 q 55 66 153 81 l 53 66 q 33 76 42 66 l 33 279 q 56 288 41 288 l 83 288 q 162 328 156 288 q 163 332 163 329 q 164 410 164 395 q 125 535 164 500 l 125 536 q 163 650 163 571 l 163 712 q 123 757 163 745 q 92 760 111 760 l 57 760 q 33 770 41 760 l 33 958 q 57 968 33 964 q 213 945 132 945 l 240 945 q 474 970 312 945 q 492 972 478 972 m 14 958 l 14 958 l 14 769 q 57 742 14 745 l 90 742 q 144 708 144 742 l 144 654 q 121 559 144 585 l 121 562 q 130 640 130 587 l 130 646 q 129 687 130 661 q 107 694 119 694 l 77 694 q 0 732 10 694 l 0 935 q 14 958 5 953 m 739 902 l 740 902 q 779 851 768 878 q 790 783 790 825 q 806 746 793 765 l 806 745 q 770 798 781 763 q 764 851 766 810 q 739 901 757 881 l 739 902 m 318 714 l 318 595 q 359 550 318 562 q 390 547 372 547 l 473 547 q 562 576 546 547 q 570 626 570 593 l 570 696 q 522 758 570 758 q 488 760 515 760 l 389 760 q 321 730 338 760 q 318 714 318 720 m 389 742 l 473 742 q 541 732 541 742 q 552 691 551 732 l 552 632 q 535 576 552 576 l 535 577 q 536 588 536 584 l 536 675 q 530 692 536 692 q 506 694 519 694 l 378 694 q 357 686 364 694 l 357 568 l 355 568 q 334 588 342 568 l 334 716 q 365 740 334 732 q 389 742 370 742 m 819 734 q 842 710 842 722 l 842 705 q 816 682 842 694 q 788 610 788 666 q 753 541 788 575 q 682 508 724 521 l 680 508 q 626 541 626 517 q 735 582 705 562 q 767 673 767 604 q 794 720 772 701 q 819 734 814 734 m 97 531 q 146 408 146 509 q 144 335 144 347 q 131 313 144 321 l 129 313 l 131 378 q 94 486 131 467 q 72 505 72 493 l 72 511 q 97 531 72 525 m 318 468 l 318 336 q 398 288 318 288 l 477 288 q 557 304 547 288 q 570 351 570 311 l 570 439 q 556 500 570 490 q 501 515 534 515 l 374 515 q 318 468 318 508 m 374 497 l 500 497 q 549 475 549 494 q 552 435 551 475 l 552 363 q 545 317 552 317 q 536 312 540 312 l 536 427 q 529 446 536 446 q 492 450 519 450 l 379 450 q 357 441 357 447 l 357 309 l 355 309 q 334 332 334 317 l 334 472 q 374 497 334 492 m 749 470 q 781 426 773 453 q 793 351 785 412 q 821 308 806 315 q 827 295 827 300 l 827 289 q 804 264 827 279 q 789 201 789 253 q 604 20 789 95 q 505 0 550 0 l 492 0 q 353 12 484 0 q 239 17 291 17 q 61 1 152 17 q 4 29 23 1 q 0 45 0 36 l 0 254 q 14 279 0 267 l 14 279 l 14 75 q 57 48 14 53 q 235 63 139 63 q 486 47 335 63 l 496 47 q 706 127 593 47 q 758 191 749 164 q 767 267 767 207 q 793 311 774 298 q 804 320 804 319 l 804 322 q 772 370 785 334 q 760 445 768 388 q 749 468 755 458 l 749 470 z "},"c":{"ha":722,"x_min":0,"x_max":700,"o":"m 304 981 l 334 981 q 483 959 418 981 l 484 959 q 505 975 496 959 q 522 981 517 981 l 639 981 q 662 972 652 981 q 648 792 648 876 l 648 775 q 661 623 648 707 q 619 614 656 614 l 545 614 q 502 625 508 614 l 502 632 q 484 720 502 705 q 387 760 453 760 l 378 760 q 264 711 292 760 q 255 673 255 688 l 255 644 q 254 638 255 640 l 255 632 l 255 621 q 286 536 255 568 q 254 440 254 506 q 266 338 254 351 q 375 283 294 283 l 385 283 q 492 340 460 283 q 502 385 502 365 l 502 422 q 528 433 509 433 l 635 433 q 662 422 654 433 l 662 246 q 567 76 662 113 q 390 47 501 47 l 388 47 q 119 138 172 47 q 95 258 95 177 l 95 325 q 47 536 95 490 l 47 537 q 95 771 95 584 l 95 823 q 162 951 95 919 q 304 981 215 981 m 675 978 q 698 956 686 978 q 700 947 700 951 l 700 944 q 685 758 685 826 q 700 595 685 683 l 700 591 q 648 549 700 562 q 631 549 640 549 l 538 549 q 469 587 481 549 q 458 667 467 667 q 382 695 441 695 q 302 667 319 695 q 293 629 293 657 l 293 602 q 306 542 293 564 l 304 542 q 270 627 271 562 l 270 661 q 375 743 270 743 l 382 743 q 477 692 458 743 q 483 625 483 680 q 542 596 483 596 l 619 596 q 675 614 664 596 l 677 621 q 662 781 662 710 q 677 975 662 860 q 675 978 675 977 m 90 903 l 90 902 q 76 826 76 868 l 76 779 q 38 556 76 597 l 38 558 q 61 791 61 599 l 61 805 q 90 903 61 863 m 315 532 q 337 516 336 519 q 340 507 340 512 l 340 503 q 313 480 340 492 q 293 416 293 461 l 293 378 q 304 319 293 332 l 304 317 q 270 401 270 337 q 269 433 270 423 q 307 530 269 510 l 315 532 m 21 530 q 76 310 76 506 l 76 245 q 178 64 76 109 q 378 30 254 30 l 392 30 q 650 125 593 30 q 677 228 677 174 l 677 424 l 675 429 l 678 429 q 700 395 700 416 l 700 199 q 633 43 700 100 q 401 -18 556 -18 l 378 -18 q 61 205 61 -18 l 61 258 q 16 486 61 469 q 0 500 3 491 l 0 509 q 21 530 0 519 m 481 422 l 483 422 l 483 385 q 465 330 483 357 l 463 330 q 468 362 468 347 l 468 397 q 481 422 468 410 z "},"d":{"ha":814,"x_min":0,"x_max":807,"o":"m 470 972 q 663 913 573 972 q 718 781 718 869 l 718 724 q 757 541 718 582 l 757 539 q 716 379 716 505 q 718 263 718 310 q 581 85 718 131 q 464 64 526 64 l 458 64 q 307 81 434 64 q 229 85 234 85 q 215 84 222 84 l 203 84 q 56 69 139 84 q 33 80 42 69 l 33 281 q 60 291 41 291 l 104 291 q 158 319 139 291 q 163 334 161 326 q 163 416 163 388 q 130 539 163 504 q 163 665 163 574 l 163 712 q 128 755 163 743 q 102 760 114 760 l 61 760 q 33 770 41 760 l 33 958 q 53 966 41 966 l 54 966 l 112 954 q 195 949 157 949 q 435 972 277 949 l 470 972 m 14 958 l 14 958 l 14 769 q 58 742 14 746 l 102 742 q 144 711 144 739 l 144 669 q 120 556 144 586 l 118 556 q 130 650 130 585 q 128 687 130 654 q 102 696 119 696 l 62 696 q 2 728 18 696 q 0 739 0 732 l 0 934 q 14 958 0 946 m 692 907 l 693 907 q 740 842 731 871 q 757 726 757 809 q 755 704 757 711 q 781 543 755 582 l 779 543 q 748 587 759 557 q 732 748 732 628 q 734 777 732 760 q 692 905 734 857 l 692 907 m 319 716 q 318 659 319 692 q 353 539 318 574 l 353 538 q 317 413 317 501 q 318 401 318 406 q 319 333 318 383 q 374 291 319 300 l 429 291 q 547 324 526 291 q 562 406 562 348 l 562 422 q 537 535 562 518 l 536 541 q 562 632 562 562 l 562 643 q 523 745 562 730 q 425 760 491 760 l 379 760 q 324 734 342 760 q 319 716 319 724 m 376 742 l 421 742 q 526 720 505 742 q 543 641 543 703 q 524 553 543 568 l 523 553 q 528 591 528 569 l 528 632 q 488 690 528 690 q 394 696 467 696 l 383 696 q 357 687 367 696 q 356 651 356 663 l 356 628 q 372 545 356 570 l 372 545 q 342 584 355 553 q 333 657 333 610 l 333 700 q 347 734 333 730 q 376 742 359 742 m 785 537 q 803 524 787 534 q 807 512 807 517 l 807 507 q 781 484 807 497 q 755 357 755 452 q 757 238 755 314 q 581 18 757 71 q 471 0 526 0 l 453 0 q 315 16 430 0 q 220 20 269 20 l 212 20 q 61 5 147 20 l 57 5 q 1 38 19 5 l 0 45 l 0 259 q 14 281 0 269 l 14 281 l 14 79 q 55 52 20 52 q 199 66 140 66 l 215 66 q 224 67 220 66 q 232 66 228 66 l 238 66 q 429 47 298 66 q 453 47 437 47 l 465 47 q 680 122 585 47 q 734 267 734 178 q 732 279 734 269 q 732 379 732 287 q 770 530 732 503 q 785 537 780 537 m 382 536 q 404 519 401 524 q 406 513 406 516 l 406 507 q 385 488 406 496 q 355 389 355 466 q 357 311 355 357 q 356 311 356 311 q 335 327 342 315 q 333 342 333 337 q 332 415 332 407 q 381 536 332 517 l 382 536 m 104 534 q 145 410 145 513 q 144 336 145 401 q 130 315 144 323 q 128 315 130 315 q 130 382 130 335 q 102 488 130 467 q 81 509 81 494 l 81 513 q 104 534 81 525 m 509 533 l 511 533 q 543 439 543 515 l 543 417 q 526 327 543 341 l 524 327 q 529 415 529 343 q 504 490 529 477 q 488 510 488 496 q 509 533 488 525 z "},"e":{"ha":766,"x_min":0,"x_max":747,"o":"m 498 972 l 521 972 q 703 960 703 964 q 709 954 709 956 q 684 777 684 831 l 684 761 q 708 634 684 699 l 708 633 q 684 625 701 625 l 578 625 q 552 635 559 625 l 552 684 q 528 744 552 730 q 441 758 508 758 l 389 758 q 320 722 331 758 q 319 713 319 718 l 319 591 q 372 548 319 555 q 392 547 378 547 l 501 547 q 526 536 520 547 l 526 525 q 485 515 522 515 l 375 515 q 324 490 345 515 q 319 469 319 481 l 319 334 q 381 290 319 296 l 430 290 q 533 307 522 290 q 552 356 552 324 l 552 426 q 583 437 557 437 l 680 437 q 709 427 709 436 q 688 272 688 353 q 709 78 688 199 q 680 70 699 70 q 500 64 522 64 q 330 83 457 64 q 222 89 262 89 q 58 70 136 89 q 33 80 33 75 l 33 281 q 56 290 41 290 l 85 290 q 155 315 140 290 q 161 344 161 324 q 163 405 161 371 q 127 538 163 503 q 151 583 146 563 q 161 690 161 610 l 161 705 q 132 751 161 741 q 92 758 115 758 l 56 758 q 33 768 40 758 l 33 954 q 56 964 40 964 q 218 937 136 937 l 227 937 q 452 968 322 937 q 498 972 475 972 m 724 960 l 726 960 q 747 928 747 947 l 747 926 q 722 749 722 791 l 722 737 q 747 608 722 674 l 747 604 q 692 561 747 570 l 576 561 q 523 589 543 561 q 519 608 519 596 l 519 644 q 507 686 519 686 q 465 693 496 693 l 376 693 q 357 684 357 689 l 357 567 l 356 567 q 334 591 334 575 l 334 706 q 388 740 334 740 l 441 740 q 524 724 511 740 q 533 684 533 711 l 533 640 q 551 612 533 619 q 574 608 563 608 l 682 608 q 725 633 720 608 q 699 770 699 696 q 725 956 699 827 l 725 958 q 724 960 724 960 m 14 954 l 14 954 l 14 767 q 54 740 20 740 l 89 740 q 143 706 143 740 l 143 701 q 119 558 143 579 q 117 555 119 555 l 117 557 q 127 640 127 587 l 127 684 q 106 693 120 693 l 76 693 q 0 731 10 693 l 0 932 q 14 954 0 942 m 539 543 q 564 503 564 534 q 530 456 564 469 q 498 451 515 451 l 380 451 q 357 443 365 451 l 357 311 l 356 311 q 334 336 334 319 l 334 461 q 352 492 334 486 q 375 497 363 497 l 484 497 q 538 515 530 497 q 541 522 541 519 l 541 538 l 539 543 m 101 533 q 130 501 117 526 q 143 404 143 468 l 143 342 q 130 315 143 321 l 127 315 q 129 368 129 352 l 129 374 q 101 487 129 467 q 79 511 79 492 q 101 533 79 522 m 725 435 q 747 401 747 420 l 747 397 q 726 249 726 322 l 726 238 q 747 50 726 170 l 747 48 q 693 6 747 17 l 690 6 l 522 0 l 491 0 q 356 16 457 0 q 231 24 282 24 q 60 6 151 24 l 59 6 q 0 50 0 14 l 0 257 q 14 281 0 269 l 14 281 l 14 79 q 56 52 14 57 q 225 71 136 71 q 445 50 309 71 q 499 46 465 46 q 696 54 696 52 q 725 77 725 62 q 703 262 703 195 l 703 282 q 725 428 703 351 l 725 431 l 724 433 q 725 435 725 433 m 532 427 l 533 427 l 533 355 q 519 318 533 330 l 518 318 q 519 338 519 332 l 519 394 q 532 427 519 417 z "},"f":{"ha":746,"x_min":0,"x_max":730,"o":"m 486 969 l 510 969 q 683 961 683 964 q 691 954 691 957 q 669 791 669 865 q 691 626 669 719 q 669 618 681 618 l 557 618 q 533 629 540 618 l 533 711 q 496 751 533 739 q 469 755 486 755 l 379 755 q 323 722 339 755 q 321 711 321 718 l 321 589 q 378 544 321 551 l 434 544 q 467 534 461 544 l 467 522 q 441 512 460 512 l 389 512 q 322 476 334 512 q 321 465 321 471 l 321 331 q 357 290 321 302 q 379 286 370 286 l 437 286 q 467 276 460 286 l 467 75 q 443 64 460 64 q 262 82 343 82 l 234 82 q 56 64 158 82 q 33 75 33 68 l 33 276 q 63 286 33 284 l 102 286 q 161 318 144 286 q 163 332 163 329 q 163 398 163 342 l 165 404 q 163 412 163 407 l 163 420 q 122 534 163 497 q 165 644 165 568 q 163 711 163 680 q 109 755 163 746 l 60 755 q 33 766 41 755 l 33 954 q 56 963 41 963 q 222 945 143 945 q 449 967 316 945 q 486 969 465 969 m 706 960 q 730 926 730 949 l 730 926 q 708 779 708 829 l 708 762 q 730 600 708 688 l 730 595 q 681 555 730 568 q 659 553 665 553 l 574 553 q 500 590 512 553 q 500 600 500 595 l 500 678 q 467 691 500 691 l 389 691 q 359 682 366 691 l 359 566 q 357 564 359 564 q 337 585 337 574 l 337 713 q 381 738 345 738 l 467 738 q 514 711 514 734 l 514 633 q 531 606 514 614 q 553 601 543 601 l 667 601 q 707 626 707 606 q 685 789 685 712 l 685 791 q 707 955 685 867 l 707 956 l 706 960 m 14 954 l 14 954 l 14 765 q 52 738 14 744 l 100 738 q 144 708 138 738 q 145 642 145 669 l 145 634 q 123 561 145 587 l 123 562 q 131 612 131 588 q 129 683 131 636 q 100 691 119 691 l 58 691 q 2 724 20 691 q 0 732 0 727 l 0 930 q 14 954 0 941 m 483 541 q 505 507 505 526 l 505 491 q 449 448 505 456 l 397 448 q 359 439 364 448 l 359 308 l 359 306 q 337 329 337 315 l 337 469 q 386 494 345 494 l 441 494 q 482 516 471 494 l 482 535 l 481 540 l 483 541 m 94 528 q 145 410 145 506 q 144 331 145 387 q 129 310 144 317 l 129 311 q 131 385 131 351 q 92 483 131 464 q 69 503 69 490 l 69 508 q 94 528 69 522 m 482 283 q 505 249 505 269 l 505 43 q 469 4 505 17 q 448 0 458 0 l 443 0 q 251 18 340 18 q 62 0 163 18 l 59 0 q 0 37 14 0 l 0 254 q 14 276 0 264 l 14 276 l 14 74 q 45 47 14 55 q 55 47 50 47 q 232 64 160 64 l 260 64 q 443 47 333 64 l 444 47 q 481 66 469 47 l 482 73 l 482 277 l 481 282 q 482 283 482 282 z "},"g":{"ha":797,"x_min":0,"x_max":788,"o":"m 315 984 l 347 984 q 491 967 428 984 l 493 967 q 516 982 500 967 q 532 984 526 984 l 646 984 q 667 975 661 984 q 655 810 655 873 l 655 797 q 667 665 655 726 q 637 656 657 656 l 540 656 q 509 667 515 656 l 509 668 q 484 749 509 724 q 393 765 465 765 l 378 765 q 277 734 299 765 q 264 660 264 718 q 285 541 264 567 l 285 541 q 264 419 264 514 l 264 408 q 285 326 264 343 q 384 292 315 292 l 391 292 q 509 388 509 292 l 509 475 q 451 519 509 512 l 391 519 q 366 530 374 519 l 366 538 q 397 552 366 552 l 719 552 q 750 541 743 552 l 750 530 q 706 516 750 522 q 667 470 667 503 q 652 271 652 362 q 667 66 652 180 q 644 58 657 58 l 534 58 q 503 74 511 58 q 491 78 496 78 q 334 58 426 58 l 318 58 q 121 132 166 58 q 106 190 106 162 q 106 319 106 265 l 106 332 q 52 541 106 490 l 52 541 q 106 760 106 586 q 106 850 106 823 q 251 980 106 960 q 315 984 277 984 m 682 981 l 684 981 q 706 947 706 966 q 692 770 692 838 q 706 635 692 709 q 663 593 706 607 q 644 591 654 591 l 534 591 q 479 620 499 591 q 471 673 475 629 q 453 695 466 695 q 395 701 427 701 q 309 685 326 701 q 302 643 302 672 l 302 628 q 322 529 302 534 q 330 516 330 523 l 330 511 q 315 489 330 501 q 302 415 302 462 l 302 357 q 309 326 302 343 l 308 326 q 279 385 279 345 l 279 421 q 301 534 279 519 q 308 541 301 534 l 308 541 q 286 574 292 551 q 279 637 279 602 l 279 676 q 312 739 279 730 q 382 747 340 747 l 393 747 q 476 730 463 747 q 490 664 490 704 q 538 639 498 639 l 635 639 q 682 661 674 639 l 683 665 q 669 793 669 730 q 683 976 669 872 l 682 981 m 98 909 l 98 909 q 87 847 87 878 q 88 753 87 820 q 52 568 88 614 l 52 571 q 72 722 72 616 l 72 826 q 98 909 72 873 m 765 549 q 788 517 788 534 l 788 495 q 740 454 788 469 q 705 439 705 454 q 690 234 690 334 q 706 35 690 149 q 659 -5 706 7 q 646 -7 654 -7 l 530 -7 q 486 10 509 -7 q 349 -7 427 -7 l 313 -7 q 87 94 140 -7 q 72 161 72 128 q 73 300 72 199 q 23 489 73 454 q 0 511 0 497 l 0 516 q 24 536 0 528 q 56 506 39 530 q 88 323 88 450 l 88 319 q 87 191 88 267 q 202 54 87 90 q 313 40 256 40 l 328 40 q 490 60 429 40 q 532 40 502 40 l 642 40 q 683 66 676 40 q 667 254 667 169 l 667 282 q 685 483 667 377 q 732 502 699 502 q 765 526 765 511 l 765 546 l 764 548 q 765 549 765 548 m 347 541 l 347 541 l 347 534 q 363 508 347 514 q 391 502 375 502 l 438 502 q 491 470 491 502 l 491 385 q 475 335 491 356 l 473 335 q 476 372 476 349 l 476 444 q 437 454 476 454 l 390 454 q 336 484 356 454 q 333 500 333 492 l 333 513 q 347 541 333 530 z "},"h":{"ha":882,"x_min":0,"x_max":856,"o":"m 58 973 q 227 950 177 956 q 273 948 245 948 l 287 948 q 367 956 327 948 q 393 945 393 951 l 393 774 q 344 763 393 764 q 298 719 298 751 l 298 595 q 355 550 298 557 l 496 550 q 550 578 531 550 q 554 597 554 586 l 554 717 q 521 758 554 747 q 473 765 506 765 q 459 774 460 770 l 459 945 q 483 956 468 956 q 562 950 518 951 q 791 973 621 950 l 796 973 q 818 964 810 973 l 818 774 q 791 764 810 764 l 772 764 q 712 731 729 764 q 710 715 710 722 l 710 666 q 751 541 710 574 l 751 540 q 709 402 709 503 q 710 335 710 367 q 769 289 710 296 q 818 279 818 289 l 818 75 q 794 65 810 65 q 544 79 610 79 q 479 77 489 77 q 459 88 467 77 l 459 279 q 508 290 463 290 q 554 336 554 301 l 554 471 q 500 517 554 509 q 486 517 498 517 l 366 517 q 298 481 311 517 q 298 471 298 475 l 298 334 q 355 289 298 296 q 392 281 384 289 l 393 279 l 393 88 q 371 77 385 77 q 302 79 317 79 l 290 79 q 54 65 231 79 q 33 75 42 65 l 33 279 q 96 290 33 290 q 142 333 142 303 q 142 422 142 393 q 104 540 142 503 l 104 541 q 142 663 142 575 l 142 715 q 85 764 142 756 l 61 764 q 33 774 41 764 l 33 964 q 58 973 41 973 m 831 970 q 854 948 842 970 q 856 940 856 944 l 856 740 q 819 703 856 717 q 797 699 808 699 l 781 699 q 749 689 753 698 q 748 641 749 674 q 766 551 748 581 l 765 551 q 725 667 725 576 q 726 722 725 684 q 769 746 738 746 l 788 746 q 833 770 825 746 l 833 965 l 831 970 m 14 964 l 15 964 l 15 773 q 52 746 15 752 l 79 746 q 121 721 113 746 q 123 711 123 717 l 123 673 q 98 562 123 586 l 98 564 q 108 643 108 593 q 107 690 107 678 q 75 699 98 699 l 59 699 q 2 731 20 699 q 0 740 0 735 l 0 940 q 14 964 0 951 m 406 952 l 408 952 q 427 930 427 939 l 429 930 q 439 945 430 938 l 440 945 l 440 777 q 496 746 440 746 q 534 720 534 739 q 535 712 535 720 l 535 598 q 522 574 535 581 l 519 574 l 519 689 q 471 700 519 699 q 431 726 439 709 q 429 731 429 729 l 427 731 q 392 702 427 717 q 347 696 377 699 q 336 689 337 692 l 336 572 q 334 570 336 570 q 313 591 313 580 l 313 721 q 365 746 319 746 q 408 773 408 750 l 408 945 l 406 952 m 781 536 q 808 514 808 527 q 810 511 808 513 q 781 486 810 494 q 748 372 748 465 l 748 352 q 749 310 748 336 q 748 309 748 310 q 727 327 730 317 l 726 329 q 725 385 725 365 l 725 404 q 770 532 725 506 q 781 536 780 536 m 75 534 q 123 416 123 513 q 123 336 123 399 q 107 313 123 320 l 107 314 q 109 388 109 366 q 75 487 109 466 q 52 508 52 495 l 52 513 q 75 534 52 526 m 362 500 l 483 500 q 535 467 535 500 l 535 337 q 521 313 535 321 l 519 313 l 519 443 q 482 452 519 451 l 374 452 q 336 443 341 452 l 336 311 l 335 309 q 313 332 313 318 l 313 475 q 362 500 321 500 m 406 286 l 408 286 q 427 264 427 272 l 429 264 q 439 279 430 271 l 440 279 l 440 90 q 477 60 440 64 l 479 60 q 544 62 489 60 q 794 47 602 62 l 795 47 q 833 69 821 47 l 833 281 l 831 286 l 833 286 q 856 252 856 272 l 856 41 q 802 0 856 11 l 798 0 q 608 13 785 0 q 576 14 606 14 l 548 14 q 486 12 511 14 q 429 42 449 12 l 429 44 l 427 44 q 404 20 427 34 q 370 12 385 12 q 300 15 326 15 q 60 0 240 15 l 56 0 q 3 29 23 0 q 0 41 0 37 l 0 256 q 14 279 0 267 l 15 279 l 15 75 q 45 48 15 56 q 54 47 51 47 q 288 62 228 62 l 302 62 q 370 60 367 60 q 406 81 395 60 q 408 89 408 85 l 408 279 l 406 286 z "},"i":{"ha":492,"x_min":0,"x_max":471,"o":"m 57 975 q 222 958 153 958 q 412 975 295 958 l 412 975 q 433 966 425 975 l 433 776 q 406 765 426 765 l 375 765 q 316 735 334 765 q 313 719 313 726 l 313 653 q 356 541 313 578 l 356 540 q 321 470 333 517 q 313 356 313 429 l 313 336 q 372 290 313 297 l 403 290 q 433 279 427 290 l 433 75 q 408 65 425 65 q 220 82 312 82 q 57 65 150 82 q 34 75 34 69 l 34 279 q 64 290 34 288 l 92 290 q 152 322 136 290 q 155 338 155 332 l 155 385 q 106 540 155 505 l 106 542 q 148 619 134 562 q 155 711 155 648 l 155 717 q 98 765 155 758 l 61 765 q 34 776 41 765 l 34 966 q 57 975 42 975 m 447 972 q 469 950 458 972 q 471 941 471 946 l 471 741 q 435 705 471 718 q 412 700 423 700 l 381 700 q 352 691 358 700 q 351 638 351 652 q 370 551 351 580 q 328 669 328 576 l 328 680 q 334 732 328 732 q 372 747 349 747 l 403 747 q 448 772 440 747 l 448 967 l 447 972 m 14 966 l 15 966 l 15 774 q 52 747 15 753 l 90 747 q 136 717 136 744 l 136 711 q 107 570 136 597 l 107 571 q 119 654 119 604 l 119 691 q 90 700 113 700 l 59 700 q 2 732 20 700 q 0 741 0 736 l 0 941 q 14 966 0 954 m 385 538 q 410 512 410 527 q 387 488 410 496 q 352 352 352 458 l 352 312 l 351 310 q 328 333 328 319 l 328 375 q 382 538 328 513 l 385 538 m 79 535 q 122 484 106 523 q 136 380 136 450 l 136 340 q 121 314 136 321 l 119 314 l 119 340 q 121 349 119 346 q 119 360 119 355 l 119 370 q 75 489 119 466 q 54 512 54 496 q 79 535 54 529 m 447 287 l 448 287 q 471 253 471 273 l 471 41 q 424 1 471 14 q 414 0 418 0 l 410 0 q 255 16 303 16 q 226 17 230 17 q 61 0 161 17 l 58 0 q 1 35 18 0 l 0 41 l 0 257 q 14 279 0 267 l 15 279 l 15 75 q 45 48 15 56 q 56 47 51 47 q 222 64 150 64 q 408 47 303 64 l 410 47 q 448 71 438 47 l 448 281 l 447 287 z "},"j":{"ha":650,"x_min":0,"x_max":625,"o":"m 122 972 l 125 972 q 345 951 243 951 q 565 972 445 951 l 567 972 q 587 962 578 972 l 587 773 q 561 762 581 762 l 519 762 q 458 730 474 762 q 454 641 456 730 q 502 536 454 574 q 454 315 454 494 q 456 164 456 201 q 394 75 456 100 q 250 54 343 54 l 243 54 q 43 123 83 54 q 33 176 33 146 l 33 426 q 60 437 41 437 l 153 437 q 180 426 172 437 l 180 347 q 238 288 180 288 l 246 288 q 299 345 290 288 q 300 380 300 365 l 300 419 q 246 536 300 492 l 246 537 q 301 656 301 577 q 300 718 300 698 q 258 760 300 747 q 238 762 245 762 l 128 762 q 101 773 109 762 l 101 962 q 122 972 101 968 m 601 969 q 623 947 611 969 q 625 939 625 943 l 625 739 q 571 698 625 709 l 524 698 q 494 689 504 698 l 492 619 q 508 554 492 578 l 508 553 q 469 650 469 578 q 475 728 471 728 q 517 745 489 745 l 561 745 q 602 769 593 745 l 602 964 l 601 969 m 82 962 l 83 962 l 83 776 q 106 748 83 755 q 124 745 117 745 l 235 745 q 280 718 273 745 q 281 707 281 715 l 281 648 q 260 576 281 605 l 258 576 q 267 627 267 600 l 267 637 q 266 689 267 653 q 234 698 256 698 l 126 698 q 71 730 88 698 q 68 743 68 737 l 68 932 q 82 962 68 951 m 528 535 q 555 511 555 526 l 555 507 q 532 485 555 496 q 492 300 492 447 q 494 143 492 227 q 378 2 494 30 q 266 -11 323 -11 l 233 -11 q 12 80 62 -11 q 0 134 0 110 l 0 404 q 14 427 1 414 l 14 425 l 14 174 q 236 37 14 37 l 248 37 q 456 106 420 37 q 472 170 472 134 l 471 183 q 470 333 470 286 q 520 531 470 495 q 528 535 526 535 m 217 532 q 281 416 281 496 l 281 385 q 266 313 281 319 q 264 312 266 312 q 267 383 267 353 q 201 493 267 463 q 195 509 195 502 q 217 532 195 526 m 193 433 l 195 433 q 217 399 217 420 l 217 329 q 218 308 217 322 q 217 307 217 308 q 195 341 195 314 q 195 358 195 341 l 195 426 l 193 433 z "},"k":{"ha":903,"x_min":0,"x_max":890,"o":"m 56 969 q 233 949 91 966 q 299 946 258 946 q 380 951 338 946 q 404 941 404 947 l 404 771 q 358 760 401 760 q 300 728 317 760 q 298 715 298 721 l 298 640 q 351 593 298 600 q 361 591 359 591 q 432 624 391 591 q 586 730 579 723 q 589 742 589 737 q 568 760 589 760 l 508 760 q 477 771 485 760 l 477 941 q 502 951 477 947 q 555 948 530 948 l 570 948 q 795 968 628 948 q 812 969 798 969 q 833 956 830 969 l 833 771 q 806 760 826 760 l 775 760 q 707 731 745 760 l 485 581 l 457 548 l 458 548 q 631 530 510 548 q 667 528 646 528 l 678 528 q 684 507 680 528 q 718 469 692 486 q 745 416 745 439 l 745 336 q 801 288 745 296 q 852 277 852 288 l 852 75 q 828 64 844 64 l 618 81 q 576 83 579 83 q 500 79 535 81 q 477 90 486 79 l 477 277 q 506 288 486 288 l 529 288 q 585 319 566 288 q 587 333 587 329 l 587 401 q 504 507 587 484 q 426 515 474 515 l 366 515 q 299 479 311 515 q 298 471 298 475 l 298 333 q 334 292 298 304 q 357 288 348 288 l 376 288 q 404 277 395 288 l 404 90 q 384 79 404 85 q 322 80 343 80 q 64 64 269 80 l 56 64 q 33 75 41 64 l 33 277 q 95 289 33 289 q 141 334 141 301 q 142 405 141 358 q 101 538 142 504 l 101 539 q 141 676 141 572 l 141 713 q 85 760 141 752 l 60 760 q 33 771 41 760 l 33 960 q 56 969 41 969 m 847 966 q 870 943 857 966 l 871 932 l 871 740 q 834 700 871 713 q 812 696 823 696 l 781 696 q 736 677 759 696 l 557 556 q 491 564 527 560 l 491 564 q 730 726 526 589 q 772 743 750 743 l 803 743 q 848 769 842 743 l 848 961 l 847 966 m 14 960 l 15 960 l 15 770 q 52 743 15 749 l 78 743 q 121 718 112 743 q 122 701 122 709 q 103 572 122 591 l 98 562 l 96 562 q 106 630 106 591 l 106 686 q 74 696 102 695 l 58 696 q 2 728 20 696 q 0 736 0 732 l 0 936 q 14 960 0 947 m 417 948 l 418 948 q 441 913 441 935 l 441 741 q 391 696 441 707 q 337 686 337 696 l 337 612 l 336 612 q 313 636 313 621 l 313 708 q 340 741 313 733 q 357 743 352 743 l 374 743 q 418 769 418 747 l 418 941 l 417 948 m 458 941 l 459 941 l 459 774 q 482 746 459 753 q 502 743 494 743 l 568 743 q 570 741 570 743 q 505 696 548 722 l 503 696 q 446 728 465 696 q 444 741 444 735 l 444 913 q 458 941 444 930 m 707 536 q 726 516 720 536 q 719 500 726 507 l 719 498 q 724 483 719 494 q 694 528 694 505 q 702 535 694 535 l 707 536 m 73 533 q 110 494 97 523 q 123 408 123 457 q 122 339 122 363 q 106 312 122 317 l 106 313 q 107 361 107 342 l 107 384 q 73 486 107 467 q 48 509 48 492 q 73 533 48 526 m 363 498 l 420 498 q 558 446 534 498 q 568 396 568 429 l 568 336 q 554 312 568 319 l 553 312 l 553 378 q 494 444 553 429 q 403 450 470 450 l 374 450 q 337 441 341 450 l 337 310 l 336 308 q 315 324 321 313 q 313 341 313 329 l 313 460 q 329 490 313 484 q 363 498 341 498 m 734 473 l 735 473 q 783 376 783 435 l 783 310 l 783 308 q 760 331 760 317 l 760 407 q 734 473 760 444 m 417 285 l 418 285 q 441 250 441 271 l 441 60 q 406 19 441 31 q 380 14 403 17 q 376 15 376 15 q 323 16 361 15 q 71 0 285 16 l 54 0 q 3 28 25 0 q 0 41 0 37 l 0 256 q 14 277 0 266 l 15 277 l 15 74 q 45 48 15 56 q 54 47 50 47 q 277 62 68 47 q 314 62 290 62 q 382 62 327 62 q 412 74 404 65 q 418 89 418 81 l 418 277 l 417 285 m 866 285 l 867 285 q 890 252 890 271 l 890 41 q 837 0 890 11 l 831 0 q 642 15 813 0 q 574 18 618 16 q 507 14 534 16 q 450 41 470 14 q 444 60 444 49 l 444 250 q 458 277 444 267 l 459 277 l 459 94 q 477 66 459 73 q 498 62 491 62 q 574 64 559 64 q 823 47 621 64 l 829 47 q 867 69 855 47 l 867 279 l 866 285 z "},"l":{"ha":729,"x_min":0,"x_max":710,"o":"m 57 970 q 258 956 176 956 q 461 970 333 956 q 483 960 475 970 l 483 772 q 456 762 475 762 l 386 762 q 322 722 333 762 l 322 659 q 363 536 322 568 q 322 376 322 500 l 322 336 q 370 293 322 302 q 379 292 374 292 l 432 292 q 510 319 498 292 q 517 364 517 332 l 517 429 q 544 439 525 439 l 646 439 q 673 429 665 439 l 673 79 q 616 68 673 68 q 498 64 533 64 l 492 64 q 338 78 450 64 q 238 83 288 82 q 58 68 146 83 q 33 79 33 73 l 33 281 q 72 292 39 292 l 106 292 q 158 317 139 292 q 163 344 163 326 l 163 404 q 113 540 163 505 l 113 541 q 151 598 143 566 q 163 700 163 627 l 163 711 q 136 755 163 743 q 98 762 117 762 l 60 762 q 33 772 41 762 l 33 960 q 57 970 41 970 m 498 968 q 521 920 521 956 l 521 755 q 495 706 521 716 q 460 698 477 698 l 393 698 q 360 689 369 698 q 359 643 359 654 q 376 548 359 576 l 375 548 q 345 592 354 562 q 336 667 336 625 l 336 691 q 344 730 336 730 q 385 745 355 745 l 454 745 q 497 768 490 745 l 497 964 l 496 966 l 498 968 m 14 960 l 14 960 l 14 771 q 56 745 14 749 l 98 745 q 144 716 138 745 l 144 706 q 117 571 144 597 l 117 572 q 129 648 129 604 l 129 688 q 96 698 129 696 l 60 698 q 2 730 18 698 q 0 738 0 734 l 0 937 q 14 960 0 948 m 84 534 q 127 496 109 525 q 144 404 144 459 l 144 342 q 131 315 144 322 l 129 315 q 130 357 130 342 l 130 364 q 87 486 130 467 q 61 499 61 495 q 57 512 57 507 q 84 534 57 529 m 391 534 q 418 512 418 528 l 418 510 q 397 487 418 496 q 359 340 359 463 q 360 313 360 324 l 358 311 q 337 330 342 317 q 336 366 337 335 q 391 534 336 517 m 686 436 l 687 436 q 710 403 710 423 l 710 47 q 659 5 710 16 q 503 0 532 0 l 486 0 q 325 14 450 0 q 239 18 278 18 l 220 18 q 60 4 153 18 q 0 47 0 12 l 0 258 q 14 281 0 269 l 14 281 l 14 78 q 57 51 14 56 q 231 65 148 65 q 454 47 300 65 q 492 47 463 47 q 669 56 669 50 q 687 76 687 64 l 687 431 l 686 436 m 497 429 l 498 429 l 498 363 q 485 317 498 323 l 483 317 q 484 346 484 337 l 484 395 q 497 429 484 419 z "},"m":{"ha":1200,"x_min":0,"x_max":1177,"o":"m 56 974 q 202 959 138 959 q 344 974 264 959 l 347 974 q 374 943 370 974 q 530 486 384 917 q 587 458 549 458 q 654 513 643 458 q 807 966 805 964 q 826 974 814 972 l 827 974 q 945 961 912 961 q 970 960 960 961 q 1118 974 1024 960 q 1139 964 1131 974 l 1139 774 q 1112 764 1132 764 l 1095 764 q 1036 732 1053 764 q 1034 716 1034 722 l 1034 653 q 1067 539 1034 572 l 1067 536 q 1034 368 1034 503 l 1034 338 q 1070 294 1034 305 q 1125 288 1075 290 q 1139 279 1138 283 l 1139 75 q 1116 65 1132 65 q 951 75 1028 75 q 799 65 886 75 q 776 75 785 65 l 776 279 q 822 290 778 290 q 878 336 878 298 l 878 388 q 832 434 878 422 q 818 435 823 435 l 810 435 q 753 399 770 435 q 633 73 753 397 q 608 65 623 65 l 567 65 q 539 83 539 65 q 414 414 536 87 q 359 438 394 438 l 355 438 q 298 406 314 438 q 296 393 296 398 l 296 336 q 331 294 296 305 q 382 288 347 288 q 397 279 397 282 l 397 75 q 373 65 389 65 q 212 77 279 77 q 54 65 149 77 q 33 75 42 65 l 33 279 q 94 290 33 290 q 140 334 140 303 q 140 423 140 392 q 94 541 140 504 q 140 670 140 578 l 140 716 q 83 764 140 757 l 61 764 q 33 774 41 764 l 33 964 q 56 974 41 974 m 382 972 q 406 943 398 964 q 561 480 542 540 q 528 538 543 480 q 382 972 387 951 m 1153 970 q 1175 949 1164 970 q 1177 941 1177 945 l 1177 740 q 1134 701 1177 715 l 1086 697 q 1072 690 1072 694 q 1072 631 1072 640 q 1087 545 1072 572 l 1086 545 q 1048 667 1048 563 q 1049 722 1048 684 q 1093 747 1061 747 l 1109 747 q 1154 770 1146 747 l 1154 966 l 1153 970 m 14 964 l 15 964 l 15 774 q 52 747 15 753 l 77 747 q 119 721 111 747 q 121 712 121 718 l 121 697 q 102 580 121 602 q 96 569 97 570 l 96 571 q 106 659 106 597 q 105 680 105 665 l 105 690 q 46 701 105 701 q 0 740 0 714 l 0 941 q 14 964 0 952 m 784 964 l 785 964 l 785 962 q 627 492 638 523 q 620 486 622 486 l 620 488 q 777 955 757 899 q 784 964 783 964 m 1095 536 q 1112 526 1096 534 q 1118 513 1118 518 l 1118 509 q 1099 488 1118 498 q 1072 361 1072 458 l 1072 311 l 1072 309 q 1049 332 1049 319 l 1049 398 q 1090 536 1049 506 l 1095 536 m 65 534 q 121 418 121 512 q 121 336 121 395 q 105 313 121 321 l 105 315 q 107 388 107 362 q 71 486 107 463 q 40 511 40 494 q 65 534 40 528 m 355 420 l 361 420 q 406 382 397 420 q 528 61 521 73 q 563 47 543 47 l 608 47 q 648 68 637 47 q 772 401 759 368 q 809 417 787 417 l 817 417 q 857 395 845 417 q 859 384 859 388 l 859 340 q 844 313 859 321 l 843 313 l 843 361 q 820 370 843 367 l 816 370 q 787 350 791 370 q 764 292 768 295 q 757 275 757 288 l 757 77 q 774 52 757 60 q 798 47 785 47 q 954 58 886 58 q 1116 47 1019 58 q 1154 71 1144 47 l 1154 281 l 1153 286 l 1154 286 q 1177 253 1177 273 l 1177 41 q 1124 0 1177 11 l 1118 0 q 958 10 1013 10 q 802 0 901 10 l 800 0 q 745 31 763 0 q 742 44 742 35 l 742 227 l 741 227 q 665 23 672 35 q 612 0 645 0 l 567 0 q 501 56 513 0 q 436 231 437 224 l 435 231 l 435 44 q 378 0 435 8 l 375 0 q 218 12 267 12 q 61 0 158 12 l 58 0 q 2 31 20 0 q 0 41 0 38 l 0 257 q 14 279 0 267 l 15 279 l 15 75 q 45 48 15 56 q 56 47 51 47 q 210 59 146 59 q 373 47 272 59 q 412 73 412 53 l 412 279 l 411 286 l 412 286 q 415 285 414 285 q 384 367 387 362 q 359 373 373 373 q 334 365 342 373 l 334 311 l 334 309 q 311 332 311 318 l 311 395 q 355 420 319 420 z "},"n":{"ha":971,"x_min":0,"x_max":946,"o":"m 56 973 q 178 960 121 960 q 308 973 219 960 q 342 941 332 973 q 519 604 515 612 q 571 585 540 585 l 573 585 q 631 618 616 585 q 633 629 633 622 l 633 719 q 576 764 633 755 l 531 764 q 500 774 508 764 l 500 962 q 522 973 500 968 l 523 973 l 602 960 q 705 952 652 952 q 885 973 787 952 q 908 964 900 973 l 908 774 q 881 764 901 764 l 850 764 q 790 731 806 764 q 787 720 787 720 q 787 642 787 669 q 838 538 787 571 q 827 519 838 536 q 787 225 787 449 l 787 75 q 764 65 780 65 l 648 65 q 618 81 623 65 q 436 437 457 397 q 382 461 416 461 l 378 461 q 319 425 334 461 q 319 415 319 420 l 319 334 q 354 293 319 306 q 377 289 368 289 l 415 289 q 443 279 435 289 l 443 75 q 419 65 435 65 q 216 81 305 81 q 56 65 141 81 q 33 75 33 69 l 33 279 q 64 289 33 287 l 102 289 q 162 321 145 289 q 164 337 164 332 l 164 406 q 117 541 164 506 l 117 543 q 158 625 145 565 q 164 720 164 669 q 115 762 164 751 q 102 764 110 764 l 61 764 q 33 774 41 764 l 33 964 q 56 973 41 973 m 345 971 q 387 907 357 971 q 466 756 460 770 l 467 756 l 467 935 q 481 964 467 952 l 481 964 l 481 779 q 502 750 481 758 q 525 746 515 746 l 572 746 q 615 718 615 741 l 615 633 q 602 608 615 616 l 599 608 l 599 689 q 570 699 599 696 l 529 699 q 492 707 511 699 q 545 606 545 608 l 544 606 q 512 650 532 606 l 345 969 l 345 971 m 924 971 q 946 939 946 955 l 946 739 q 909 703 946 717 q 887 699 898 699 l 856 699 q 827 690 836 699 l 825 619 q 842 555 825 580 l 842 554 l 841 554 q 802 656 802 581 q 804 722 802 668 q 846 746 815 746 l 878 746 q 923 770 915 746 l 923 964 l 922 970 l 924 971 m 14 964 l 15 964 l 15 773 q 52 746 15 752 l 100 746 q 144 724 132 746 q 146 716 144 721 q 116 568 146 607 l 114 568 l 114 569 q 130 683 130 598 l 130 689 q 100 699 123 699 l 58 699 q 2 731 20 699 q 0 739 0 735 l 0 939 q 14 964 0 951 m 864 536 q 891 514 891 526 l 891 508 q 870 487 891 497 q 825 169 825 441 q 827 44 827 85 q 774 0 827 12 l 631 0 q 616 6 631 3 q 573 66 595 14 q 481 244 486 235 l 481 244 l 481 44 q 442 3 481 16 q 436 0 436 3 l 402 0 q 401 2 402 2 q 224 17 294 17 q 75 1 142 17 l 75 0 l 60 0 q 0 38 14 0 l 0 256 q 14 279 0 267 l 15 279 l 15 75 q 56 47 20 47 q 215 64 140 64 q 418 47 298 64 l 419 47 q 458 75 458 52 l 458 279 l 456 286 l 458 286 l 460 285 l 460 286 q 406 391 408 387 q 383 396 391 396 l 382 396 q 357 387 365 396 l 357 311 l 356 309 q 335 326 342 314 q 333 342 333 330 l 333 408 q 352 438 333 431 q 378 443 361 443 l 379 443 q 429 408 417 443 q 610 58 603 68 q 646 47 624 47 l 762 47 q 804 73 804 52 q 802 196 802 165 q 854 528 802 488 q 864 536 854 530 m 88 535 q 127 503 101 535 q 146 408 146 465 l 146 398 q 146 391 146 392 q 146 381 146 385 l 146 339 q 131 313 146 320 l 130 313 l 130 314 q 131 357 131 342 l 131 370 q 96 485 131 463 q 65 507 65 496 l 65 512 q 88 535 65 527 z "},"o":{"ha":814,"x_min":0,"x_max":800,"o":"m 385 989 l 422 989 q 690 899 636 989 q 707 815 707 861 q 706 733 706 755 q 749 537 706 576 q 706 300 706 491 q 707 214 707 245 q 619 82 707 132 q 405 47 550 47 l 399 47 q 139 118 201 47 q 98 216 98 160 l 98 314 q 48 539 98 492 l 48 541 q 90 635 80 576 q 98 762 98 683 l 98 817 q 216 968 98 932 q 385 989 289 989 m 683 932 l 684 932 q 745 797 745 880 l 745 694 q 769 544 745 583 l 769 543 l 768 543 q 736 589 749 553 q 722 720 722 636 l 722 822 q 683 932 722 888 m 94 895 l 94 892 q 79 817 79 861 l 79 763 q 43 564 79 606 l 43 566 q 65 747 65 610 q 64 781 64 772 q 94 895 64 852 m 258 652 q 281 547 258 570 l 286 542 l 286 541 q 257 446 257 511 q 273 323 257 332 q 310 294 278 308 q 367 285 338 285 l 438 285 q 546 376 546 285 l 546 424 q 519 535 546 500 q 530 555 519 537 q 546 645 546 586 l 546 673 q 505 753 546 734 q 435 766 473 766 l 370 766 q 271 726 292 766 q 258 652 258 703 m 370 748 l 431 748 q 521 711 505 748 q 527 668 527 690 l 527 652 q 505 551 527 572 l 505 551 q 513 635 513 576 q 494 689 513 682 q 433 700 469 700 l 380 700 q 307 680 319 700 q 297 641 297 664 l 297 596 q 308 545 297 569 l 307 545 q 274 628 274 566 l 274 668 q 304 736 274 719 q 370 748 330 748 m 315 536 q 339 513 339 523 q 340 507 339 509 q 323 488 340 496 q 297 440 304 488 q 296 411 296 425 q 302 319 296 319 q 303 316 303 317 l 301 316 q 274 380 274 331 q 273 444 273 408 q 300 530 273 511 q 315 536 310 536 m 774 535 l 775 535 q 797 519 795 523 l 800 511 l 800 505 q 781 485 800 494 q 753 413 760 458 q 745 281 745 359 l 745 180 q 653 27 745 90 q 420 -20 572 -20 l 391 -20 q 97 85 165 -20 q 64 186 64 130 q 65 240 65 220 q 26 481 65 452 q 6 494 25 484 q 0 507 0 500 l 0 511 q 20 533 0 523 l 21 533 q 54 496 35 533 q 79 302 79 439 l 79 212 q 168 71 79 127 q 386 28 245 28 l 416 28 q 694 125 633 28 q 722 211 722 165 l 722 327 q 767 531 722 492 q 774 535 769 531 m 493 532 l 494 532 q 527 418 527 509 l 527 380 q 509 323 527 340 l 509 326 q 513 364 513 342 l 513 365 q 482 490 513 481 q 473 509 473 498 q 493 532 473 522 z "},"p":{"ha":729,"x_min":0,"x_max":721,"o":"m 435 975 l 453 975 q 635 913 551 975 q 684 772 684 872 l 684 649 q 598 545 684 585 q 468 521 520 521 q 343 514 431 517 q 298 470 298 502 l 298 332 q 355 288 298 296 l 505 288 q 532 277 525 288 l 532 77 q 509 64 530 64 l 60 64 q 33 75 40 64 l 33 277 q 60 288 41 288 l 79 288 q 136 315 117 288 q 140 334 140 324 l 140 388 q 107 536 140 504 l 107 538 q 134 600 125 557 q 140 688 140 625 l 140 713 q 104 755 140 744 q 80 760 94 760 l 62 760 q 33 770 41 760 l 33 959 q 58 969 33 964 q 210 952 134 952 q 406 972 283 952 q 435 975 412 975 m 14 959 l 15 959 l 15 769 q 58 742 15 746 l 79 742 q 121 713 121 739 q 122 693 122 705 q 96 553 122 576 l 95 553 q 106 637 106 585 l 106 686 q 75 695 100 695 l 60 695 q 2 726 21 695 q 0 739 0 734 l 0 935 q 14 959 0 947 m 656 914 l 656 914 q 721 764 721 858 l 721 614 q 629 490 721 543 q 530 463 561 463 q 349 449 494 454 q 336 442 338 445 l 336 309 l 336 307 q 313 336 313 315 l 313 463 q 372 498 313 498 q 613 532 522 498 q 693 613 673 565 q 699 640 699 630 l 699 788 q 656 914 699 864 m 298 715 l 298 592 q 355 547 298 555 l 379 547 q 513 619 489 547 q 517 647 517 636 l 517 667 q 487 745 517 729 q 396 760 454 760 l 359 760 q 300 728 316 760 q 298 715 298 720 m 355 742 l 388 742 q 486 722 467 742 q 498 666 498 704 l 498 650 q 480 598 498 618 l 479 598 q 484 629 484 611 q 472 685 484 674 q 361 695 452 695 q 336 687 346 695 l 336 569 q 334 567 336 567 q 313 597 313 575 l 313 707 q 332 736 313 729 q 355 742 344 742 m 82 532 q 106 503 98 524 q 122 383 122 469 l 122 353 q 121 325 122 345 q 107 311 111 311 l 106 311 l 106 376 q 75 490 106 470 q 62 507 62 495 l 62 509 q 82 532 62 522 m 547 284 q 571 243 571 273 l 571 51 q 530 2 571 14 q 511 0 519 0 l 58 0 q 2 31 20 0 q 0 41 0 38 l 0 255 q 14 277 0 265 l 15 277 l 15 74 q 55 47 21 47 l 505 47 q 548 80 548 47 l 548 269 q 547 284 548 274 z "},"q":{"ha":849,"x_min":0,"x_max":836,"o":"m 399 987 l 438 987 q 709 897 658 987 q 728 816 728 861 q 728 784 728 797 l 728 742 q 781 541 728 583 l 781 539 q 726 334 726 493 q 728 242 728 283 q 728 218 728 235 q 614 67 728 105 q 522 50 581 56 q 486 31 506 50 q 475 5 475 18 q 513 -41 475 -22 q 581 -50 537 -50 l 703 -50 q 728 -60 720 -50 l 728 -139 q 702 -150 721 -150 l 629 -150 q 388 -64 442 -150 q 371 14 371 -32 q 355 37 368 24 q 290 54 345 48 q 190 83 225 63 q 111 219 111 131 l 111 224 q 113 340 111 250 q 54 539 113 498 l 54 541 q 113 697 113 591 q 111 833 113 723 q 140 910 111 868 q 399 987 206 987 m 705 929 l 706 929 q 766 786 766 880 l 766 695 q 798 548 766 591 l 798 548 q 742 743 742 583 q 743 776 743 759 l 743 815 q 705 929 743 885 m 107 893 l 107 891 q 91 816 91 855 q 92 808 91 813 q 94 703 94 743 q 62 576 94 619 l 62 578 q 79 692 79 616 q 77 791 79 702 q 107 893 77 849 m 273 669 q 305 538 273 575 q 273 425 273 505 l 273 383 q 338 292 273 321 l 340 292 q 361 313 358 292 l 361 383 q 399 394 361 393 l 439 394 q 478 383 478 393 l 478 315 q 498 292 478 292 q 544 323 514 292 q 564 372 564 349 q 566 441 566 372 l 566 454 q 538 537 566 506 l 538 538 q 566 618 566 568 q 551 735 566 725 q 525 759 551 745 q 478 765 509 765 l 361 765 q 286 729 297 765 q 273 669 273 709 m 370 747 l 479 747 q 536 726 525 747 q 547 622 547 712 l 547 616 q 528 555 547 576 l 527 555 q 532 597 531 572 q 522 690 532 674 q 473 699 515 699 l 382 699 q 326 691 326 699 q 313 648 313 680 l 313 633 q 329 541 313 576 l 327 541 q 290 656 290 566 l 290 680 q 331 745 290 736 q 370 747 342 747 m 810 536 q 836 513 836 524 l 836 507 q 809 484 836 494 q 766 313 767 452 q 766 178 766 288 q 721 59 766 114 q 619 1 671 14 q 523 -18 590 -9 q 512 -22 516 -22 q 491 1 498 -17 l 491 7 q 563 37 491 32 q 665 71 626 48 q 743 210 743 121 q 742 336 742 289 q 792 526 742 489 q 810 536 804 535 m 332 535 l 333 535 q 354 522 335 532 q 358 507 358 514 q 336 484 358 494 q 312 385 312 465 q 318 326 312 338 q 322 319 322 322 q 288 396 288 339 l 288 404 q 319 526 288 507 q 332 535 321 529 m 23 534 q 66 497 49 524 q 94 345 94 452 q 92 237 92 254 q 91 229 92 235 q 254 41 91 76 q 330 29 288 35 q 353 -5 353 22 q 422 -125 353 -78 q 625 -168 496 -168 l 702 -168 q 743 -140 737 -168 l 743 -60 l 742 -52 l 743 -52 q 766 -87 766 -66 l 766 -169 q 711 -216 766 -207 l 621 -216 q 390 -150 467 -216 q 337 -24 337 -102 q 263 -9 337 -18 q 130 56 170 12 q 77 197 77 111 q 79 317 79 290 l 79 338 q 31 482 79 449 q 1 502 1 494 q 0 507 0 504 l 0 513 q 23 534 0 524 m 511 533 q 541 496 531 523 q 547 445 547 475 l 547 441 q 541 354 547 354 q 528 334 538 343 l 528 334 q 532 419 532 351 q 505 488 532 473 q 488 507 488 495 l 488 511 q 511 533 488 524 m 493 391 q 517 349 517 378 l 517 323 q 495 309 503 310 l 494 311 l 494 378 q 492 390 494 386 q 493 391 493 390 m 340 383 l 341 383 l 341 311 q 339 309 341 309 l 337 309 q 326 317 326 315 l 326 345 q 340 383 326 374 z "},"r":{"ha":882,"x_min":0,"x_max":869,"o":"m 459 975 l 478 975 q 681 869 620 975 q 700 785 700 828 l 700 671 q 669 586 700 600 q 584 552 646 570 q 555 526 555 549 l 555 525 q 597 478 555 490 q 669 457 644 472 q 699 383 699 439 q 700 366 700 383 l 700 360 q 698 329 700 351 q 745 288 698 301 q 764 288 756 288 l 806 288 q 832 277 825 288 l 832 75 q 806 64 825 64 l 640 64 q 517 95 543 64 q 503 154 503 117 l 503 371 q 486 460 503 439 q 360 514 450 514 l 359 514 q 300 481 314 514 q 298 469 298 477 l 298 334 q 331 292 298 304 q 362 288 345 288 l 403 288 q 428 277 420 288 l 428 75 q 402 64 420 64 l 60 64 q 33 75 41 64 l 33 277 q 60 288 41 288 l 73 288 q 138 321 124 288 q 140 334 140 330 l 140 409 q 105 537 140 503 l 105 538 q 140 663 140 570 l 140 711 q 66 760 140 760 l 57 760 q 33 770 41 760 l 33 958 q 56 968 41 968 q 208 955 149 955 l 225 955 q 429 972 307 955 q 459 975 439 975 m 14 959 l 14 959 l 14 770 q 54 743 20 743 l 66 743 q 122 708 122 743 l 122 663 q 97 557 122 583 l 97 559 q 107 637 107 588 q 106 687 106 682 q 49 696 100 696 q 0 739 0 708 l 0 936 q 14 959 0 946 m 663 920 l 665 920 q 739 747 739 857 l 739 659 q 694 529 739 550 q 609 492 667 510 l 608 492 q 570 517 582 492 l 570 529 q 620 545 573 532 q 699 591 677 564 q 715 701 715 613 l 715 759 q 687 888 715 846 q 663 920 673 909 m 298 714 l 298 593 q 352 548 298 555 q 366 547 352 547 l 436 547 q 488 572 483 547 q 494 673 490 587 q 474 745 494 731 q 381 760 455 760 l 372 760 q 299 724 309 760 q 298 714 298 718 m 370 743 q 469 723 463 743 q 476 671 474 709 q 467 570 471 570 q 457 564 463 566 q 456 566 457 566 q 460 642 460 619 l 460 646 q 450 688 460 688 q 406 694 450 692 l 358 694 q 336 686 344 694 l 336 568 l 335 566 q 313 589 313 576 l 313 718 q 333 737 313 728 q 370 743 342 743 m 77 532 q 107 502 89 532 q 122 401 122 467 l 122 342 q 109 313 122 317 q 107 311 109 311 q 106 313 107 313 q 107 368 107 352 q 74 488 107 474 q 55 509 55 493 q 77 532 55 523 m 357 496 q 475 441 446 496 q 483 399 483 422 l 483 191 q 508 76 483 92 q 644 47 541 47 l 806 47 q 846 71 839 47 l 846 279 l 846 284 l 846 284 q 869 251 869 272 l 869 41 q 817 0 869 11 l 635 0 q 485 52 513 0 q 469 136 469 81 l 469 368 q 358 450 469 450 q 336 441 347 450 l 336 309 l 335 307 q 313 330 313 317 l 313 472 q 357 496 321 496 m 698 452 l 699 452 q 739 330 739 427 q 737 309 737 315 q 735 307 735 309 q 714 323 721 313 l 713 329 q 715 361 713 336 q 698 452 715 419 m 441 284 l 443 284 q 465 249 465 272 l 465 43 q 409 0 465 8 l 57 0 q 2 31 20 0 q 0 41 0 38 l 0 255 q 14 278 0 264 l 14 278 l 14 74 q 55 47 21 47 l 402 47 q 443 68 431 47 l 443 279 l 441 284 z "},"s":{"ha":678,"x_min":0,"x_max":640,"o":"m 251 980 l 284 980 q 429 964 375 980 l 432 964 q 454 977 439 964 q 470 980 461 980 l 579 980 q 602 971 594 980 l 602 682 q 575 671 595 671 l 475 671 q 448 690 448 671 q 422 753 448 734 q 370 764 400 764 l 264 764 q 190 722 203 764 q 186 692 186 707 l 186 625 q 215 561 186 576 q 264 551 240 551 l 272 551 q 350 573 318 551 q 420 553 397 553 q 505 545 444 549 q 602 450 602 527 l 602 197 q 454 68 602 98 q 380 62 424 62 l 372 62 q 207 83 267 62 l 203 83 q 184 68 193 83 q 163 62 174 62 l 59 62 q 33 72 41 62 l 33 395 q 77 405 37 405 l 144 405 q 186 395 180 405 l 186 359 q 224 298 186 309 q 262 293 245 293 l 374 293 q 444 323 429 293 q 448 359 448 338 l 448 451 q 425 508 448 495 q 397 515 410 515 q 351 500 373 515 q 286 519 327 519 l 178 519 q 52 578 82 519 q 33 645 33 608 l 33 821 q 96 940 33 897 q 251 980 156 980 m 616 977 q 637 956 626 977 q 640 947 640 951 l 640 647 q 593 608 640 621 q 581 606 585 606 l 475 606 q 419 633 438 606 q 410 686 416 637 q 366 699 410 699 l 273 699 q 225 677 225 699 q 224 651 224 660 l 224 606 q 227 574 224 589 q 227 573 227 574 q 210 587 214 578 q 201 631 201 600 l 201 688 q 218 735 201 725 q 264 745 233 745 l 368 745 q 421 727 412 745 q 430 675 428 709 q 471 653 441 653 l 575 653 q 616 677 608 653 l 616 972 l 616 977 m 26 889 l 28 889 l 28 888 q 14 821 14 862 l 14 639 q 62 535 14 584 q 172 502 103 502 l 284 502 q 349 477 325 502 l 351 477 q 395 498 370 498 l 397 498 q 428 469 428 492 q 430 448 430 469 l 430 359 q 416 318 430 326 l 414 318 q 415 336 415 330 l 415 406 q 405 450 415 450 q 401 451 401 451 q 362 430 381 451 l 355 429 l 353 429 q 325 447 345 429 q 273 455 315 455 l 174 455 q 5 573 41 455 q 0 606 0 590 l 0 803 q 26 889 0 847 m 597 515 l 598 515 q 640 432 640 480 l 640 158 q 519 18 640 68 q 390 -3 459 -3 l 358 -3 q 214 15 271 -3 q 163 -3 193 -3 l 57 -3 q 2 28 20 -3 q 0 38 0 35 l 0 371 q 14 395 0 382 l 14 395 l 14 71 q 55 44 20 44 l 159 44 q 202 64 189 44 l 203 64 q 372 44 260 44 l 385 44 q 598 127 531 44 q 616 189 616 158 l 616 457 q 597 514 616 490 l 597 515 m 200 401 l 202 401 q 224 367 224 388 l 224 341 q 227 316 224 325 q 225 315 225 316 q 202 349 202 323 q 201 361 201 353 l 201 394 l 200 401 z "},"t":{"ha":764,"x_min":0,"x_max":745,"o":"m 470 974 l 486 974 q 671 962 503 974 l 683 962 q 708 952 700 962 l 708 628 q 682 618 701 618 l 578 618 q 551 627 559 618 l 551 665 q 537 742 551 734 q 480 754 522 754 l 466 754 q 447 722 447 754 q 446 661 447 682 q 481 532 446 567 l 481 530 q 447 387 447 496 q 448 325 447 367 q 490 288 448 301 q 509 286 501 286 l 537 286 q 566 275 560 286 l 566 73 q 543 64 557 64 q 368 82 451 82 q 197 64 292 82 q 175 73 184 64 l 175 275 q 201 286 182 286 l 232 286 q 292 320 276 286 q 294 376 294 337 l 294 393 q 254 534 294 500 q 294 678 294 568 l 294 694 q 288 749 294 749 q 275 754 282 754 l 248 754 q 191 706 191 754 q 189 676 189 697 l 189 627 q 163 618 182 618 l 59 618 q 33 628 41 618 l 33 952 q 57 962 41 962 q 222 940 141 940 q 404 968 308 940 q 470 974 431 974 m 722 960 l 722 960 q 745 926 745 947 l 745 594 q 699 555 745 567 q 688 553 693 553 l 578 553 q 521 585 537 553 q 517 598 517 590 l 517 665 q 511 687 517 687 q 486 690 503 689 q 484 634 484 652 q 500 538 484 570 q 472 575 482 547 q 462 667 462 607 q 463 736 463 728 l 465 737 l 475 737 q 527 726 520 737 q 532 698 532 712 l 532 633 q 549 606 532 612 q 573 600 562 600 l 682 600 q 722 622 711 600 l 722 954 l 722 960 m 14 952 l 14 952 l 14 627 q 53 600 14 606 l 163 600 q 204 622 194 600 q 205 630 205 626 l 205 693 q 220 732 205 732 q 248 737 231 737 l 272 737 l 274 736 q 275 682 275 699 q 248 555 275 584 l 248 558 q 261 659 261 589 q 259 690 260 690 q 229 686 239 690 q 228 659 228 667 l 228 598 q 176 553 228 565 l 57 553 q 1 587 19 553 l 0 594 l 0 930 q 14 952 0 940 m 509 529 q 533 514 533 519 q 536 503 536 510 q 511 479 536 490 q 486 368 486 453 l 486 353 q 484 349 486 351 q 486 345 486 347 l 486 307 l 484 307 q 463 329 463 314 l 463 401 q 501 526 463 498 q 509 529 507 529 m 226 528 q 262 490 246 522 q 275 396 275 455 l 275 384 q 274 326 275 363 q 261 309 274 319 l 260 311 q 261 370 260 329 q 231 478 261 455 q 204 492 205 490 q 200 505 201 498 q 226 528 200 522 m 581 283 l 582 283 q 604 244 604 269 l 604 47 q 563 2 604 14 q 547 0 553 0 l 543 0 q 387 16 449 16 l 357 16 q 203 0 296 16 l 197 0 q 144 30 163 0 q 141 47 141 40 l 141 241 q 155 276 141 266 l 156 274 l 156 71 q 197 47 163 47 q 368 64 291 64 q 541 47 442 64 l 543 47 q 582 71 582 54 l 582 270 l 581 283 z "},"u":{"ha":844,"x_min":0,"x_max":833,"o":"m 56 969 q 191 958 137 958 l 222 958 q 361 969 267 958 q 383 958 376 969 l 383 772 q 334 760 383 763 q 298 735 298 747 q 294 715 294 730 q 292 662 294 688 q 328 545 292 579 q 292 447 292 513 q 302 304 292 316 q 347 276 316 276 q 420 273 357 273 l 460 273 q 533 312 519 273 q 536 363 536 328 l 536 429 q 503 543 536 513 q 536 673 536 580 l 536 717 q 481 762 536 753 q 446 772 451 762 l 446 958 q 467 969 446 964 l 469 969 q 621 952 561 952 q 774 969 683 952 q 796 960 788 969 l 796 772 q 770 762 789 762 l 754 762 q 693 727 708 762 l 692 715 l 692 667 q 731 540 692 572 q 701 458 706 507 q 692 287 692 414 l 692 235 q 572 65 692 109 q 425 42 509 42 l 404 42 q 165 132 229 42 q 138 233 138 175 l 138 265 q 111 513 138 469 q 95 539 107 524 l 95 541 q 131 610 123 570 q 138 717 138 649 q 83 762 138 753 l 60 762 q 33 772 41 762 l 33 960 q 56 969 41 969 m 397 966 l 399 966 q 416 947 414 956 q 427 960 425 960 l 427 960 l 427 777 q 482 744 427 744 q 517 711 517 739 l 517 683 q 492 559 517 585 l 490 559 q 503 664 503 591 q 502 685 502 669 l 502 689 q 458 699 500 698 q 417 725 429 707 l 417 727 l 416 727 q 389 703 413 715 q 339 695 376 699 l 332 690 q 330 646 330 663 l 330 636 q 347 549 330 576 l 346 549 q 308 664 308 572 l 308 697 q 315 730 308 730 q 368 746 326 746 q 397 772 397 753 l 397 960 l 397 966 m 810 966 q 831 944 820 966 q 833 936 833 940 l 833 739 q 780 698 833 709 q 730 689 730 698 l 730 660 q 729 642 730 649 q 747 549 729 579 l 746 549 q 713 599 723 564 q 707 674 707 633 q 707 721 707 701 q 753 745 718 745 l 770 745 q 810 768 802 745 l 810 960 l 810 966 m 14 960 l 14 960 l 14 772 q 56 745 14 749 l 73 745 q 119 717 112 745 l 119 711 q 91 564 119 589 l 91 566 q 103 648 103 599 l 103 689 q 57 698 101 698 q 4 724 27 698 q 0 739 0 734 l 0 936 q 14 960 0 947 m 357 539 q 382 514 382 527 l 382 513 q 356 490 382 496 q 330 419 330 475 l 330 393 q 336 294 330 306 l 334 293 q 309 355 309 303 q 307 437 308 392 q 346 536 307 517 q 357 539 354 539 m 757 538 l 758 538 q 783 511 783 529 q 760 488 783 500 q 730 289 730 450 l 730 214 q 576 -1 730 50 q 436 -22 507 -22 l 397 -22 q 120 117 177 -18 q 103 214 103 159 l 103 273 q 71 488 103 450 q 47 511 47 499 l 47 516 q 69 536 47 527 q 100 492 86 528 q 119 258 119 444 l 119 227 q 239 52 119 105 q 403 25 313 25 l 420 25 q 683 132 621 25 q 707 243 707 176 l 707 330 q 748 534 707 497 q 757 538 755 538 m 477 537 q 507 502 496 528 q 517 431 517 477 l 517 389 q 509 304 517 309 q 502 302 507 302 q 503 404 502 331 q 471 494 503 479 q 456 509 458 496 l 456 516 q 477 537 456 527 z "},"v":{"ha":840,"x_min":0,"x_max":823,"o":"m 56 974 q 203 961 146 961 q 352 974 256 961 l 353 974 q 374 963 366 974 l 374 774 q 328 764 372 764 q 279 740 301 764 q 273 720 273 728 q 352 448 275 706 q 411 417 370 417 l 412 417 q 471 448 454 417 q 546 720 546 711 l 546 721 q 482 764 538 764 q 444 774 449 764 l 444 963 q 467 974 451 974 q 615 963 562 963 q 764 974 666 963 q 785 964 777 974 l 785 766 q 783 764 785 764 l 763 764 q 702 732 718 764 q 667 607 667 642 l 667 600 q 682 550 667 572 q 642 517 659 538 q 587 406 610 479 q 564 334 564 343 l 564 333 q 610 290 564 302 q 648 279 648 288 l 648 77 q 623 65 644 65 q 404 85 505 85 q 194 65 304 85 q 171 75 180 65 l 171 279 q 219 292 171 288 q 254 333 254 307 l 254 334 q 213 450 254 351 q 125 544 176 522 l 125 546 q 144 602 144 570 l 144 607 q 107 755 144 661 q 88 764 102 764 l 61 764 q 33 774 41 764 l 33 964 q 56 974 41 974 m 388 970 l 390 970 q 411 942 411 956 l 412 942 q 425 964 412 953 l 425 964 l 425 778 q 482 746 425 746 q 527 718 527 742 q 450 448 455 456 q 442 444 448 444 q 511 690 511 687 q 457 700 511 699 q 412 738 412 715 l 411 738 q 376 703 411 718 q 325 698 360 698 q 311 690 312 693 q 386 438 382 452 q 356 488 366 438 q 288 718 296 687 l 288 719 q 329 746 288 740 q 387 765 380 746 q 389 773 389 769 l 389 965 l 388 970 m 798 970 q 821 948 809 970 q 823 940 823 945 l 823 715 q 804 699 817 699 l 768 699 q 736 681 736 699 q 704 574 704 604 q 711 544 704 561 q 681 603 681 564 q 719 729 681 640 q 761 746 733 746 l 800 746 l 800 965 l 798 970 m 14 964 l 15 964 l 15 773 q 52 746 15 753 l 89 746 q 111 682 94 740 q 125 607 125 639 l 125 598 q 108 554 125 572 l 108 555 q 110 577 110 571 q 81 699 110 617 l 59 699 q 2 732 20 699 q 0 740 0 735 l 0 940 q 14 964 0 952 m 717 540 q 736 519 736 523 l 738 511 q 707 490 738 493 q 659 448 678 479 q 610 326 635 408 l 603 308 q 578 333 578 318 q 658 511 625 481 q 717 540 685 540 m 98 536 q 177 471 146 519 q 219 385 197 443 q 236 331 236 338 q 218 312 236 319 q 144 459 182 422 q 82 494 118 485 q 71 511 71 501 q 98 536 71 528 m 663 286 q 686 248 686 273 l 686 52 q 658 7 686 19 q 625 0 643 0 l 625 0 q 444 19 496 19 q 410 20 416 19 q 199 0 315 20 l 194 0 q 138 33 157 0 q 136 52 136 43 l 136 248 q 151 280 136 268 l 152 277 l 152 71 q 193 47 160 47 q 402 67 305 67 q 621 47 500 67 l 623 47 q 663 75 663 52 l 663 271 q 663 286 663 275 z "},"w":{"ha":1326,"x_min":0,"x_max":1305,"o":"m 56 970 q 195 956 136 956 l 195 956 q 356 970 269 956 l 357 970 q 378 961 370 970 l 378 764 q 376 762 378 762 l 354 762 q 292 724 304 762 l 292 718 q 319 619 292 707 q 406 340 402 351 q 425 332 413 332 q 450 371 443 332 q 562 718 553 684 q 518 760 562 747 q 474 767 475 763 q 468 772 470 768 l 468 960 q 492 970 475 970 q 634 961 579 961 l 665 961 q 812 970 715 961 q 833 960 825 970 l 833 772 q 779 760 833 762 q 739 718 739 745 q 850 369 745 691 q 876 332 858 332 l 878 332 q 903 371 897 332 q 1017 741 1017 734 l 1017 744 q 999 762 1017 759 l 951 762 q 922 771 930 762 l 922 961 q 945 970 929 970 q 1095 964 1030 964 q 1246 970 1146 964 q 1267 961 1259 970 l 1267 772 q 1218 760 1267 762 q 1179 740 1197 758 q 1149 648 1166 713 q 1144 604 1144 623 l 1144 599 q 1160 545 1144 565 l 1160 542 q 1115 495 1133 522 q 1055 356 1090 463 q 1050 333 1050 340 l 1050 329 q 1092 290 1050 304 q 1139 278 1139 287 l 1139 74 q 1117 65 1130 65 q 956 71 1005 71 q 812 65 906 71 q 789 83 789 67 l 669 494 q 656 503 663 503 l 644 503 q 624 469 629 503 q 510 74 622 465 q 487 65 500 65 q 325 73 395 73 q 183 65 271 73 q 162 74 171 65 l 162 278 q 211 290 162 288 q 251 329 251 306 l 251 333 q 211 456 251 349 q 160 530 190 500 q 143 542 158 530 q 159 593 159 565 q 124 736 159 640 q 56 762 109 762 q 33 772 43 762 l 33 961 q 56 970 41 970 m 393 967 l 395 967 q 417 933 417 954 l 417 717 q 397 696 414 696 l 361 696 q 329 688 338 696 q 425 376 420 396 l 426 376 l 528 688 q 481 698 518 698 q 435 741 435 711 l 435 933 q 448 961 435 950 l 449 961 l 449 774 q 469 748 449 755 q 512 743 485 743 q 542 719 542 733 l 542 715 q 424 349 532 679 l 420 349 q 361 537 418 349 q 306 718 306 710 q 328 740 306 730 q 352 744 336 744 l 394 744 l 394 960 l 393 967 m 846 967 q 869 945 856 967 l 870 934 l 870 741 q 816 696 870 707 q 777 688 781 696 q 878 376 789 653 l 880 376 l 978 696 l 949 696 q 889 733 903 696 q 888 744 888 739 l 888 930 q 901 960 888 951 l 903 960 l 903 777 q 928 746 903 753 q 945 744 941 744 l 997 744 q 999 741 999 744 q 876 348 883 363 l 876 348 q 863 380 871 348 q 754 715 754 711 l 754 717 q 800 744 754 740 q 847 769 841 744 l 847 962 l 846 967 m 1281 967 q 1303 945 1291 967 q 1305 937 1305 941 l 1305 738 q 1259 698 1305 711 q 1206 680 1206 698 q 1181 568 1181 604 q 1187 543 1181 559 l 1185 543 q 1158 601 1158 558 q 1189 726 1158 639 q 1253 745 1200 745 q 1282 768 1282 754 l 1282 962 l 1281 967 m 14 961 l 15 961 l 15 771 q 52 744 15 750 q 111 717 108 744 q 139 597 139 636 l 139 589 q 123 549 139 562 q 124 564 124 559 q 94 690 124 606 q 41 699 94 696 q 0 738 0 714 l 0 937 q 14 961 0 949 m 1192 536 q 1217 516 1215 525 l 1217 509 q 1193 488 1217 492 q 1127 412 1159 475 q 1090 308 1090 319 l 1088 308 q 1065 333 1065 316 q 1125 483 1095 436 q 1190 536 1154 525 l 1192 536 m 116 534 q 193 447 162 516 q 232 332 213 401 l 232 330 q 215 311 232 321 q 161 446 188 406 q 106 490 140 479 q 92 507 92 496 l 92 513 q 116 534 92 525 m 652 485 q 665 444 654 485 q 775 62 772 71 q 812 47 790 47 q 956 54 885 52 q 1117 47 1020 52 q 1154 67 1139 47 l 1154 79 l 1154 273 l 1154 286 q 1177 247 1177 273 l 1177 46 q 1125 0 1177 11 l 1119 0 q 970 5 1019 5 l 943 5 q 815 0 901 5 q 758 35 770 3 q 653 404 653 401 l 652 404 q 542 25 547 34 q 486 0 523 0 q 335 8 415 6 q 185 0 288 8 q 134 25 154 0 q 127 46 127 35 l 127 243 q 142 279 127 269 l 143 277 l 143 71 q 184 47 151 47 q 323 56 270 56 q 486 47 388 56 q 528 81 521 47 q 644 485 642 482 l 652 485 z "},"x":{"ha":900,"x_min":0,"x_max":880,"o":"m 56 972 q 206 966 142 966 q 380 972 259 966 q 401 962 393 972 l 401 772 q 372 762 393 762 l 317 762 q 298 743 302 762 q 334 699 298 730 q 414 630 396 631 q 432 627 422 627 l 445 627 q 514 669 479 627 q 580 739 580 732 l 580 745 q 561 763 580 760 l 505 763 q 475 773 482 763 l 475 962 q 498 972 482 972 q 651 964 596 964 l 667 964 q 821 972 730 964 q 842 962 834 972 l 842 773 q 815 763 835 763 l 792 763 q 729 734 753 763 q 569 578 583 594 q 566 563 566 569 q 578 536 566 553 q 566 509 566 522 l 566 507 q 617 439 566 483 q 764 296 758 296 q 827 288 781 288 q 842 278 841 283 l 842 75 q 818 65 835 65 q 674 71 736 71 l 650 71 q 498 65 585 71 q 475 75 484 65 l 475 278 q 500 289 484 289 l 562 289 q 587 311 587 289 q 532 372 587 319 q 466 431 479 431 q 437 435 452 435 q 365 393 397 435 q 291 315 291 319 q 289 307 290 307 q 309 289 289 293 l 372 289 q 401 278 393 289 l 401 75 q 376 65 393 65 q 203 73 277 73 q 54 65 150 73 q 33 75 42 65 l 33 278 q 93 290 33 290 q 139 320 119 296 q 294 477 294 473 q 299 498 299 490 l 299 505 q 288 532 299 518 l 288 534 q 310 562 310 545 l 310 564 q 274 611 310 583 q 121 754 127 754 q 83 763 105 763 l 60 763 q 33 773 41 763 l 33 962 q 56 972 41 972 m 414 969 l 416 969 q 438 935 438 956 l 438 741 q 378 697 438 705 l 360 697 l 405 652 l 404 652 q 314 741 401 652 l 314 742 q 316 744 314 744 l 368 744 q 415 768 408 744 l 415 964 l 414 969 m 856 969 q 878 947 866 969 q 880 939 880 943 l 880 739 q 844 702 880 715 q 821 698 832 698 l 800 698 q 752 674 768 698 l 611 540 q 582 562 582 547 l 582 565 q 618 604 582 572 q 764 741 756 739 q 793 745 779 745 l 812 745 q 857 769 849 745 l 857 964 l 856 969 m 14 962 l 15 962 l 15 772 q 52 745 15 751 l 77 745 q 132 721 114 745 q 290 568 286 574 q 291 564 291 566 l 291 563 q 264 544 291 551 q 112 690 239 568 q 81 698 104 698 l 58 698 q 2 730 20 698 q 0 739 0 734 l 0 939 q 14 962 0 951 m 455 962 l 456 962 l 456 777 q 479 748 456 755 q 499 745 492 745 l 559 745 q 561 743 561 745 l 561 742 q 517 698 560 740 l 500 698 q 444 730 462 698 q 441 743 441 738 l 441 932 q 455 962 441 951 m 608 534 q 636 507 636 528 q 607 482 636 494 l 604 478 q 764 316 605 475 l 763 316 q 586 493 586 490 q 581 509 581 501 q 606 534 581 521 l 608 534 m 260 532 q 280 503 280 517 l 280 497 q 267 473 280 486 l 266 473 q 239 494 266 482 q 231 509 232 501 q 260 532 231 530 m 437 418 q 494 384 469 418 q 568 308 529 349 q 566 306 568 306 l 521 306 q 458 368 461 368 q 441 370 445 370 q 399 345 418 370 q 359 304 399 345 l 308 304 q 304 308 306 304 q 407 410 403 410 q 437 418 420 418 m 414 286 l 415 286 q 438 251 438 272 l 438 184 q 441 158 438 170 q 438 156 438 157 l 438 46 q 383 0 438 9 l 380 0 q 218 8 294 6 q 58 0 163 8 q 2 31 20 0 q 0 41 0 38 l 0 256 q 14 278 0 267 l 15 278 l 15 75 q 45 48 15 56 q 54 47 51 47 q 202 56 149 56 q 378 47 267 56 q 415 75 415 53 l 415 278 l 414 286 m 856 286 l 857 286 q 880 252 880 272 l 880 41 q 827 0 880 11 l 821 0 q 659 6 726 6 q 499 0 606 6 q 445 29 465 0 q 441 46 441 37 l 441 248 q 455 278 441 267 l 456 278 l 456 79 q 492 47 456 52 l 496 47 q 650 54 586 54 l 671 54 q 819 47 729 54 q 857 69 845 47 l 857 280 l 856 286 z "},"y":{"ha":882,"x_min":0,"x_max":860,"o":"m 57 975 q 218 967 153 967 l 220 967 q 375 975 280 967 q 398 965 391 975 l 398 776 q 358 764 393 766 q 347 747 347 758 l 347 743 q 385 675 347 736 q 437 657 406 657 q 503 699 479 657 q 532 745 532 736 l 532 749 q 513 766 532 762 l 488 766 q 458 776 465 766 l 458 965 q 481 975 465 975 q 645 965 589 965 q 801 975 703 965 q 822 966 814 975 l 822 776 q 787 766 822 767 q 720 726 746 766 q 610 565 610 610 l 612 551 q 517 489 547 532 q 505 456 505 479 l 505 336 q 563 290 505 297 l 589 290 q 619 279 612 290 l 619 75 q 595 65 611 65 q 421 79 500 79 q 255 65 349 79 q 232 75 240 65 l 232 279 q 262 290 239 290 l 285 290 q 343 320 326 290 q 347 336 347 330 l 347 454 q 331 494 347 481 q 273 543 303 530 l 243 553 l 245 555 l 245 566 q 111 754 245 613 q 48 766 92 766 q 34 776 36 771 l 34 966 q 57 975 41 975 m 412 972 q 429 956 420 972 l 431 956 q 438 966 431 960 l 439 966 l 439 780 q 459 752 439 759 q 482 747 473 747 l 511 747 q 513 745 513 747 l 513 745 q 480 701 484 703 q 431 724 454 701 l 431 726 l 429 726 q 395 703 429 715 q 408 680 408 681 l 406 680 q 366 738 395 680 q 361 745 365 738 l 361 745 q 363 747 361 747 l 368 747 q 412 774 412 751 l 412 967 l 412 972 m 836 972 q 858 950 846 972 q 860 942 860 946 l 860 741 q 823 705 860 718 q 775 699 815 701 q 730 651 764 694 q 649 536 651 566 l 649 534 q 669 515 669 528 l 669 511 q 638 489 669 492 q 565 458 589 479 q 544 433 544 435 l 544 312 l 543 310 q 521 333 521 319 l 521 463 q 569 515 524 483 q 646 540 597 531 l 646 542 q 626 562 626 547 l 626 567 q 733 717 626 600 q 785 747 755 747 q 836 766 825 747 l 837 772 l 837 967 l 836 972 m 14 966 l 15 966 l 15 775 q 59 747 15 751 q 113 724 99 747 q 226 564 226 602 l 226 561 q 212 543 226 549 l 212 540 q 285 515 252 536 q 328 458 328 477 l 328 340 q 313 314 328 321 l 312 314 l 312 433 q 245 486 286 473 q 203 496 211 494 q 197 515 197 506 q 211 532 197 526 l 211 534 q 102 684 211 564 q 62 701 94 701 q 0 738 14 701 l 0 942 q 14 966 0 954 m 634 287 q 657 255 657 272 l 657 44 q 622 4 657 17 q 600 0 610 0 l 596 0 q 427 14 488 14 q 260 0 359 14 l 256 0 q 199 34 218 0 l 199 41 l 199 255 q 212 279 199 268 l 213 279 l 213 75 q 254 47 219 47 q 420 61 350 61 q 595 47 492 61 q 634 73 634 52 l 634 283 l 633 286 q 634 287 634 286 z "},"z":{"ha":655,"x_min":0,"x_max":630,"o":"m 171 973 l 191 973 q 298 958 205 973 q 395 952 344 952 l 407 952 q 570 969 482 952 q 593 958 593 965 l 593 754 q 473 624 521 677 q 424 522 424 560 q 425 510 425 517 l 425 509 l 424 509 q 344 469 389 509 q 273 374 309 431 q 252 336 252 353 q 302 292 252 302 q 318 291 307 291 l 342 291 q 430 326 417 291 q 437 372 437 339 l 437 448 q 461 458 445 458 l 569 458 q 593 448 585 458 l 593 80 q 566 69 585 69 l 432 64 q 315 80 404 64 q 208 86 264 86 q 58 69 133 86 q 33 80 41 69 l 33 298 q 165 471 144 424 q 179 526 179 500 q 176 544 179 533 l 205 553 q 310 626 245 562 l 365 692 q 374 717 374 705 q 324 761 374 751 q 304 762 315 762 l 275 762 q 202 747 214 762 q 189 705 189 731 l 189 654 q 163 644 181 644 l 57 644 q 33 654 41 644 l 33 958 q 55 969 41 969 l 171 973 m 606 966 l 608 966 q 630 932 630 952 l 630 721 q 589 667 630 706 l 517 589 q 462 495 462 522 q 471 477 462 485 l 471 475 q 418 444 418 475 l 418 369 q 404 321 418 332 l 402 321 q 404 353 404 334 l 404 420 q 410 438 404 431 l 410 439 q 310 332 372 431 q 292 311 294 311 l 291 311 q 267 336 267 319 q 298 382 267 341 q 367 467 330 435 q 433 492 399 492 l 451 492 l 451 494 q 439 522 439 506 l 439 524 q 579 714 439 575 q 606 747 606 745 q 607 751 607 749 l 607 960 l 606 966 m 14 960 l 14 960 l 14 653 q 55 626 20 626 l 163 626 q 203 653 197 626 l 203 697 q 218 739 203 732 q 283 744 236 744 l 298 744 q 355 715 355 744 q 339 690 355 708 q 318 696 329 696 l 258 696 q 228 688 228 696 q 226 663 226 679 l 226 625 q 169 579 226 586 q 148 578 163 578 l 77 578 q 0 616 10 578 l 0 937 q 14 960 0 947 m 153 549 q 161 522 161 539 q 134 454 161 495 l 134 456 q 145 491 145 478 l 145 498 q 133 522 145 507 l 132 528 q 153 549 136 549 m 606 455 l 608 455 q 630 422 630 442 l 630 45 q 587 7 630 21 q 448 0 587 5 l 435 0 q 313 16 398 0 q 210 22 256 22 q 60 5 150 22 l 58 5 q 2 37 20 5 q 0 45 0 41 l 0 271 q 14 298 0 287 l 14 298 l 14 79 q 56 52 14 56 q 208 68 136 68 q 403 47 291 68 q 437 47 420 47 q 589 56 589 52 q 607 76 607 66 l 607 450 l 606 455 z "}}}
